<svg xmlns="http://www.w3.org/2000/svg" width="1042" height="1041" viewBox="0 0 1042 1041" fill="none"><circle opacity="0.06" cx="516.5" cy="547.5" r="289.488" stroke="white" stroke-width="2.56184"></circle><circle opacity="0.06" cx="516.5" cy="547.5" r="361.219" stroke="white" stroke-width="2.56184"></circle><g opacity="0.71" filter="url(#filter0_f_388_2046)"><ellipse cx="520.983" cy="520.6" rx="226.082" ry="225.442" fill="#0A5AF6"></ellipse></g><g clip-path="url(#clip0_388_2046)"><path d="M698.952 271H334.451C322.052 271 312 281.052 312 293.451V800.968C312 813.367 322.052 823.418 334.451 823.418H698.952C711.351 823.418 721.402 813.367 721.402 800.968V293.451C721.402 281.052 711.351 271 698.952 271Z" fill="url(#paint0_linear_388_2046)"></path><path d="M698.952 812.283H334.451C328.21 812.283 323.135 807.208 323.135 800.968V293.451C323.135 287.21 328.21 282.135 334.451 282.135H698.957C705.197 282.135 710.272 287.21 710.272 293.451V800.972C710.272 807.213 705.197 812.288 698.957 812.288L698.952 812.283ZM334.451 283.557C328.997 283.557 324.557 287.997 324.557 293.451V800.972C324.557 806.426 328.997 810.866 334.451 810.866H698.957C704.41 810.866 708.85 806.426 708.85 800.972V293.451C708.85 287.997 704.41 283.557 698.957 283.557H334.451Z" fill="white"></path><path d="M692.033 293.939H341.369C336.848 293.939 333.171 297.616 333.171 302.136V790.387C333.171 794.907 336.848 798.584 341.369 798.584H692.033C696.554 798.584 700.231 794.907 700.231 790.387V302.136C700.231 297.616 696.554 293.939 692.033 293.939ZM684.153 326.914V351.682C676.738 350.104 669.753 346.962 663.541 342.375C664.816 340.798 665.583 338.793 665.583 336.609C665.583 331.539 661.461 327.416 656.391 327.416C654.339 327.416 652.439 328.094 650.908 329.236C646.715 323.071 643.886 316.195 642.531 308.955H666.564C666.602 308.955 666.64 308.955 666.673 308.946C669.81 317.025 676.164 323.512 684.158 326.814C684.153 326.848 684.149 326.876 684.149 326.914H684.153ZM684.348 395.546C685.57 395.546 686.561 396.536 686.561 397.758C686.561 398.981 685.57 399.971 684.348 399.971C683.125 399.971 682.135 398.981 682.135 397.758C682.135 396.536 683.125 395.546 684.348 395.546ZM656.391 344.754C651.899 344.754 648.245 341.101 648.245 336.609C648.245 332.117 651.899 328.463 656.391 328.463C660.883 328.463 664.536 332.117 664.536 336.609C664.536 341.101 660.883 344.754 656.391 344.754ZM651.633 307.851H642.341C642.029 305.965 641.82 304.056 641.706 302.127H664.873C665.162 304.098 665.636 306.013 666.275 307.851H651.633ZM641.711 295.853H664.588C664.56 296.398 664.541 296.953 664.541 297.516C664.541 298.701 664.612 299.867 664.74 301.018H641.654C641.631 300.345 641.616 299.668 641.616 298.99C641.616 297.929 641.654 296.882 641.716 295.849L641.711 295.853ZM368.615 295.853H391.492C391.554 296.882 391.592 297.933 391.592 298.995C391.592 299.672 391.578 300.35 391.554 301.023H368.468C368.596 299.872 368.667 298.706 368.667 297.521C368.667 296.957 368.648 296.403 368.62 295.858L368.615 295.853ZM391.492 302.127C391.383 304.056 391.17 305.965 390.857 307.851H366.923C367.558 306.013 368.037 304.098 368.326 302.127H391.492ZM382.295 329.24C380.764 328.098 378.864 327.421 376.813 327.421C371.742 327.421 367.62 331.543 367.62 336.613C367.62 338.793 368.388 340.802 369.662 342.38C363.45 346.967 356.466 350.104 349.05 351.687V326.919C349.05 326.885 349.05 326.852 349.04 326.819C357.034 323.516 363.389 317.029 366.525 308.95C366.559 308.955 366.596 308.96 366.634 308.96H390.668C389.317 316.2 386.484 323.08 382.29 329.24H382.295ZM384.953 336.613C384.953 341.106 381.3 344.759 376.808 344.759C372.316 344.759 368.662 341.106 368.662 336.613C368.662 332.121 372.316 328.468 376.808 328.468C381.3 328.468 384.953 332.121 384.953 336.613ZM348.856 395.546C350.078 395.546 351.069 396.536 351.069 397.758C351.069 398.981 350.078 399.971 348.856 399.971C347.633 399.971 346.643 398.981 346.643 397.758C346.643 396.536 347.633 395.546 348.856 395.546ZM347.941 351.904C346.055 352.265 344.146 352.525 342.217 352.686V328.767C344.193 328.435 346.107 327.928 347.941 327.25V351.904ZM335.086 302.136C335.086 301.293 335.256 300.492 335.555 299.758C335.607 300.284 335.654 300.805 335.706 301.331C335.853 302.838 336 304.345 336.147 305.851C336.441 308.865 336.735 311.879 337.024 314.892C337.133 316.039 337.246 317.181 337.355 318.328C337.545 320.285 337.735 322.242 337.924 324.199C337.99 324.9 339.099 324.91 339.033 324.199C338.369 317.347 337.701 310.495 337.038 303.648C336.967 302.923 336.896 302.198 336.825 301.473C338.668 306.761 340.516 312.054 342.359 317.342C343.008 319.2 343.653 321.057 344.302 322.915C344.534 323.583 345.605 323.294 345.368 322.621C343.103 316.12 340.833 309.623 338.568 303.122C338.332 302.444 338.095 301.762 337.858 301.085C340.9 305.79 343.947 310.49 346.989 315.196C348.06 316.845 349.126 318.498 350.197 320.147C350.58 320.744 351.542 320.19 351.154 319.588C347.415 313.812 343.672 308.031 339.933 302.255C339.417 301.459 338.905 300.663 338.388 299.872C342.942 304.425 347.496 308.979 352.045 313.528C353.433 314.916 354.826 316.309 356.214 317.698C356.717 318.2 357.503 317.418 356.996 316.916C352.13 312.049 347.264 307.183 342.397 302.317C341.464 301.383 340.525 300.445 339.592 299.511C344.392 302.364 349.192 305.216 353.992 308.069C355.684 309.074 357.375 310.078 359.062 311.083C359.674 311.448 360.233 310.49 359.621 310.126C353.703 306.61 347.79 303.094 341.871 299.578C341.265 299.218 340.663 298.857 340.056 298.497C345.425 300.142 350.794 301.786 356.162 303.435C358.044 304.013 359.925 304.586 361.801 305.164C362.483 305.373 362.777 304.307 362.095 304.098C355.513 302.08 348.931 300.066 342.355 298.047C341.686 297.843 341.014 297.635 340.345 297.431C345.956 297.763 351.571 298.09 357.181 298.422C359.143 298.535 361.109 298.654 363.071 298.767C363.782 298.81 363.782 297.701 363.071 297.659C356.2 297.256 349.33 296.853 342.459 296.45C341.369 296.389 340.279 296.322 339.189 296.261C339.872 296.01 340.601 295.863 341.369 295.863H367.568C367.596 296.408 367.62 296.962 367.62 297.526C367.62 314.423 353.874 328.165 336.981 328.165C336.332 328.165 335.702 328.141 335.09 328.103V302.146L335.086 302.136ZM335.086 329.146C335.697 329.184 336.332 329.207 336.976 329.207C338.379 329.207 339.753 329.108 341.108 328.928V352.762C339.981 352.833 338.853 352.866 337.711 352.866C336.834 352.866 335.953 352.843 335.081 352.8V329.141L335.086 329.146ZM341.663 426.71C342.885 426.71 343.876 427.701 343.876 428.923C343.876 430.146 342.885 431.136 341.663 431.136C340.44 431.136 339.45 430.146 339.45 428.923C339.45 427.701 340.44 426.71 341.663 426.71ZM335.086 739.657C335.953 739.614 336.834 739.591 337.716 739.591C338.853 739.591 339.985 739.629 341.113 739.695V763.529C339.758 763.354 338.384 763.25 336.981 763.25C336.337 763.25 335.706 763.273 335.09 763.311V739.652L335.086 739.657ZM367.563 796.67H341.369C340.549 796.67 339.767 796.509 339.047 796.22C340.184 796.154 341.322 796.087 342.459 796.021C349.33 795.618 356.2 795.215 363.071 794.812C363.782 794.77 363.782 793.666 363.071 793.704C361.109 793.817 359.143 793.936 357.181 794.05C351.571 794.381 345.956 794.708 340.345 795.04C341.014 794.836 341.686 794.628 342.355 794.424C348.936 792.405 355.518 790.392 362.095 788.373C362.773 788.164 362.483 787.098 361.801 787.307C359.92 787.885 358.039 788.458 356.162 789.036C350.794 790.681 345.425 792.325 340.056 793.974C340.663 793.614 341.265 793.254 341.871 792.893C347.79 789.378 353.703 785.862 359.621 782.346C360.233 781.981 359.678 781.024 359.062 781.388C357.371 782.393 355.679 783.398 353.992 784.402C349.192 787.255 344.392 790.107 339.592 792.96C340.525 792.026 341.464 791.088 342.397 790.155C347.264 785.288 352.13 780.422 356.996 775.555C357.499 775.053 356.717 774.267 356.214 774.774C354.826 776.162 353.433 777.555 352.045 778.943C347.491 783.497 342.937 788.051 338.388 792.6C338.905 791.804 339.417 791.008 339.933 790.216C343.672 784.44 347.415 778.659 351.154 772.883C351.542 772.281 350.585 771.727 350.197 772.324C349.126 773.973 348.06 775.627 346.989 777.275C343.947 781.981 340.9 786.681 337.858 791.387C338.095 790.709 338.332 790.027 338.568 789.349C340.833 782.848 343.103 776.352 345.368 769.85C345.605 769.178 344.534 768.888 344.302 769.557C343.653 771.414 343.008 773.272 342.359 775.129C340.516 780.417 338.668 785.71 336.825 790.998C336.896 790.273 336.967 789.548 337.038 788.823C337.701 781.971 338.369 775.119 339.033 768.272C339.104 767.562 337.995 767.571 337.924 768.272C337.735 770.229 337.545 772.186 337.355 774.143C337.246 775.29 337.133 776.432 337.024 777.579C336.73 780.592 336.436 783.606 336.147 786.62C336 788.127 335.853 789.633 335.706 791.14C335.654 791.68 335.602 792.221 335.55 792.761C335.252 792.031 335.086 791.235 335.086 790.396V764.377C335.697 764.34 336.327 764.316 336.976 764.316C353.874 764.316 367.615 778.062 367.615 794.955C367.615 795.542 367.592 796.116 367.563 796.679V796.67ZM341.663 665.751C340.44 665.751 339.45 664.761 339.45 663.538C339.45 662.316 340.44 661.326 341.663 661.326C342.885 661.326 343.876 662.316 343.876 663.538C343.876 664.761 342.885 665.751 341.663 665.751ZM342.217 739.78C344.15 739.936 346.06 740.202 347.941 740.562V765.216C346.107 764.539 344.193 764.032 342.217 763.7V739.78ZM367.615 755.853C367.615 760.923 371.738 765.046 376.808 765.046C378.86 765.046 380.76 764.368 382.29 763.226C386.484 769.391 389.313 776.266 390.668 783.507H366.634C366.596 783.507 366.559 783.507 366.525 783.516C363.389 775.437 357.034 768.95 349.04 765.647C349.045 765.614 349.05 765.586 349.05 765.548V740.78C356.466 742.358 363.45 745.499 369.662 750.086C368.388 751.664 367.62 753.669 367.62 755.853H367.615ZM376.808 747.708C381.3 747.708 384.953 751.361 384.953 755.853C384.953 760.345 381.3 763.998 376.808 763.998C372.316 763.998 368.662 760.345 368.662 755.853C368.662 751.361 372.316 747.708 376.808 747.708ZM348.856 696.916C347.633 696.916 346.643 695.926 346.643 694.703C346.643 693.481 347.633 692.49 348.856 692.49C350.078 692.49 351.069 693.481 351.069 694.703C351.069 695.926 350.078 696.916 348.856 696.916ZM366.923 784.611H390.857C391.17 786.497 391.379 788.406 391.492 790.335H368.326C368.037 788.363 367.563 786.449 366.923 784.611ZM391.488 796.67H368.61C368.643 796.106 368.662 795.533 368.662 794.945C368.662 793.761 368.591 792.595 368.463 791.443H391.549C391.573 792.116 391.587 792.794 391.587 793.472C391.587 794.552 391.549 795.623 391.488 796.67ZM664.588 796.67H641.711C641.649 795.623 641.612 794.552 641.612 793.472C641.612 792.794 641.626 792.116 641.65 791.443H664.735C664.607 792.595 664.536 793.761 664.536 794.945C664.536 795.533 664.555 796.106 664.588 796.67ZM641.711 790.335C641.82 788.406 642.033 786.497 642.346 784.611H666.28C665.645 786.449 665.166 788.363 664.877 790.335H641.711ZM650.908 763.221C652.439 764.363 654.339 765.041 656.391 765.041C661.461 765.041 665.583 760.918 665.583 755.848C665.583 753.669 664.816 751.659 663.541 750.082C669.753 745.495 676.738 742.358 684.153 740.775V765.543C684.153 765.576 684.153 765.609 684.163 765.643C676.169 768.945 669.815 775.432 666.678 783.511C666.645 783.507 666.607 783.502 666.569 783.502H642.536C643.886 776.261 646.72 769.381 650.913 763.221H650.908ZM648.25 755.853C648.25 751.361 651.904 747.708 656.396 747.708C660.888 747.708 664.541 751.361 664.541 755.853C664.541 760.345 660.888 763.998 656.396 763.998C651.904 763.998 648.25 760.345 648.25 755.853ZM684.348 696.916C683.125 696.916 682.135 695.926 682.135 694.703C682.135 693.481 683.125 692.49 684.348 692.49C685.57 692.49 686.561 693.481 686.561 694.703C686.561 695.926 685.57 696.916 684.348 696.916ZM685.262 740.557C687.148 740.197 689.058 739.936 690.986 739.775V763.695C689.01 764.027 687.096 764.534 685.262 765.211V740.557ZM698.317 790.387C698.317 791.363 698.084 792.287 697.686 793.116C697.62 792.453 697.558 791.794 697.492 791.131C697.345 789.624 697.198 788.117 697.051 786.61C696.758 783.597 696.464 780.583 696.175 777.569C696.066 776.423 695.952 775.281 695.843 774.134C695.654 772.177 695.464 770.22 695.275 768.263C695.208 767.562 694.099 767.552 694.166 768.263C694.829 775.115 695.497 781.967 696.161 788.814C696.232 789.539 696.303 790.264 696.374 790.989C694.531 785.7 692.683 780.408 690.839 775.12C690.19 773.262 689.546 771.405 688.897 769.547C688.664 768.879 687.594 769.168 687.83 769.841C690.095 776.342 692.365 782.838 694.63 789.34C694.867 790.017 695.104 790.7 695.341 791.377C692.299 786.672 689.252 781.971 686.21 777.266C685.139 775.617 684.073 773.963 683.002 772.314C682.618 771.717 681.656 772.272 682.045 772.874C685.783 778.65 689.527 784.431 693.265 790.207C693.782 791.003 694.294 791.799 694.81 792.59C690.257 788.037 685.703 783.483 681.154 778.934C679.766 777.546 678.373 776.153 676.984 774.764C676.482 774.262 675.695 775.044 676.202 775.546C681.069 780.412 685.935 785.279 690.801 790.145C691.735 791.079 692.673 792.017 693.607 792.95C688.807 790.098 684.007 787.245 679.206 784.393C677.515 783.388 675.823 782.384 674.136 781.379C673.525 781.014 672.966 781.971 673.577 782.336C679.496 785.852 685.409 789.368 691.327 792.884C691.934 793.244 692.536 793.604 693.142 793.964C687.774 792.32 682.405 790.676 677.036 789.027C675.155 788.449 673.274 787.875 671.397 787.297C670.715 787.089 670.421 788.155 671.104 788.363C677.685 790.382 684.267 792.396 690.844 794.414C691.512 794.618 692.185 794.827 692.853 795.03C687.243 794.699 681.628 794.372 676.017 794.04C674.056 793.926 672.089 793.808 670.128 793.694C669.417 793.652 669.417 794.76 670.128 794.803C676.998 795.206 683.869 795.609 690.74 796.011C691.934 796.082 693.128 796.154 694.322 796.22C693.611 796.499 692.839 796.66 692.029 796.66H665.631C665.598 796.097 665.579 795.523 665.579 794.936C665.579 778.038 679.325 764.297 696.218 764.297C696.933 764.297 697.634 764.321 698.307 764.373V790.382L698.317 790.387ZM698.317 763.33C697.644 763.283 696.943 763.254 696.227 763.254C694.824 763.254 693.45 763.354 692.095 763.534V739.7C693.223 739.629 694.351 739.595 695.493 739.595C696.44 739.595 697.388 739.619 698.321 739.666V763.33H698.317ZM691.541 665.751C690.318 665.751 689.328 664.761 689.328 663.538C689.328 662.316 690.318 661.326 691.541 661.326C692.763 661.326 693.754 662.316 693.754 663.538C693.754 664.761 692.763 665.751 691.541 665.751ZM698.317 738.619C697.383 738.572 696.436 738.548 695.488 738.548C694.351 738.548 693.218 738.581 692.09 738.652V666.813C693.659 666.547 694.858 665.183 694.858 663.543C694.858 661.714 693.37 660.221 691.536 660.221C689.702 660.221 688.214 661.709 688.214 663.543C688.214 665.183 689.413 666.547 690.982 666.813V738.733C689.053 738.889 687.143 739.145 685.257 739.496V697.897C686.646 697.499 687.665 696.22 687.665 694.708C687.665 692.879 686.177 691.386 684.343 691.386C682.509 691.386 681.021 692.874 681.021 694.708C681.021 696.542 682.41 697.916 684.149 698.015V739.714C676.472 741.315 669.246 744.557 662.83 749.309C661.172 747.674 658.893 746.665 656.386 746.665C651.316 746.665 647.194 750.788 647.194 755.858C647.194 758.492 648.312 760.871 650.093 762.548C645.748 768.912 642.834 776.025 641.46 783.511H599.022C598.923 781.772 597.478 780.384 595.715 780.384C593.952 780.384 592.393 781.872 592.393 783.706C592.393 785.539 593.881 787.027 595.715 787.027C597.227 787.027 598.506 786.008 598.904 784.62H641.275C640.967 786.506 640.763 788.42 640.654 790.344H567.82C567.554 788.776 566.19 787.577 564.55 787.577C562.721 787.577 561.228 789.065 561.228 790.899C561.228 792.732 562.716 794.22 564.55 794.22C566.19 794.22 567.554 793.021 567.82 791.453H640.593C640.569 792.126 640.555 792.803 640.555 793.481C640.555 794.561 640.593 795.632 640.654 796.679H392.539C392.601 795.632 392.639 794.561 392.639 793.481C392.639 792.803 392.625 792.126 392.601 791.453H465.374C465.64 793.021 467.004 794.22 468.644 794.22C470.473 794.22 471.965 792.732 471.965 790.899C471.965 789.065 470.478 787.577 468.644 787.577C467.004 787.577 465.64 788.776 465.374 790.344H392.539C392.43 788.416 392.227 786.506 391.919 784.62H434.29C434.688 786.008 435.967 787.027 437.479 787.027C439.308 787.027 440.801 785.539 440.801 783.706C440.801 781.872 439.313 780.384 437.479 780.384C435.645 780.384 434.271 781.772 434.172 783.511H391.734C390.365 776.025 387.446 768.912 383.1 762.548C384.882 760.871 386 758.492 386 755.858C386 750.788 381.878 746.665 376.808 746.665C374.301 746.665 372.027 747.674 370.364 749.309C363.948 744.557 356.722 741.315 349.045 739.714V698.015C350.784 697.916 352.173 696.471 352.173 694.708C352.173 692.945 350.685 691.386 348.851 691.386C347.017 691.386 345.529 692.874 345.529 694.708C345.529 696.22 346.548 697.499 347.936 697.897V739.496C346.051 739.145 344.141 738.885 342.212 738.733V666.813C343.781 666.547 344.98 665.183 344.98 663.543C344.98 661.714 343.492 660.221 341.658 660.221C339.824 660.221 338.336 661.709 338.336 663.543C338.336 665.183 339.535 666.547 341.104 666.813V738.652C339.976 738.586 338.848 738.548 337.706 738.548C336.829 738.548 335.948 738.572 335.076 738.614V353.852C335.943 353.895 336.825 353.918 337.706 353.918C338.843 353.918 339.976 353.885 341.104 353.814V425.654C339.535 425.919 338.336 427.284 338.336 428.923C338.336 430.752 339.824 432.245 341.658 432.245C343.492 432.245 344.98 430.757 344.98 428.923C344.98 427.284 343.781 425.919 342.212 425.654V353.734C344.141 353.577 346.051 353.321 347.936 352.971V394.57C346.548 394.968 345.529 396.247 345.529 397.758C345.529 399.588 347.017 401.08 348.851 401.08C350.685 401.08 352.173 399.592 352.173 397.758C352.173 395.925 350.784 394.551 349.045 394.451V352.753C356.722 351.151 363.948 347.91 370.364 343.157C372.022 344.792 374.301 345.801 376.808 345.801C381.878 345.801 386 341.679 386 336.609C386 333.974 384.882 331.595 383.1 329.918C387.446 323.554 390.36 316.442 391.734 308.955H434.172C434.271 310.694 435.716 312.083 437.479 312.083C439.242 312.083 440.801 310.595 440.801 308.761C440.801 306.927 439.313 305.439 437.479 305.439C435.967 305.439 434.688 306.458 434.29 307.846H391.919C392.227 305.96 392.43 304.046 392.539 302.122H465.374C465.64 303.691 467.004 304.89 468.644 304.89C470.473 304.89 471.965 303.402 471.965 301.568C471.965 299.734 470.478 298.246 468.644 298.246C467.004 298.246 465.64 299.445 465.374 301.013H392.601C392.625 300.341 392.639 299.663 392.639 298.985C392.639 297.924 392.601 296.877 392.544 295.844H640.664C640.607 296.872 640.569 297.924 640.569 298.985C640.569 299.663 640.583 300.341 640.607 301.013H567.834C567.568 299.445 566.204 298.246 564.564 298.246C562.735 298.246 561.243 299.734 561.243 301.568C561.243 303.402 562.731 304.89 564.564 304.89C566.204 304.89 567.568 303.691 567.834 302.122H640.669C640.778 304.051 640.981 305.96 641.289 307.846H598.918C598.52 306.458 597.241 305.439 595.729 305.439C593.9 305.439 592.408 306.927 592.408 308.761C592.408 310.595 593.895 312.083 595.729 312.083C597.563 312.083 598.937 310.694 599.037 308.955H641.474C642.844 316.442 645.762 323.554 650.108 329.918C648.326 331.595 647.208 333.974 647.208 336.609C647.208 341.679 651.33 345.801 656.4 345.801C658.907 345.801 661.181 344.792 662.845 343.157C669.26 347.91 676.487 351.151 684.163 352.753V394.451C682.424 394.551 681.036 395.996 681.036 397.758C681.036 399.521 682.523 401.08 684.357 401.08C686.191 401.08 687.679 399.592 687.679 397.758C687.679 396.247 686.66 394.968 685.272 394.57V352.971C687.158 353.321 689.067 353.582 690.996 353.734V425.654C689.427 425.919 688.228 427.284 688.228 428.923C688.228 430.752 689.716 432.245 691.55 432.245C693.384 432.245 694.872 430.757 694.872 428.923C694.872 427.284 693.673 425.919 692.105 425.654V353.814C693.232 353.88 694.36 353.918 695.502 353.918C696.445 353.918 697.397 353.895 698.331 353.847V738.619H698.317ZM597.937 783.696C597.937 784.919 596.947 785.909 595.724 785.909C594.502 785.909 593.512 784.919 593.512 783.696C593.512 782.474 594.502 781.483 595.724 781.483C596.947 781.483 597.937 782.474 597.937 783.696ZM566.772 790.889C566.772 792.112 565.782 793.102 564.56 793.102C563.337 793.102 562.347 792.112 562.347 790.889C562.347 789.667 563.337 788.676 564.56 788.676C565.782 788.676 566.772 789.667 566.772 790.889ZM466.431 790.889C466.431 789.667 467.421 788.676 468.644 788.676C469.866 788.676 470.857 789.667 470.857 790.889C470.857 792.112 469.866 793.102 468.644 793.102C467.421 793.102 466.431 792.112 466.431 790.889ZM435.266 783.696C435.266 782.474 436.256 781.483 437.479 781.483C438.702 781.483 439.692 782.474 439.692 783.696C439.692 784.919 438.702 785.909 437.479 785.909C436.256 785.909 435.266 784.919 435.266 783.696ZM435.266 308.766C435.266 307.543 436.256 306.553 437.479 306.553C438.702 306.553 439.692 307.543 439.692 308.766C439.692 309.988 438.702 310.978 437.479 310.978C436.256 310.978 435.266 309.988 435.266 308.766ZM466.431 301.577C466.431 300.355 467.421 299.364 468.644 299.364C469.866 299.364 470.857 300.355 470.857 301.577C470.857 302.8 469.866 303.79 468.644 303.79C467.421 303.79 466.431 302.8 466.431 301.577ZM566.772 301.577C566.772 302.8 565.782 303.79 564.56 303.79C563.337 303.79 562.347 302.8 562.347 301.577C562.347 300.355 563.337 299.364 564.56 299.364C565.782 299.364 566.772 300.355 566.772 301.577ZM597.937 308.766C597.937 309.988 596.947 310.978 595.724 310.978C594.502 310.978 593.512 309.988 593.512 308.766C593.512 307.543 594.502 306.553 595.724 306.553C596.947 306.553 597.937 307.543 597.937 308.766ZM690.986 352.686C689.053 352.53 687.143 352.265 685.262 351.904V327.25C687.096 327.928 689.01 328.435 690.986 328.767V352.686ZM691.541 426.71C692.763 426.71 693.754 427.701 693.754 428.923C693.754 430.146 692.763 431.136 691.541 431.136C690.318 431.136 689.328 430.146 689.328 428.923C689.328 427.701 690.318 426.71 691.541 426.71ZM698.317 352.795C697.383 352.843 696.436 352.866 695.488 352.866C694.351 352.866 693.218 352.828 692.09 352.762V328.928C693.446 329.103 694.82 329.207 696.222 329.207C696.938 329.207 697.639 329.179 698.312 329.131V352.795H698.317ZM698.317 328.084C697.644 328.132 696.943 328.16 696.227 328.16C679.33 328.16 665.588 314.414 665.588 297.521C665.588 296.957 665.607 296.403 665.64 295.858H692.038C692.796 295.858 693.517 296 694.189 296.247C693.043 296.313 691.896 296.379 690.749 296.45C683.879 296.853 677.008 297.256 670.137 297.659C669.426 297.701 669.426 298.805 670.137 298.767C672.099 298.654 674.065 298.535 676.027 298.422C681.637 298.09 687.252 297.763 692.863 297.431C692.195 297.635 691.522 297.843 690.854 298.047C684.272 300.066 677.69 302.08 671.113 304.098C670.436 304.307 670.725 305.373 671.407 305.164C673.288 304.586 675.169 304.013 677.046 303.435C682.414 301.791 687.783 300.146 693.152 298.497C692.545 298.857 691.943 299.218 691.337 299.578C685.419 303.094 679.505 306.61 673.587 310.126C672.975 310.49 673.53 311.448 674.146 311.083C675.837 310.078 677.529 309.074 679.216 308.069C684.016 305.216 688.816 302.364 693.616 299.511C692.683 300.445 691.744 301.383 690.811 302.317C685.945 307.183 681.078 312.049 676.212 316.916C675.71 317.418 676.491 318.205 676.994 317.698C678.382 316.309 679.775 314.916 681.163 313.528C685.717 308.974 690.271 304.42 694.82 299.872C694.303 300.668 693.791 301.464 693.275 302.255C689.536 308.031 685.793 313.812 682.054 319.588C681.666 320.19 682.623 320.744 683.011 320.147C684.082 318.498 685.149 316.845 686.219 315.196C689.261 310.49 692.308 305.79 695.35 301.085C695.113 301.762 694.877 302.444 694.64 303.122C692.375 309.623 690.105 316.12 687.84 322.621C687.603 323.294 688.674 323.583 688.906 322.915C689.555 321.057 690.2 319.2 690.849 317.342C692.692 312.054 694.54 306.761 696.383 301.473C696.312 302.198 696.241 302.923 696.17 303.648C695.507 310.5 694.839 317.352 694.175 324.199C694.104 324.91 695.213 324.9 695.284 324.199C695.474 322.242 695.663 320.285 695.853 318.328C695.962 317.181 696.075 316.039 696.184 314.892C696.478 311.879 696.772 308.865 697.061 305.851C697.208 304.345 697.355 302.838 697.502 301.331C697.563 300.687 697.625 300.042 697.691 299.398C698.094 300.227 698.326 301.151 698.326 302.136V328.084H698.317Z" fill="white"></path><path d="M425.145 704.886C425.145 704.886 425.145 697.599 429.685 697.376C428.855 697.371 425.827 696.859 425.145 689.842C424.463 696.859 421.435 697.371 420.606 697.376C425.14 697.599 425.145 704.886 425.145 704.886Z" fill="white"></path><path d="M381.276 423.829C381.276 423.829 381.276 418.314 384.712 418.143C384.086 418.143 381.793 417.755 381.276 412.443C380.76 417.755 378.467 418.138 377.841 418.143C381.276 418.314 381.276 423.829 381.276 423.829Z" fill="white"></path><path d="M379.381 687.762C379.381 687.762 379.381 682.246 382.817 682.075C382.191 682.075 379.898 681.687 379.381 676.375C378.865 681.687 376.571 682.071 375.946 682.075C379.381 682.246 379.381 687.762 379.381 687.762Z" fill="white"></path><path d="M632.889 725.195C632.889 725.195 632.889 719.68 636.324 719.509C635.698 719.509 633.405 719.12 632.889 713.809C632.372 719.12 630.079 719.504 629.453 719.509C632.889 719.68 632.889 725.195 632.889 725.195Z" fill="white"></path><path d="M653.828 392.314C653.828 392.314 653.828 386.486 657.457 386.306C656.794 386.301 654.373 385.893 653.828 380.278C653.283 385.893 650.861 386.301 650.198 386.306C653.828 386.486 653.828 392.314 653.828 392.314Z" fill="white"></path><path d="M625.444 419.745C625.444 419.745 625.444 411.121 630.813 410.856C629.832 410.846 626.25 410.245 625.444 401.943C624.639 410.245 621.052 410.846 620.076 410.856C625.444 411.121 625.444 419.745 625.444 419.745Z" fill="white"></path><path d="M499.852 355.737C499.852 355.737 499.852 347.895 504.732 347.658C503.841 347.654 500.581 347.104 499.852 339.556C499.117 347.104 495.862 347.654 494.971 347.658C499.852 347.9 499.852 355.737 499.852 355.737Z" fill="white"></path><path d="M384.878 360.6C384.39 365.618 382.224 365.982 381.632 365.987C384.873 366.148 384.878 371.361 384.878 371.361C384.878 371.361 384.878 366.148 388.124 365.987C387.531 365.987 385.366 365.618 384.878 360.6Z" fill="white"></path><path d="M577.259 739.676C576.771 744.694 574.605 745.059 574.013 745.063C577.254 745.225 577.259 750.437 577.259 750.437C577.259 750.437 577.259 745.225 580.505 745.063C579.913 745.063 577.747 744.694 577.259 739.676Z" fill="white"></path><path d="M613.271 353.492C612.783 358.51 610.618 358.875 610.025 358.879C613.266 359.04 613.271 364.253 613.271 364.253C613.271 364.253 613.271 359.04 616.517 358.879C615.925 358.879 613.759 358.51 613.271 353.492Z" fill="white"></path><path d="M410.939 742.52C410.451 747.538 408.286 747.902 407.693 747.907C410.934 748.068 410.939 753.281 410.939 753.281C410.939 753.281 410.939 748.068 414.185 747.907C413.593 747.907 411.427 747.538 410.939 742.52Z" fill="white"></path><path d="M486.02 770.386C485.56 775.129 483.513 775.471 482.954 775.475C486.02 775.627 486.02 780.55 486.02 780.55C486.02 780.55 486.02 775.627 489.086 775.475C488.527 775.475 486.48 775.129 486.02 770.386Z" fill="white"></path><path d="M548.464 317.792C547.824 317.788 545.483 317.394 544.957 311.974C544.431 317.394 542.09 317.788 541.451 317.792C544.952 317.963 544.957 323.592 544.957 323.592C544.957 323.592 544.957 317.963 548.464 317.792Z" fill="white"></path><path d="M447.966 318.432C447.317 325.09 444.445 325.573 443.658 325.578C447.961 325.791 447.966 332.704 447.966 332.704C447.966 332.704 447.966 325.791 452.273 325.578C451.486 325.573 448.615 325.09 447.966 318.432Z" fill="white"></path><path d="M504.827 730.208C503.624 742.614 498.269 743.509 496.805 743.524C504.822 743.917 504.827 756.801 504.827 756.801C504.827 756.801 504.832 743.922 512.849 743.524C511.385 743.514 506.031 742.614 504.827 730.208Z" fill="white"></path><path d="M639.873 648.707C638.669 661.112 633.315 662.008 631.851 662.022C639.868 662.415 639.873 675.299 639.873 675.299C639.873 675.299 639.878 662.42 647.895 662.022C646.431 662.013 641.077 661.112 639.873 648.707Z" fill="white"></path><path d="M431.926 371.475L429.452 371.527V372.474L431.926 372.531V371.475Z" fill="white"></path><path d="M439.858 371.318L434.944 371.403V372.602L439.858 372.687V371.318Z" fill="white"></path><path d="M442.876 372.74L447.785 372.82V371.186L442.876 371.266V372.74Z" fill="white"></path><path d="M450.804 372.872L455.717 372.939V371.067L450.804 371.128V372.872Z" fill="white"></path><path d="M458.736 372.977L463.645 373.033V370.972L458.736 371.029V372.977Z" fill="white"></path><path d="M466.663 373.062L471.577 373.109V370.896L466.663 370.939V373.062Z" fill="white"></path><path d="M474.595 373.133L479.509 373.175V370.825L474.595 370.873V373.133Z" fill="white"></path><path d="M482.523 373.194L487.437 373.218V370.787L482.523 370.811V373.194Z" fill="white"></path><path d="M490.455 373.237L495.369 373.26V370.744L490.455 370.768V373.237Z" fill="white"></path><path d="M498.383 373.27L503.296 373.279V370.725L498.383 370.73V373.27Z" fill="white"></path><path d="M506.315 373.284L511.228 373.294V370.711L506.315 370.721V373.284Z" fill="white"></path><path d="M519.161 370.702H514.247V373.298H519.161V370.702Z" fill="white"></path><path d="M522.174 373.294L527.088 373.289V370.716L522.174 370.707V373.294Z" fill="white"></path><path d="M530.106 373.279L535.02 373.275V370.73L530.106 370.721V373.279Z" fill="white"></path><path d="M538.034 373.265L542.948 373.237V370.768L538.034 370.74V373.265Z" fill="white"></path><path d="M545.966 373.223L550.88 373.195V370.811L545.966 370.783V373.223Z" fill="white"></path><path d="M553.894 373.18L558.807 373.138V370.868L553.894 370.825V373.18Z" fill="white"></path><path d="M561.826 373.109L566.739 373.067V370.939L561.826 370.896V373.109Z" fill="white"></path><path d="M569.758 373.038L574.667 372.977V371.029L569.758 370.968V373.038Z" fill="white"></path><path d="M577.685 372.939L582.599 372.877V371.128L577.685 371.067V372.939Z" fill="white"></path><path d="M585.617 372.824L590.526 372.739V371.265L585.617 371.18V372.824Z" fill="white"></path><path d="M598.459 371.403L593.545 371.318V372.687L598.459 372.602V371.403Z" fill="white"></path><path d="M603.951 371.526L601.477 371.469V372.531L603.951 372.474V371.526Z" fill="white"></path><path d="M429.452 720.997L431.926 721.054V719.993L429.452 720.05V720.997Z" fill="white"></path><path d="M434.944 721.12L439.858 721.205V719.836L434.944 719.921V721.12Z" fill="white"></path><path d="M442.876 721.257L447.785 721.343V719.703L442.876 719.788V721.257Z" fill="white"></path><path d="M450.804 721.395L455.717 721.457V719.585L450.804 719.651V721.395Z" fill="white"></path><path d="M458.736 721.495L463.645 721.556V719.49L458.736 719.552V721.495Z" fill="white"></path><path d="M466.663 721.584L471.577 721.627V719.419L466.663 719.462V721.584Z" fill="white"></path><path d="M474.595 721.655L479.509 721.698V719.348L474.595 719.39V721.655Z" fill="white"></path><path d="M482.523 721.712L487.437 721.741V719.305L482.523 719.334V721.712Z" fill="white"></path><path d="M490.455 721.755L495.369 721.784V719.263L490.455 719.291V721.755Z" fill="white"></path><path d="M498.383 721.793L503.296 721.802V719.244L498.383 719.253V721.793Z" fill="white"></path><path d="M506.315 721.807L511.228 721.817V719.229L506.315 719.239V721.807Z" fill="white"></path><path d="M519.161 719.225H514.247V721.821H519.161V719.225Z" fill="white"></path><path d="M522.174 721.817L527.088 721.807V719.239L522.174 719.229V721.817Z" fill="white"></path><path d="M530.106 721.802L535.02 721.793V719.253L530.106 719.244V721.802Z" fill="white"></path><path d="M538.034 721.784L542.948 721.755V719.286L538.034 719.263V721.784Z" fill="white"></path><path d="M545.966 721.741L550.88 721.712V719.329L545.966 719.305V721.741Z" fill="white"></path><path d="M553.894 721.698L558.807 721.656V719.386L553.894 719.343V721.698Z" fill="white"></path><path d="M561.826 721.632L566.739 721.584V719.457L561.826 719.414V721.632Z" fill="white"></path><path d="M569.758 721.556L574.667 721.494V719.547L569.758 719.485V721.556Z" fill="white"></path><path d="M577.685 721.461L582.599 721.395V719.647L577.685 719.585V721.461Z" fill="white"></path><path d="M585.617 721.343L590.526 721.257V719.784L585.617 719.703V721.343Z" fill="white"></path><path d="M593.545 721.205L598.459 721.125V719.921L593.545 719.836V721.205Z" fill="white"></path><path d="M601.477 721.054L603.951 720.997V720.05L601.477 719.993V721.054Z" fill="white"></path><path d="M363.796 631.037L363.853 633.511H364.801L364.858 631.037H363.796Z" fill="white"></path><path d="M365.009 623.105H363.645L363.725 628.019H364.929L365.009 623.105Z" fill="white"></path><path d="M365.147 615.178H363.507L363.593 620.092H365.062L365.147 615.178Z" fill="white"></path><path d="M365.265 607.246H363.394L363.455 612.159H365.199L365.265 607.246Z" fill="white"></path><path d="M365.36 599.318H363.294L363.356 604.227H365.298L365.36 599.318Z" fill="white"></path><path d="M365.431 591.386H363.223L363.266 596.3H365.388L365.431 591.386Z" fill="white"></path><path d="M365.502 583.458H363.152L363.195 588.368H365.459L365.502 583.458Z" fill="white"></path><path d="M365.545 575.526H363.109L363.138 580.44H365.516L365.545 575.526Z" fill="white"></path><path d="M365.587 567.594H363.066L363.095 572.508H365.559L365.587 567.594Z" fill="white"></path><path d="M365.606 559.667H363.048L363.057 564.58H365.597L365.606 559.667Z" fill="white"></path><path d="M365.621 551.734H363.033L363.043 556.648H365.611L365.621 551.734Z" fill="white"></path><path d="M365.625 543.807H363.029V548.721H365.625V543.807Z" fill="white"></path><path d="M365.611 535.875H363.043L363.033 540.789H365.621L365.611 535.875Z" fill="white"></path><path d="M365.597 527.947H363.057L363.048 532.856H365.606L365.597 527.947Z" fill="white"></path><path d="M365.564 520.015H363.095L363.066 524.929H365.587L365.564 520.015Z" fill="white"></path><path d="M365.521 512.083H363.138L363.109 516.997H365.545L365.521 512.083Z" fill="white"></path><path d="M365.464 504.156H363.195L363.152 509.07H365.507L365.464 504.156Z" fill="white"></path><path d="M365.393 496.224H363.266L363.218 501.137H365.436L365.393 496.224Z" fill="white"></path><path d="M365.303 488.296H363.351L363.294 493.21H365.365L365.303 488.296Z" fill="white"></path><path d="M365.204 480.364H363.455L363.389 485.278H365.265L365.204 480.364Z" fill="white"></path><path d="M365.066 472.437H363.593L363.507 477.346H365.147L365.066 472.437Z" fill="white"></path><path d="M364.929 464.504H363.725L363.645 469.418H365.014L364.929 464.504Z" fill="white"></path><path d="M364.801 459.012H363.853L363.796 461.486H364.858L364.801 459.012Z" fill="white"></path><path d="M668.602 633.511H669.55L669.607 631.037H668.545L668.602 633.511Z" fill="white"></path><path d="M668.474 628.019H669.678L669.758 623.105H668.394L668.474 628.019Z" fill="white"></path><path d="M668.342 620.092H669.811L669.896 615.178H668.256L668.342 620.092Z" fill="white"></path><path d="M668.204 612.159H669.948L670.009 607.246H668.138L668.204 612.159Z" fill="white"></path><path d="M668.105 604.227H670.047L670.109 599.318H668.043L668.105 604.227Z" fill="white"></path><path d="M668.015 596.3H670.137L670.18 591.386H667.972L668.015 596.3Z" fill="white"></path><path d="M667.944 588.368H670.209L670.251 583.458H667.901L667.944 588.368Z" fill="white"></path><path d="M667.887 580.44H670.265L670.294 575.526H667.858L667.887 580.44Z" fill="white"></path><path d="M667.844 572.508H670.308L670.336 567.594H667.815L667.844 572.508Z" fill="white"></path><path d="M667.806 564.58H670.346L670.355 559.667H667.797L667.806 564.58Z" fill="white"></path><path d="M667.792 556.648H670.36L670.37 551.734H667.782L667.792 556.648Z" fill="white"></path><path d="M670.374 543.807H667.778V548.721H670.374V543.807Z" fill="white"></path><path d="M667.782 540.789H670.37L670.36 535.875H667.792L667.782 540.789Z" fill="white"></path><path d="M667.797 532.856H670.355L670.346 527.947H667.806L667.797 532.856Z" fill="white"></path><path d="M667.815 524.929H670.336L670.308 520.015H667.839L667.815 524.929Z" fill="white"></path><path d="M667.858 516.997H670.294L670.265 512.083H667.882L667.858 516.997Z" fill="white"></path><path d="M667.896 509.07H670.251L670.208 504.156H667.939L667.896 509.07Z" fill="white"></path><path d="M667.967 501.137H670.185L670.138 496.224H668.01L667.967 501.137Z" fill="white"></path><path d="M668.038 493.21H670.109L670.052 488.296H668.1L668.038 493.21Z" fill="white"></path><path d="M668.138 485.278H670.014L669.948 480.364H668.199L668.138 485.278Z" fill="white"></path><path d="M668.256 477.346H669.896L669.811 472.437H668.337L668.256 477.346Z" fill="white"></path><path d="M668.389 469.418H669.758L669.678 464.504H668.474L668.389 469.418Z" fill="white"></path><path d="M669.607 461.486L669.55 459.012H668.602L668.545 461.486H669.607Z" fill="white"></path><path d="M440.194 377.203L440 381.07L441.161 381.122L441.137 377.222L440.194 377.203Z" fill="white"></path><path d="M439.792 383.482L439.228 387.761L440.654 387.95L441.047 383.596L439.792 383.482Z" fill="white"></path><path d="M440.322 390.409L438.801 390.139L437.868 394.342L439.536 394.717L440.322 390.409Z" fill="white"></path><path d="M435.963 400.777L437.773 401.36L438.967 397.138L437.252 396.673L435.963 400.777Z" fill="white"></path><path d="M436.982 403.724L435.148 403.037L433.513 407.013L435.399 407.813L436.982 403.724Z" fill="white"></path><path d="M432.442 414.03L434.399 410.097L432.499 409.188L430.523 413.002L432.442 414.03Z" fill="white"></path><path d="M431.229 416.215L429.334 415.087L427.036 418.712L428.926 419.953L431.229 416.215Z" fill="white"></path><path d="M427.524 422.02L425.661 420.674L423.065 424.09L424.88 425.531L427.524 422.02Z" fill="white"></path><path d="M423.292 427.455L421.534 425.934L418.644 429.104L420.35 430.719L423.292 427.455Z" fill="white"></path><path d="M413.806 433.719L415.36 435.477L418.592 432.501L416.952 430.8L413.806 433.719Z" fill="white"></path><path d="M408.589 437.898L409.963 439.765L413.451 437.088L411.982 435.268L408.589 437.898Z" fill="white"></path><path d="M403.021 441.604L404.201 443.547L407.916 441.196L406.632 439.277L403.021 441.604Z" fill="white"></path><path d="M397.16 444.821L398.117 446.778L402.031 444.778L400.955 442.816L397.16 444.821Z" fill="white"></path><path d="M395.847 447.816L394.985 445.84L391.028 447.513L391.767 449.436L395.847 447.816Z" fill="white"></path><path d="M384.683 449.659L385.209 451.502L389.412 450.256L388.777 448.351L384.683 449.659Z" fill="white"></path><path d="M378.173 451.256L378.49 452.938L382.788 452.094L382.366 450.298L378.173 451.256Z" fill="white"></path><path d="M371.534 452.298L371.676 453.744L376.031 453.308L375.799 451.692L371.534 452.298Z" fill="white"></path><path d="M364.82 452.753L364.829 453.928L369.198 453.881L369.127 452.53L364.82 452.753Z" fill="white"></path><path d="M360.707 453.706L362.361 453.824L362.394 452.786L360.745 452.763L360.707 453.706Z" fill="white"></path><path d="M593.209 377.203L592.266 377.222L592.242 381.122L593.403 381.07L593.209 377.203Z" fill="white"></path><path d="M592.355 383.596L592.749 387.95L594.175 387.761L593.611 383.482L592.355 383.596Z" fill="white"></path><path d="M595.535 394.342L594.602 390.139L593.081 390.409L593.867 394.717L595.535 394.342Z" fill="white"></path><path d="M596.151 396.673L594.436 397.138L595.63 401.36L597.44 400.777L596.151 396.673Z" fill="white"></path><path d="M596.421 403.724L598.004 407.813L599.89 407.013L598.255 403.037L596.421 403.724Z" fill="white"></path><path d="M600.961 414.03L602.88 413.002L600.904 409.188L599.004 410.097L600.961 414.03Z" fill="white"></path><path d="M604.476 419.953L606.367 418.712L604.069 415.087L602.174 416.215L604.476 419.953Z" fill="white"></path><path d="M608.523 425.531L610.338 424.09L607.741 420.674L605.879 422.02L608.523 425.531Z" fill="white"></path><path d="M610.111 427.455L613.053 430.719L614.759 429.104L611.869 425.934L610.111 427.455Z" fill="white"></path><path d="M614.811 432.501L618.043 435.477L619.597 433.719L616.451 430.8L614.811 432.501Z" fill="white"></path><path d="M619.952 437.088L623.44 439.765L624.814 437.898L621.421 435.268L619.952 437.088Z" fill="white"></path><path d="M625.487 441.196L629.202 443.547L630.382 441.604L626.771 439.277L625.487 441.196Z" fill="white"></path><path d="M631.372 444.778L635.286 446.778L636.243 444.821L632.448 442.816L631.372 444.778Z" fill="white"></path><path d="M637.556 447.816L641.635 449.436L642.375 447.513L638.418 445.84L637.556 447.816Z" fill="white"></path><path d="M643.991 450.256L648.194 451.502L648.72 449.659L644.626 448.351L643.991 450.256Z" fill="white"></path><path d="M650.615 452.094L654.913 452.938L655.23 451.256L651.037 450.298L650.615 452.094Z" fill="white"></path><path d="M657.372 453.308L661.726 453.744L661.869 452.298L657.604 451.692L657.372 453.308Z" fill="white"></path><path d="M668.583 452.753L664.276 452.53L664.205 453.881L668.574 453.928L668.583 452.753Z" fill="white"></path><path d="M672.696 453.706L672.658 452.763L671.009 452.786L671.042 453.824L672.696 453.706Z" fill="white"></path><path d="M440.194 715.325L441.137 715.301L441.161 711.406L440 711.454L440.194 715.325Z" fill="white"></path><path d="M441.047 708.933L440.654 704.573L439.228 704.768L439.792 709.042L441.047 708.933Z" fill="white"></path><path d="M440.322 702.114L439.536 697.807L437.868 698.181L438.801 702.389L440.322 702.114Z" fill="white"></path><path d="M437.252 695.855L438.967 695.386L437.773 691.164L435.963 691.751L437.252 695.855Z" fill="white"></path><path d="M436.982 688.804L435.399 684.71L433.513 685.511L435.148 689.486L436.982 688.804Z" fill="white"></path><path d="M432.442 678.493L430.523 679.521L432.499 683.335L434.399 682.426L432.442 678.493Z" fill="white"></path><path d="M428.926 672.574L427.036 673.811L429.334 677.441L431.229 676.313L428.926 672.574Z" fill="white"></path><path d="M424.88 666.998L423.065 668.433L425.661 671.85L427.524 670.504L424.88 666.998Z" fill="white"></path><path d="M420.35 661.809L418.644 663.42L421.534 666.595L423.292 665.069L420.35 661.809Z" fill="white"></path><path d="M413.806 658.809L416.952 661.723L418.592 660.027L415.36 657.046L413.806 658.809Z" fill="white"></path><path d="M408.589 654.63L411.982 657.255L413.451 655.436L409.963 652.763L408.589 654.63Z" fill="white"></path><path d="M403.021 650.92L406.632 653.247L407.916 651.327L404.201 648.982L403.021 650.92Z" fill="white"></path><path d="M397.16 647.707L400.955 649.706L402.031 647.745L398.117 645.745L397.16 647.707Z" fill="white"></path><path d="M391.028 645.011L394.985 646.683L395.847 644.712L391.767 643.087L391.028 645.011Z" fill="white"></path><path d="M384.683 642.864L388.777 644.177L389.412 642.272L385.209 641.021L384.683 642.864Z" fill="white"></path><path d="M378.173 641.268L382.366 642.225L382.788 640.434L378.49 639.585L378.173 641.268Z" fill="white"></path><path d="M371.534 640.23L375.799 640.832L376.031 639.216L371.676 638.78L371.534 640.23Z" fill="white"></path><path d="M364.82 639.77L369.127 639.993L369.198 638.647L364.829 638.6L364.82 639.77Z" fill="white"></path><path d="M360.707 638.818L360.745 639.766L362.394 639.742L362.361 638.704L360.707 638.818Z" fill="white"></path><path d="M592.266 715.301L593.209 715.325L593.403 711.454L592.242 711.406L592.266 715.301Z" fill="white"></path><path d="M593.611 709.042L594.175 704.768L592.749 704.573L592.355 708.933L593.611 709.042Z" fill="white"></path><path d="M595.535 698.181L593.867 697.807L593.081 702.114L594.602 702.389L595.535 698.181Z" fill="white"></path><path d="M597.44 691.751L595.63 691.164L594.436 695.386L596.151 695.855L597.44 691.751Z" fill="white"></path><path d="M596.421 688.804L598.255 689.486L599.89 685.511L598.004 684.71L596.421 688.804Z" fill="white"></path><path d="M600.961 678.493L599.004 682.426L600.904 683.335L602.88 679.521L600.961 678.493Z" fill="white"></path><path d="M602.174 676.313L604.069 677.441L606.367 673.811L604.476 672.574L602.174 676.313Z" fill="white"></path><path d="M605.879 670.504L607.741 671.85L610.338 668.433L608.523 666.998L605.879 670.504Z" fill="white"></path><path d="M610.111 665.069L611.869 666.595L614.759 663.42L613.053 661.809L610.111 665.069Z" fill="white"></path><path d="M614.811 660.027L616.451 661.723L619.597 658.809L618.043 657.046L614.811 660.027Z" fill="white"></path><path d="M619.952 655.436L621.421 657.255L624.814 654.63L623.44 652.763L619.952 655.436Z" fill="white"></path><path d="M625.487 651.327L626.771 653.247L630.382 650.92L629.202 648.982L625.487 651.327Z" fill="white"></path><path d="M631.372 647.745L632.448 649.706L636.243 647.707L635.286 645.745L631.372 647.745Z" fill="white"></path><path d="M637.556 644.712L638.418 646.683L642.375 645.011L641.635 643.087L637.556 644.712Z" fill="white"></path><path d="M643.991 642.272L644.626 644.177L648.72 642.864L648.194 641.021L643.991 642.272Z" fill="white"></path><path d="M650.615 640.434L651.037 642.225L655.23 641.268L654.913 639.585L650.615 640.434Z" fill="white"></path><path d="M657.372 639.216L657.604 640.832L661.869 640.23L661.726 638.78L657.372 639.216Z" fill="white"></path><path d="M664.205 638.647L664.276 639.993L668.583 639.77L668.574 638.6L664.205 638.647Z" fill="white"></path><path d="M671.009 639.742L672.658 639.766L672.696 638.818L671.042 638.704L671.009 639.742Z" fill="white"></path><path d="M426.71 562.495H394.786L394.892 561.438H397.112C398.733 561.438 400.107 560.874 401.234 559.746C402.362 558.619 402.926 557.28 402.926 555.729V501.291C402.926 498.965 402.362 497.309 401.234 496.323C400.177 495.336 398.698 494.843 396.795 494.843H394.046V493.786C395.456 493.645 397.182 493.433 399.226 493.152C401.27 492.87 403.384 492.482 405.568 491.989C407.823 491.425 410.008 490.756 412.122 489.98C414.236 489.135 416.069 488.148 417.619 487.021H418.676V555.835C418.676 557.386 419.24 558.724 420.367 559.852C421.565 560.909 422.939 561.438 424.49 561.438H426.71V562.495ZM465.671 487.021C471.872 487.021 477.157 488.606 481.526 491.777C485.966 494.949 489.349 499.423 491.674 505.202C494.07 510.91 495.268 517.675 495.268 525.498C495.268 533.32 494.07 540.12 491.674 545.899C489.349 551.607 485.966 556.047 481.526 559.218C477.157 562.389 471.872 563.975 465.671 563.975C459.469 563.975 454.149 562.389 449.709 559.218C445.269 556.047 441.851 551.607 439.455 545.899C437.13 540.12 435.967 533.32 435.967 525.498C435.967 517.675 437.13 510.91 439.455 505.202C441.851 499.423 445.269 494.949 449.709 491.777C454.149 488.606 459.469 487.021 465.671 487.021ZM465.671 491.46C461.301 491.46 457.989 494.35 455.734 500.128C453.479 505.836 452.352 514.293 452.352 525.498C452.352 536.702 453.479 545.194 455.734 550.973C457.989 556.681 461.301 559.535 465.671 559.535C469.969 559.535 473.246 556.681 475.501 550.973C477.756 545.194 478.884 536.702 478.884 525.498C478.884 514.293 477.756 505.836 475.501 500.128C473.246 494.35 469.969 491.46 465.671 491.46ZM534.317 487.021C540.519 487.021 545.804 488.606 550.173 491.777C554.613 494.949 557.996 499.423 560.321 505.202C562.717 510.91 563.915 517.675 563.915 525.498C563.915 533.32 562.717 540.12 560.321 545.899C557.996 551.607 554.613 556.047 550.173 559.218C545.804 562.389 540.519 563.975 534.317 563.975C528.116 563.975 522.795 562.389 518.356 559.218C513.916 556.047 510.498 551.607 508.102 545.899C505.777 540.12 504.614 533.32 504.614 525.498C504.614 517.675 505.777 510.91 508.102 505.202C510.498 499.423 513.916 494.949 518.356 491.777C522.795 488.606 528.116 487.021 534.317 487.021ZM534.317 491.46C529.948 491.46 526.636 494.35 524.381 500.128C522.126 505.836 520.998 514.293 520.998 525.498C520.998 536.702 522.126 545.194 524.381 550.973C526.636 556.681 529.948 559.535 534.317 559.535C538.616 559.535 541.893 556.681 544.148 550.973C546.403 545.194 547.531 536.702 547.531 525.498C547.531 514.293 546.403 505.836 544.148 500.128C541.893 494.35 538.616 491.46 534.317 491.46ZM577.268 525.498C577.268 520.001 578.219 514.927 580.122 510.276C582.095 505.625 584.843 501.573 588.367 498.12C591.891 494.596 596.084 491.883 600.946 489.98C605.809 488.007 611.129 487.021 616.908 487.021C619.938 487.021 623.039 487.232 626.21 487.655C629.381 488.078 632.27 488.747 634.878 489.663C637.485 490.579 639.353 491.777 640.48 493.257L635.829 507.21H634.772C635.054 504.039 634.701 501.432 633.715 499.388C632.799 497.345 631.46 495.759 629.698 494.631C627.936 493.433 625.998 492.623 623.884 492.2C621.841 491.707 619.867 491.46 617.965 491.46C614.371 491.46 611.094 492.271 608.134 493.891C605.174 495.512 602.637 497.838 600.523 500.868C598.48 503.828 596.894 507.387 595.766 511.544C594.709 515.702 594.181 520.318 594.181 525.392C594.181 530.466 594.709 535.117 595.766 539.345C596.894 543.503 598.515 547.097 600.629 550.127C602.743 553.087 605.315 555.377 608.345 556.998C611.446 558.619 614.97 559.429 618.916 559.429C624.695 559.429 629.24 558.02 632.552 555.201C635.864 552.382 638.19 548.119 639.529 542.411H640.586L640.48 557.315C639 558.865 636.921 560.134 634.243 561.12C631.566 562.037 628.676 562.706 625.576 563.129C622.475 563.622 619.515 563.869 616.696 563.869C610.988 563.869 605.738 562.917 600.946 561.015C596.154 559.042 591.996 556.328 588.473 552.875C584.949 549.422 582.201 545.37 580.228 540.719C578.254 536.068 577.268 530.994 577.268 525.498ZM567.437 517.464H632.341L630.755 521.904H565.852L567.437 517.464ZM567.543 529.303H628.218L626.844 533.743H565.852L567.543 529.303Z" fill="#D1E1FF"></path><path d="M410.558 603.527C409.858 603.527 409.027 603.494 408.064 603.429C407.714 603.407 407.276 603.385 406.751 603.363C406.248 603.341 405.679 603.33 405.045 603.33L402.616 603.363C402.178 603.385 401.587 603.396 400.844 603.396C400.8 603.396 400.778 603.33 400.778 603.199C400.778 603.068 400.8 603.002 400.844 603.002C401.544 603.002 402.058 602.947 402.386 602.838C402.714 602.729 402.933 602.521 403.042 602.214C403.174 601.886 403.239 601.394 403.239 600.738V585.542C403.239 584.885 403.174 584.404 403.042 584.098C402.933 583.791 402.714 583.583 402.386 583.474C402.08 583.343 401.587 583.277 400.909 583.277C400.844 583.277 400.811 583.211 400.811 583.08C400.811 582.949 400.844 582.883 400.909 582.883L402.649 582.916C403.655 582.96 404.454 582.982 405.045 582.982C405.942 582.982 406.861 582.949 407.801 582.883C408.939 582.839 409.705 582.818 410.099 582.818C412.309 582.818 414.267 583.255 415.974 584.13C417.702 585.006 419.037 586.198 419.978 587.708C420.919 589.218 421.389 590.913 421.389 592.795C421.389 594.917 420.897 596.799 419.912 598.44C418.949 600.059 417.637 601.317 415.974 602.214C414.333 603.09 412.528 603.527 410.558 603.527ZM410.23 602.772C411.63 602.772 412.867 602.422 413.939 601.722C415.011 601 415.842 599.939 416.433 598.539C417.046 597.138 417.352 595.464 417.352 593.517C417.352 591.657 417.068 589.972 416.499 588.463C415.93 586.931 415.12 585.728 414.07 584.852C413.02 583.977 411.806 583.54 410.427 583.54C409.071 583.54 408.141 583.671 407.637 583.933C407.134 584.196 406.882 584.754 406.882 585.607V600.377C406.882 601.252 407.112 601.875 407.572 602.247C408.031 602.597 408.917 602.772 410.23 602.772ZM439.968 600.738C439.968 601.416 440.023 601.908 440.132 602.214C440.242 602.521 440.449 602.729 440.756 602.838C441.084 602.947 441.598 603.002 442.298 603.002C442.364 603.002 442.397 603.068 442.397 603.199C442.397 603.33 442.364 603.396 442.298 603.396C441.576 603.396 441.007 603.385 440.592 603.363L438.097 603.33L435.669 603.363C435.231 603.385 434.64 603.396 433.896 603.396C433.852 603.396 433.831 603.33 433.831 603.199C433.831 603.068 433.852 603.002 433.896 603.002C434.596 603.002 435.111 602.947 435.439 602.838C435.767 602.729 435.986 602.521 436.095 602.214C436.227 601.886 436.292 601.394 436.292 600.738V585.542C436.292 584.885 436.227 584.404 436.095 584.098C435.986 583.791 435.767 583.583 435.439 583.474C435.111 583.343 434.596 583.277 433.896 583.277C433.852 583.277 433.831 583.211 433.831 583.08C433.831 582.949 433.852 582.883 433.896 582.883L435.669 582.916C436.675 582.96 437.485 582.982 438.097 582.982C438.776 582.982 439.618 582.96 440.624 582.916L442.298 582.883C442.364 582.883 442.397 582.949 442.397 583.08C442.397 583.211 442.364 583.277 442.298 583.277C441.62 583.277 441.117 583.343 440.789 583.474C440.46 583.605 440.242 583.835 440.132 584.163C440.023 584.47 439.968 584.951 439.968 585.607V600.738ZM458.964 586.198C458.964 586.986 459.161 587.686 459.555 588.299C459.971 588.911 460.474 589.447 461.065 589.907C461.656 590.366 462.454 590.924 463.461 591.581C464.555 592.281 465.43 592.893 466.086 593.419C466.743 593.944 467.301 594.589 467.76 595.355C468.22 596.099 468.45 596.963 468.45 597.948C468.45 599.086 468.143 600.103 467.531 601C466.918 601.875 466.065 602.565 464.971 603.068C463.898 603.549 462.695 603.79 461.36 603.79C460.398 603.79 459.369 603.659 458.275 603.396C457.203 603.112 456.481 602.805 456.109 602.477C456 602.39 455.912 602.313 455.846 602.247C455.803 602.16 455.781 602.028 455.781 601.853L455.682 596.635V596.602C455.682 596.515 455.737 596.471 455.846 596.471C455.956 596.449 456.022 596.482 456.043 596.569C456.7 597.904 457.269 598.987 457.75 599.819C458.253 600.65 458.877 601.383 459.621 602.018C460.387 602.652 461.251 602.969 462.214 602.969C463.089 602.969 463.811 602.74 464.38 602.28C464.949 601.799 465.233 600.989 465.233 599.851C465.233 598.889 465.014 598.046 464.577 597.324C464.161 596.602 463.647 595.99 463.034 595.486C462.421 594.983 461.579 594.381 460.507 593.681C459.457 593.003 458.636 592.423 458.045 591.942C457.477 591.46 456.984 590.88 456.569 590.202C456.153 589.524 455.945 588.725 455.945 587.806C455.945 586.647 456.273 585.673 456.93 584.885C457.608 584.076 458.472 583.485 459.522 583.113C460.573 582.719 461.678 582.522 462.837 582.522C463.603 582.522 464.38 582.599 465.167 582.752C465.955 582.883 466.59 583.047 467.071 583.244C467.268 583.332 467.399 583.43 467.465 583.54C467.531 583.627 467.563 583.747 467.563 583.901V588.725C467.563 588.791 467.509 588.846 467.399 588.889C467.29 588.911 467.224 588.889 467.202 588.824L466.94 588.2C466.393 586.822 465.747 585.651 465.003 584.688C464.281 583.726 463.264 583.244 461.951 583.244C461.076 583.244 460.354 583.496 459.785 583.999C459.238 584.502 458.964 585.235 458.964 586.198ZM493.677 582.522C494.705 582.522 495.745 582.61 496.795 582.785C497.867 582.938 498.72 583.146 499.355 583.408C499.552 583.474 499.672 583.562 499.716 583.671C499.781 583.758 499.825 583.923 499.847 584.163L500.274 588.725C500.274 588.791 500.219 588.835 500.11 588.857C500 588.878 499.924 588.846 499.88 588.758C499.267 586.964 498.392 585.596 497.254 584.656C496.117 583.693 494.749 583.211 493.152 583.211C491.664 583.211 490.329 583.616 489.148 584.426C487.988 585.213 487.069 586.351 486.391 587.839C485.734 589.327 485.406 591.066 485.406 593.058C485.406 595.071 485.745 596.843 486.424 598.374C487.124 599.884 488.076 601.055 489.279 601.886C490.504 602.696 491.905 603.101 493.48 603.101C494.99 603.101 496.259 602.696 497.287 601.886C498.316 601.055 499.289 599.698 500.208 597.817C500.23 597.751 500.296 597.729 500.405 597.751C500.514 597.773 500.569 597.817 500.569 597.882L500.077 601.952C500.033 602.214 499.989 602.39 499.946 602.477C499.902 602.543 499.781 602.619 499.585 602.707C497.572 603.429 495.537 603.79 493.48 603.79C491.139 603.79 489.038 603.352 487.178 602.477C485.34 601.58 483.896 600.333 482.846 598.735C481.796 597.138 481.271 595.322 481.271 593.287C481.271 591.209 481.807 589.36 482.879 587.741C483.973 586.1 485.461 584.82 487.343 583.901C489.246 582.982 491.358 582.522 493.677 582.522ZM523.532 603.79C521.498 603.79 519.682 603.319 518.084 602.379C516.509 601.416 515.284 600.125 514.408 598.506C513.555 596.865 513.128 595.081 513.128 593.156C513.128 590.902 513.697 588.977 514.835 587.38C515.973 585.76 517.428 584.546 519.2 583.737C520.994 582.927 522.821 582.522 524.681 582.522C526.76 582.522 528.587 583.015 530.162 583.999C531.738 584.962 532.941 586.242 533.772 587.839C534.626 589.436 535.052 591.132 535.052 592.926C535.052 594.917 534.527 596.744 533.477 598.407C532.427 600.07 531.016 601.383 529.243 602.346C527.493 603.308 525.589 603.79 523.532 603.79ZM524.616 602.969C525.841 602.969 526.935 602.619 527.898 601.919C528.882 601.197 529.648 600.158 530.195 598.801C530.742 597.423 531.016 595.782 531.016 593.878C531.016 591.865 530.709 590.071 530.097 588.496C529.484 586.898 528.598 585.651 527.438 584.754C526.278 583.857 524.922 583.408 523.368 583.408C521.377 583.408 519.846 584.163 518.773 585.673C517.701 587.161 517.165 589.25 517.165 591.942C517.165 594.064 517.483 595.968 518.117 597.652C518.773 599.315 519.66 600.617 520.776 601.558C521.913 602.499 523.193 602.969 524.616 602.969ZM564.907 587.084C564.907 585.903 564.633 584.973 564.086 584.295C563.561 583.616 562.817 583.277 561.854 583.277C561.811 583.277 561.789 583.211 561.789 583.08C561.789 582.949 561.811 582.883 561.854 582.883L563.43 582.916C564.261 582.96 564.929 582.982 565.432 582.982C565.848 582.982 566.449 582.96 567.237 582.916L568.747 582.883C568.79 582.883 568.812 582.949 568.812 583.08C568.812 583.211 568.79 583.277 568.747 583.277C567.893 583.277 567.226 583.616 566.745 584.295C566.263 584.973 566.023 585.903 566.023 587.084V596.208C566.023 597.74 565.683 599.086 565.005 600.245C564.327 601.405 563.364 602.302 562.117 602.937C560.892 603.549 559.469 603.855 557.85 603.855C556.231 603.855 554.798 603.549 553.551 602.937C552.304 602.324 551.319 601.438 550.597 600.278C549.897 599.097 549.547 597.718 549.547 596.143V585.542C549.547 584.885 549.481 584.404 549.35 584.098C549.24 583.791 549.022 583.583 548.693 583.474C548.387 583.343 547.895 583.277 547.216 583.277C547.151 583.277 547.118 583.211 547.118 583.08C547.118 582.949 547.151 582.883 547.216 582.883L548.956 582.916C549.962 582.96 550.761 582.982 551.352 582.982C552.008 582.982 552.84 582.96 553.846 582.916L555.52 582.883C555.586 582.883 555.619 582.949 555.619 583.08C555.619 583.211 555.586 583.277 555.52 583.277C554.842 583.277 554.339 583.343 554.01 583.474C553.704 583.605 553.485 583.835 553.354 584.163C553.245 584.47 553.19 584.951 553.19 585.607V594.994C553.19 597.598 553.704 599.523 554.732 600.77C555.761 602.018 557.216 602.641 559.097 602.641C560.914 602.641 562.336 602.094 563.364 601C564.393 599.884 564.907 598.298 564.907 596.241V587.084ZM582.929 583.638L583.914 583.704V599.228C583.914 600.387 584.155 601.306 584.636 601.985C585.117 602.663 585.785 603.002 586.638 603.002C586.682 603.002 586.704 603.068 586.704 603.199C586.704 603.33 586.682 603.396 586.638 603.396C586.025 603.396 585.555 603.385 585.227 603.363L583.454 603.33L581.42 603.363C581.048 603.385 580.511 603.396 579.811 603.396C579.746 603.396 579.713 603.33 579.713 603.199C579.713 603.068 579.746 603.002 579.811 603.002C580.774 603.002 581.529 602.663 582.076 601.985C582.645 601.306 582.929 600.387 582.929 599.228V583.638ZM599.668 603.888C599.668 603.954 599.613 603.998 599.504 604.02C599.416 604.041 599.35 604.031 599.307 603.987L583.126 585.574C582.36 584.699 581.704 584.098 581.157 583.769C580.61 583.441 580.052 583.277 579.483 583.277C579.439 583.277 579.417 583.211 579.417 583.08C579.417 582.949 579.439 582.883 579.483 582.883L580.862 582.916C581.146 582.938 581.562 582.949 582.109 582.949L584.603 582.916C584.909 582.894 585.281 582.883 585.719 582.883C585.894 582.883 586.025 582.927 586.113 583.015C586.2 583.102 586.354 583.288 586.572 583.572C586.944 584.076 587.207 584.415 587.36 584.59L599.405 598.473L599.668 603.888ZM599.668 603.888L598.716 602.904V587.084C598.716 585.903 598.475 584.973 597.994 584.295C597.512 583.616 596.845 583.277 595.992 583.277C595.948 583.277 595.926 583.211 595.926 583.08C595.926 582.949 595.948 582.883 595.992 582.883L597.403 582.916C598.103 582.96 598.694 582.982 599.175 582.982C599.613 582.982 600.226 582.96 601.013 582.916L602.49 582.883C602.534 582.883 602.556 582.949 602.556 583.08C602.556 583.211 602.534 583.277 602.49 583.277C601.615 583.277 600.926 583.627 600.423 584.327C599.919 585.006 599.668 585.925 599.668 587.084V603.888ZM619.7 583.638C617.096 583.638 615.225 585.334 614.087 588.725C614.065 588.791 614 588.824 613.89 588.824C613.781 588.802 613.726 588.758 613.726 588.692C613.814 587.817 613.912 586.69 614.022 585.312C614.131 583.912 614.186 582.861 614.186 582.161C614.186 582.052 614.241 581.997 614.35 581.997C614.481 581.997 614.547 582.052 614.547 582.161C614.547 582.643 615.17 582.883 616.418 582.883C618.299 582.949 620.498 582.982 623.015 582.982C624.305 582.982 625.673 582.96 627.117 582.916L629.349 582.883C630.18 582.883 630.782 582.829 631.154 582.719C631.548 582.61 631.799 582.391 631.909 582.063C631.931 581.975 631.996 581.931 632.106 581.931C632.237 581.931 632.303 581.975 632.303 582.063C632.237 582.719 632.16 583.769 632.073 585.213C632.007 586.658 631.974 587.817 631.974 588.692C631.974 588.758 631.92 588.791 631.81 588.791C631.701 588.791 631.635 588.758 631.613 588.692C631.285 587.008 630.673 585.75 629.776 584.918C628.878 584.065 627.773 583.638 626.461 583.638C625.826 583.638 625.399 583.78 625.181 584.065C624.984 584.327 624.885 584.842 624.885 585.607V600.738C624.885 601.416 624.951 601.908 625.082 602.214C625.213 602.521 625.465 602.729 625.837 602.838C626.209 602.947 626.8 603.002 627.609 603.002C627.675 603.002 627.708 603.068 627.708 603.199C627.708 603.33 627.675 603.396 627.609 603.396C626.822 603.396 626.198 603.385 625.739 603.363L623.015 603.33L620.356 603.363C619.897 603.385 619.262 603.396 618.452 603.396C618.387 603.396 618.354 603.33 618.354 603.199C618.354 603.068 618.387 603.002 618.452 603.002C619.24 603.002 619.82 602.947 620.192 602.838C620.586 602.729 620.848 602.521 620.98 602.214C621.133 601.886 621.209 601.394 621.209 600.738V585.542C621.209 584.798 621.111 584.295 620.914 584.032C620.717 583.769 620.312 583.638 619.7 583.638Z" fill="white" fill-opacity="0.9"></path><path d="M478.114 418.683C478.114 417.461 479.104 416.47 480.326 416.47C481.549 416.47 482.539 417.461 482.539 418.683C482.539 419.906 481.549 420.896 480.326 420.896C479.104 420.896 478.114 419.906 478.114 418.683Z" fill="white"></path><path d="M480 417L480 373" stroke="white"></path><path d="M512.757 440.683C512.757 439.461 513.747 438.47 514.97 438.47C516.192 438.47 517.183 439.461 517.183 440.683C517.183 441.906 516.192 442.896 514.97 442.896C513.747 442.896 512.757 441.906 512.757 440.683Z" fill="white"></path><path d="M515.143 439V373" stroke="white"></path><path d="M547.4 418.683C547.4 417.461 548.39 416.47 549.613 416.47C550.836 416.47 551.826 417.461 551.826 418.683C551.826 419.906 550.836 420.896 549.613 420.896C548.39 420.896 547.4 419.906 547.4 418.683Z" fill="white"></path><path d="M549.287 417L549.287 373" stroke="white"></path><path d="M478.114 674.317C478.114 675.539 479.104 676.53 480.326 676.53C481.549 676.53 482.539 675.539 482.539 674.317C482.539 673.094 481.549 672.104 480.326 672.104C479.104 672.104 478.114 673.094 478.114 674.317Z" fill="white"></path><path d="M480 676L480 720" stroke="white"></path><path d="M512.757 652.317C512.757 653.539 513.747 654.53 514.97 654.53C516.192 654.53 517.183 653.539 517.183 652.317C517.183 651.094 516.192 650.104 514.97 650.104C513.747 650.104 512.757 651.094 512.757 652.317Z" fill="white"></path><path d="M515.143 654V720" stroke="white"></path><path d="M547.4 674.317C547.4 675.539 548.39 676.53 549.613 676.53C550.836 676.53 551.826 675.539 551.826 674.317C551.826 673.094 550.836 672.104 549.613 672.104C548.39 672.104 547.4 673.094 547.4 674.317Z" fill="white"></path><path d="M549.287 676L549.287 720" stroke="white"></path></g><defs><filter id="filter0_f_388_2046" x="0.29007" y="0.547638" width="1041.39" height="1040.11" filterUnits="userSpaceOnUse" color-interpolation-filters="sRGB"><feGaussianBlur stdDeviation="147.306"></feGaussianBlur></filter><linearGradient id="paint0_linear_388_2046" x1="516.701" y1="271" x2="516.701" y2="823.418" gradientUnits="userSpaceOnUse"><stop stop-color="#00215F"></stop><stop offset="1" stop-color="#001336"></stop></linearGradient><clipPath id="clip0_388_2046"><rect width="409.402" height="552.418" fill="white" transform="translate(312 271)"></rect></clipPath></defs></svg>