<svg xmlns="http://www.w3.org/2000/svg" width="68" height="17" viewBox="0 0 68 17" fill="none"><rect x="0.197183" y="0.415506" width="66.8028" height="16.169" rx="8.08451" fill="url(#paint0_linear_388_2282)" fill-opacity="0.2"></rect><rect x="0.197183" y="0.415506" width="66.8028" height="16.169" rx="8.08451" stroke="url(#paint1_linear_388_2282)" stroke-width="0.394366"></rect><path d="M8.8437 12.5V6.17042C8.64258 6.31634 8.45328 6.4307 8.27582 6.51352C8.10229 6.59634 7.92286 6.65944 7.73751 6.70282L7.5837 5.50789C7.76906 5.46056 7.96821 5.36986 8.18117 5.23577C8.39807 5.10169 8.59722 4.94591 8.77863 4.76845C8.96004 4.59098 9.0961 4.4076 9.1868 4.21831H10.2043V12.5H8.8437ZM15.4397 12.6656C14.7298 12.6656 14.1146 12.4823 13.594 12.1155C13.0735 11.7448 12.6692 11.2321 12.3814 10.5775C12.0935 9.91887 11.9495 9.15577 11.9495 8.28817C11.9495 7.44817 12.0954 6.7107 12.3873 6.07577C12.683 5.4369 13.0912 4.94 13.6118 4.58507C14.1363 4.23014 14.7456 4.05267 15.4397 4.05267C16.1416 4.05267 16.7529 4.23211 17.2735 4.59099C17.798 4.94591 18.2042 5.44084 18.4921 6.07577C18.7839 6.7107 18.9298 7.44817 18.9298 8.28817C18.9298 9.15577 18.7878 9.91887 18.5039 10.5775C18.2199 11.2321 17.8157 11.7448 17.2912 12.1155C16.7706 12.4823 16.1535 12.6656 15.4397 12.6656ZM15.4397 11.4293C15.8577 11.4293 16.2225 11.3169 16.534 11.0921C16.8495 10.8673 17.094 10.5223 17.2676 10.0569C17.445 9.59155 17.5337 9.00197 17.5337 8.28817C17.5337 7.2707 17.3366 6.51352 16.9422 6.01662C16.5518 5.51972 16.0509 5.27127 15.4397 5.27127C14.8442 5.27127 14.3453 5.51972 13.943 6.01662C13.5447 6.50958 13.3456 7.26676 13.3456 8.28817C13.3456 8.99803 13.4343 9.58563 13.6118 10.051C13.7892 10.5163 14.0337 10.8634 14.3453 11.0921C14.6608 11.3169 15.0256 11.4293 15.4397 11.4293ZM23.7583 12.6656C23.0485 12.6656 22.4333 12.4823 21.9127 12.1155C21.3921 11.7448 20.9879 11.2321 20.7 10.5775C20.4121 9.91887 20.2682 9.15577 20.2682 8.28817C20.2682 7.44817 20.4141 6.7107 20.7059 6.07577C21.0017 5.4369 21.4099 4.94 21.9304 4.58507C22.4549 4.23014 23.0642 4.05267 23.7583 4.05267C24.4603 4.05267 25.0716 4.23211 25.5921 4.59099C26.1166 4.94591 26.5228 5.44084 26.8107 6.07577C27.1026 6.7107 27.2485 7.44817 27.2485 8.28817C27.2485 9.15577 27.1065 9.91887 26.8226 10.5775C26.5386 11.2321 26.1344 11.7448 25.6099 12.1155C25.0893 12.4823 24.4721 12.6656 23.7583 12.6656ZM23.7583 11.4293C24.1764 11.4293 24.5411 11.3169 24.8527 11.0921C25.1682 10.8673 25.4127 10.5223 25.5862 10.0569C25.7637 9.59155 25.8524 9.00197 25.8524 8.28817C25.8524 7.2707 25.6552 6.51352 25.2609 6.01662C24.8704 5.51972 24.3696 5.27127 23.7583 5.27127C23.1628 5.27127 22.664 5.51972 22.2617 6.01662C21.8634 6.50958 21.6642 7.26676 21.6642 8.28817C21.6642 8.99803 21.753 9.58563 21.9304 10.051C22.1079 10.5163 22.3524 10.8634 22.664 11.0921C22.9795 11.3169 23.3442 11.4293 23.7583 11.4293ZM32.9761 12.6656C32.148 12.6656 31.4164 12.4882 30.7815 12.1332C30.1466 11.7783 29.6497 11.2794 29.2908 10.6366C28.9319 9.98986 28.7525 9.2307 28.7525 8.35915C28.7525 7.4876 28.9359 6.73042 29.3026 6.0876C29.6733 5.44084 30.1801 4.94 30.8229 4.58507C31.4657 4.23014 32.1992 4.05267 33.0235 4.05267C33.4533 4.05267 33.8536 4.1 34.2243 4.19465C34.595 4.28535 34.9164 4.39972 35.1885 4.53775L35.0407 5.83324C34.7449 5.69521 34.4314 5.58084 34.1001 5.49014C33.7688 5.39549 33.406 5.34817 33.0116 5.34817C32.4043 5.34817 31.8956 5.48028 31.4854 5.74451C31.0792 6.00479 30.7716 6.36366 30.5626 6.82113C30.3576 7.27465 30.255 7.78732 30.255 8.35915C30.255 8.93099 30.3576 9.44563 30.5626 9.9031C30.7677 10.3566 31.0714 10.7155 31.4736 10.9797C31.8798 11.24 32.3826 11.3701 32.9821 11.3701C33.3843 11.3701 33.7491 11.3268 34.0764 11.24C34.4037 11.1532 34.7252 11.0349 35.0407 10.8851L35.1885 12.1865C34.8849 12.3285 34.5457 12.4428 34.1711 12.5296C33.8004 12.6203 33.4021 12.6656 32.9761 12.6656ZM27.8297 9.78479V8.80282H33.7866V9.78479H27.8297ZM27.8297 7.85042V6.86845H33.7866V7.85042H27.8297ZM42.7322 12.6656C41.9434 12.6656 41.2415 12.4882 40.6263 12.1332C40.0111 11.7783 39.528 11.2794 39.177 10.6366C38.826 9.98986 38.6505 9.2307 38.6505 8.35915C38.6505 7.4876 38.826 6.73042 39.177 6.0876C39.528 5.44084 40.0111 4.94 40.6263 4.58507C41.2415 4.23014 41.9434 4.05267 42.7322 4.05267C43.5209 4.05267 44.2229 4.23014 44.8381 4.58507C45.4533 4.94 45.9364 5.44084 46.2874 6.0876C46.6384 6.73042 46.8139 7.4876 46.8139 8.35915C46.8139 9.2307 46.6384 9.98986 46.2874 10.6366C45.9364 11.2794 45.4533 11.7783 44.8381 12.1332C44.2229 12.4882 43.5209 12.6656 42.7322 12.6656ZM42.7322 11.3346C43.3119 11.3346 43.797 11.2065 44.1874 10.9501C44.5778 10.6899 44.8716 10.3349 45.0688 9.88535C45.266 9.43577 45.3646 8.92704 45.3646 8.35915C45.3646 7.79127 45.266 7.28253 45.0688 6.83296C44.8716 6.38338 44.5778 6.03042 44.1874 5.77408C43.797 5.5138 43.3119 5.38366 42.7322 5.38366C42.1485 5.38366 41.6615 5.5138 41.2711 5.77408C40.8806 6.03042 40.5868 6.38338 40.3896 6.83296C40.1925 7.28253 40.0939 7.79127 40.0939 8.35915C40.0939 8.92704 40.1925 9.43577 40.3896 9.88535C40.5868 10.3349 40.8806 10.6899 41.2711 10.9501C41.6615 11.2065 42.1485 11.3346 42.7322 11.3346ZM48.1706 12.5V4.21831H53.252V5.51972H49.5429V7.52507H52.406V8.82648H49.5429V12.5H48.1706ZM54.3749 12.5V4.21831H59.4563V5.51972H55.7473V7.52507H58.6104V8.82648H55.7473V12.5H54.3749Z" fill="url(#paint2_linear_388_2282)"></path><defs><linearGradient id="paint0_linear_388_2282" x1="36" y1="8.5" x2="77.2167" y2="85.0223" gradientUnits="userSpaceOnUse"><stop stop-color="#8C421D"></stop><stop offset="0.325272" stop-color="#FBE67B"></stop><stop offset="0.535488" stop-color="#FCFBE7"></stop><stop offset="0.769917" stop-color="#F7D14E"></stop><stop offset="1" stop-color="#D4A041"></stop></linearGradient><linearGradient id="paint1_linear_388_2282" x1="8.95962" y1="3.11691" x2="14.3242" y2="25.1384" gradientUnits="userSpaceOnUse"><stop stop-color="#8C421D"></stop><stop offset="0.325272" stop-color="#FBE67B"></stop><stop offset="0.535488" stop-color="#FCFBE7"></stop><stop offset="0.769917" stop-color="#F7D14E"></stop><stop offset="1" stop-color="#D4A041"></stop></linearGradient><linearGradient id="paint2_linear_388_2282" x1="9.50003" y1="3" x2="16.6693" y2="25.6226" gradientUnits="userSpaceOnUse"><stop stop-color="#8C421D"></stop><stop offset="0.325272" stop-color="#FBE67B"></stop><stop offset="0.535488" stop-color="#FCFBE7"></stop><stop offset="0.769917" stop-color="#F7D14E"></stop><stop offset="1" stop-color="#D4A041"></stop></linearGradient></defs></svg>