<svg xmlns="http://www.w3.org/2000/svg" width="324" height="128" viewBox="0 0 324 128" fill="none"><path d="M35.2663 0.388758C43.1952 0.27863 49.9677 1.3248 55.584 3.52726C61.3104 5.72971 65.7153 8.86822 68.7988 12.9428C71.8822 16.9072 73.4239 21.6975 73.4239 27.3138C73.4239 31.7187 72.5429 35.6281 70.781 39.0419C69.019 42.4557 66.6514 45.3189 63.678 47.6315C60.8148 49.8339 57.6763 51.3757 54.2625 52.2566C50.8487 53.0275 47.6001 52.9724 44.5167 52.0915C47.9305 52.0915 51.5095 52.6971 55.2536 53.9085C59.1079 55.0097 62.742 56.8267 66.1558 59.3596C69.5696 61.7823 72.3227 65.0309 74.415 69.1054C76.5074 73.18 77.5535 78.1355 77.5535 83.972C77.5535 90.6895 76.0669 96.7463 73.0936 102.142C70.1202 107.538 66.0457 112.108 60.8699 115.853C55.6941 119.597 49.8026 122.405 43.1952 124.277C36.5878 126.259 29.6501 127.195 22.382 127.085C15.1138 126.975 7.95586 125.709 0.907997 123.286L1.23837 121.634C7.95586 121.744 14.2879 120.863 20.2346 118.991C26.2913 117.229 31.6323 114.641 36.2574 111.227C40.8826 107.704 44.5167 103.464 47.1596 98.5082C49.8026 93.5527 51.124 88.1016 51.124 82.155C51.124 75.5476 49.5823 70.2617 46.4989 66.2973C43.5256 62.2228 39.6162 59.2494 34.7708 57.3774C29.9254 55.5053 24.7496 54.5692 19.2435 54.5692L19.5738 52.9174C24.6395 53.0275 29.3748 51.9263 33.7797 49.6137C38.2947 47.191 41.8737 43.8322 44.5167 39.5374C47.2697 35.2427 48.371 30.2871 47.8203 24.6709C47.6001 20.9267 46.609 17.7331 44.847 15.0902C43.0851 12.4472 40.7174 10.465 37.7441 9.14352C34.8809 7.71192 31.5222 7.10625 27.6679 7.3265C20.9504 7.65686 15.9948 10.2448 12.8013 15.0902C9.71783 19.8254 8.28623 26.6531 8.50648 35.573H6.85463L0.0820751 12.1168C3.71613 8.81316 8.45141 6.06009 14.2879 3.85762C20.2346 1.65517 27.2274 0.498879 35.2663 0.388758ZM101.584 124.277L100.923 123.121C111.165 120.037 119.369 116.183 125.536 111.558C131.813 106.823 136.548 101.427 139.742 95.3697C143.045 89.2029 145.248 82.4303 146.349 75.0521C147.45 67.5637 148.001 59.4146 148.001 50.6048C148.001 41.5747 147.505 33.9212 146.514 27.6442C145.523 21.257 143.761 16.4667 141.228 13.2731C138.695 10.0796 135.061 8.48278 130.326 8.48278C125.811 8.48278 122.232 9.85932 119.589 12.6124C117.056 15.3655 115.239 18.9995 114.138 23.5146C113.147 27.9195 112.651 32.7098 112.651 37.8856C112.761 43.8322 113.367 48.7327 114.468 52.587C115.57 56.3312 117.111 59.1944 119.094 61.1766C121.186 63.0487 123.664 64.1499 126.527 64.4803C129.39 65.0309 132.088 64.8657 134.621 63.9847C137.264 62.9936 139.411 61.6721 141.063 60.0203L142.219 61.3418C140.127 64.8657 137.374 67.7289 133.96 69.9314C130.546 72.0237 126.747 73.4002 122.562 74.061C118.378 74.7217 114.193 74.5565 110.008 73.5654C105.934 72.5743 102.135 70.7022 98.6107 67.9491C95.0867 65.1961 92.2786 61.507 90.1863 56.8818C88.204 52.2566 87.2129 46.6404 87.2129 40.033C87.3231 32.4345 88.9749 25.717 92.1685 19.8805C95.4722 13.9339 100.262 9.25365 106.54 5.83984C112.927 2.42603 120.745 0.664061 129.996 0.55394C144.422 0.33369 155.599 4.51836 163.528 13.1079C171.457 21.6975 175.421 34.7471 175.421 52.2566C175.421 62.7183 173.88 72.4642 170.796 81.4943C167.823 90.4142 163.253 98.2329 157.086 104.95C151.029 111.558 143.376 116.568 134.125 119.982C124.985 123.506 114.138 124.938 101.584 124.277ZM224.957 60.1855C224.957 51.5959 226.444 43.667 229.417 36.3989C232.501 29.1308 236.796 22.7988 242.302 17.4027C247.808 11.8966 254.36 7.65686 261.959 4.68354C269.557 1.6001 277.871 0.0583835 286.901 0.0583835C291.637 0.0583835 296.482 0.388754 301.438 1.0495C306.393 1.71023 310.908 2.7564 314.983 4.188C319.057 5.61959 321.976 7.49168 323.738 9.80426L316.469 31.6086H314.818C315.258 26.6531 314.707 22.5785 313.166 19.385C311.734 16.1914 309.642 13.7136 306.889 11.9517C304.136 10.0796 301.107 8.81315 297.804 8.15242C294.61 7.38156 291.527 6.99612 288.553 6.99612C282.937 6.99612 277.816 8.26254 273.191 10.7954C268.566 13.3282 264.602 16.9622 261.298 21.6975C258.104 26.3227 255.627 31.8839 253.865 38.3812C252.213 44.8784 251.387 52.0915 251.387 60.0203C251.387 67.9491 252.213 75.2173 253.865 81.8246C255.627 88.3219 258.159 93.9381 261.463 98.6734C264.767 103.299 268.786 106.878 273.522 109.41C278.367 111.943 283.873 113.21 290.04 113.21C299.07 113.21 306.173 111.007 311.349 106.602C316.524 102.197 320.159 95.5349 322.251 86.615H323.903L323.738 109.906C321.425 112.329 318.176 114.311 313.992 115.853C309.807 117.284 305.292 118.33 300.447 118.991C295.601 119.762 290.976 120.147 286.571 120.147C277.651 120.147 269.447 118.661 261.959 115.687C254.47 112.604 247.973 108.364 242.467 102.968C236.961 97.5722 232.666 91.2401 229.582 83.972C226.499 76.7039 224.957 68.7751 224.957 60.1855ZM209.595 47.6315H311.018L308.541 54.5692H207.117L209.595 47.6315ZM209.76 66.1321H304.576L302.429 73.0699H207.117L209.76 66.1321Z" fill="url(#paint0_linear_388_2368)"></path><defs><linearGradient id="paint0_linear_388_2368" x1="5.99999" y1="-53.7586" x2="402.222" y2="112.311" gradientUnits="userSpaceOnUse"><stop stop-color="#AEC9FF"></stop><stop offset="1" stop-color="#7D7D7E"></stop></linearGradient></defs></svg>