<svg xmlns="http://www.w3.org/2000/svg" width="420" height="46" viewBox="0 0 420 46" fill="none"><path opacity="0.8" d="M0 23H420" stroke="#3D3D3D"></path><rect x="109.5" y="0.5" width="201" height="45" rx="4.5" fill="#202127"></rect><rect x="109.5" y="0.5" width="201" height="45" rx="4.5" stroke="url(#paint0_linear_430_94)"></rect><path d="M129.317 26.7857L137.174 18.9286M123 29.1429C123 29.5591 123.165 29.9583 123.459 30.2529C123.753 30.5475 124.152 30.7135 124.568 30.7143H141.86C142.277 30.7135 142.675 30.5475 142.969 30.2529C143.263 29.9583 143.429 29.5591 143.429 29.1429V25.9466C142.75 25.7626 142.151 25.3603 141.724 24.802C141.297 24.2436 141.065 23.5601 141.065 22.8571C141.065 22.1541 141.297 21.4707 141.724 20.9123C142.151 20.3539 142.75 19.9517 143.429 19.7677V16.5714C143.429 16.1552 143.263 15.756 142.969 15.4614C142.675 15.1668 142.277 15.0008 141.86 15H124.568C124.152 15.0008 123.753 15.1668 123.459 15.4614C123.165 15.756 123 16.1552 123 16.5714V19.7614C123.684 19.9413 124.289 20.3426 124.721 20.9027C125.153 21.4627 125.387 22.15 125.387 22.8571C125.387 23.5643 125.153 24.2516 124.721 24.8116C124.289 25.3717 123.684 25.773 123 25.9529V29.1429Z" stroke="#2F69FF" stroke-width="1.57143" stroke-linecap="round" stroke-linejoin="round"></path><path d="M130.103 20.5002C130.311 20.5002 130.511 20.4174 130.658 20.2701C130.806 20.1227 130.889 19.9229 130.889 19.7145C130.889 19.5061 130.806 19.3063 130.658 19.1589C130.511 19.0116 130.311 18.9288 130.103 18.9288C129.894 18.9288 129.695 19.0116 129.547 19.1589C129.4 19.3063 129.317 19.5061 129.317 19.7145C129.317 19.9229 129.4 20.1227 129.547 20.2701C129.695 20.4174 129.894 20.5002 130.103 20.5002ZM136.389 26.7859C136.597 26.7859 136.797 26.7031 136.944 26.5558C137.092 26.4084 137.174 26.2086 137.174 26.0002C137.174 25.7918 137.092 25.592 136.944 25.4446C136.797 25.2973 136.597 25.2145 136.389 25.2145C136.18 25.2145 135.98 25.2973 135.833 25.4446C135.686 25.592 135.603 25.7918 135.603 26.0002C135.603 26.2086 135.686 26.4084 135.833 26.5558C135.98 26.7031 136.18 26.7859 136.389 26.7859Z" stroke="#2F69FF" stroke-width="1.57143" stroke-linecap="round" stroke-linejoin="round"></path><path d="M159.919 25.557H155.782V24.122H159.919V25.557ZM157.637 19.789H158.071L155.173 28H153.563L157.056 18.2H158.645L162.145 28H160.528L157.637 19.789ZM167.834 28.196C166.854 28.196 165.988 27.986 165.237 27.566C164.486 27.146 163.898 26.5557 163.473 25.795C163.048 25.0297 162.836 24.1313 162.836 23.1C162.836 22.0687 163.053 21.1727 163.487 20.412C163.921 19.6467 164.518 19.054 165.279 18.634C166.04 18.214 166.91 18.004 167.89 18.004C168.399 18.004 168.872 18.06 169.311 18.172C169.75 18.2793 170.13 18.4147 170.452 18.578L170.277 20.111C169.922 19.9477 169.549 19.8123 169.157 19.705C168.765 19.593 168.338 19.537 167.876 19.537C167.157 19.537 166.555 19.6933 166.07 20.006C165.589 20.314 165.225 20.7387 164.978 21.28C164.735 21.8167 164.614 22.4233 164.614 23.1C164.614 23.7767 164.733 24.3857 164.971 24.927C165.214 25.4637 165.573 25.8883 166.049 26.201C166.53 26.509 167.125 26.663 167.834 26.663C168.31 26.663 168.742 26.6117 169.129 26.509C169.521 26.4063 169.904 26.2663 170.277 26.089L170.452 27.629C170.088 27.797 169.687 27.9323 169.248 28.035C168.809 28.1423 168.338 28.196 167.834 28.196ZM176.522 28.196C175.542 28.196 174.676 27.986 173.925 27.566C173.174 27.146 172.586 26.5557 172.161 25.795C171.736 25.0297 171.524 24.1313 171.524 23.1C171.524 22.0687 171.741 21.1727 172.175 20.412C172.609 19.6467 173.206 19.054 173.967 18.634C174.728 18.214 175.598 18.004 176.578 18.004C177.087 18.004 177.56 18.06 177.999 18.172C178.438 18.2793 178.818 18.4147 179.14 18.578L178.965 20.111C178.61 19.9477 178.237 19.8123 177.845 19.705C177.453 19.593 177.026 19.537 176.564 19.537C175.845 19.537 175.243 19.6933 174.758 20.006C174.277 20.314 173.913 20.7387 173.666 21.28C173.423 21.8167 173.302 22.4233 173.302 23.1C173.302 23.7767 173.421 24.3857 173.659 24.927C173.902 25.4637 174.261 25.8883 174.737 26.201C175.218 26.509 175.813 26.663 176.522 26.663C176.998 26.663 177.43 26.6117 177.817 26.509C178.209 26.4063 178.592 26.2663 178.965 26.089L179.14 27.629C178.776 27.797 178.375 27.9323 177.936 28.035C177.497 28.1423 177.026 28.196 176.522 28.196ZM180.944 28V18.2H187.111V19.74H182.596V22.113H186.131V23.653H182.596V26.46H187.244V28H180.944ZM185.515 17.346L182.813 16.534V15.106L185.515 16.436V17.346ZM191.94 28.196C191.539 28.196 191.131 28.161 190.715 28.091C190.3 28.021 189.915 27.9347 189.56 27.832C189.21 27.7247 188.926 27.6173 188.706 27.51L188.909 25.788C189.208 25.9327 189.535 26.0727 189.889 26.208C190.244 26.3387 190.615 26.4483 191.002 26.537C191.394 26.621 191.789 26.663 192.185 26.663C192.717 26.663 193.142 26.5627 193.459 26.362C193.781 26.1567 193.942 25.844 193.942 25.424C193.942 25.102 193.856 24.8407 193.683 24.64C193.511 24.4393 193.249 24.2643 192.899 24.115C192.549 23.961 192.106 23.7953 191.569 23.618C191.042 23.4453 190.564 23.247 190.134 23.023C189.705 22.7943 189.362 22.5003 189.105 22.141C188.853 21.7817 188.727 21.3173 188.727 20.748C188.727 20.216 188.86 19.7423 189.126 19.327C189.392 18.9117 189.789 18.5873 190.316 18.354C190.844 18.1207 191.495 18.004 192.269 18.004C192.885 18.004 193.464 18.0717 194.005 18.207C194.547 18.3423 195.002 18.4893 195.37 18.648L195.202 20.328C194.661 20.0573 194.148 19.8567 193.662 19.726C193.182 19.5953 192.687 19.53 192.178 19.53C191.637 19.53 191.208 19.6233 190.89 19.81C190.573 19.9967 190.414 20.2883 190.414 20.685C190.414 20.979 190.496 21.217 190.659 21.399C190.823 21.581 191.056 21.7373 191.359 21.868C191.667 21.9987 192.043 22.1317 192.486 22.267C193.186 22.4863 193.779 22.729 194.264 22.995C194.75 23.261 195.116 23.5853 195.363 23.968C195.615 24.3507 195.741 24.8243 195.741 25.389C195.741 25.7157 195.685 26.047 195.573 26.383C195.461 26.7143 195.263 27.0177 194.978 27.293C194.698 27.5637 194.311 27.783 193.816 27.951C193.322 28.1143 192.696 28.196 191.94 28.196ZM204.9 28.196C203.98 28.196 203.22 28.0163 202.618 27.657C202.02 27.2977 201.575 26.7913 201.281 26.138C200.987 25.48 200.84 24.7053 200.84 23.814V18.2H202.464V23.387C202.464 23.849 202.496 24.2783 202.562 24.675C202.627 25.0717 202.744 25.4193 202.912 25.718C203.084 26.0167 203.332 26.25 203.654 26.418C203.976 26.5813 204.391 26.663 204.9 26.663C205.413 26.663 205.828 26.5813 206.146 26.418C206.468 26.25 206.715 26.0167 206.888 25.718C207.06 25.4193 207.177 25.0717 207.238 24.675C207.303 24.2737 207.336 23.8443 207.336 23.387V18.2H208.96V23.814C208.96 24.7053 208.813 25.48 208.519 26.138C208.225 26.7913 207.777 27.2977 207.175 27.657C206.577 28.0163 205.819 28.196 204.9 28.196ZM211.308 28V18.2H212.953L217.377 24.892V18.2H219.008V28H217.657L212.932 20.909V28H211.308ZM221.473 28V18.2H223.097V28H221.473ZM230.292 25.074L231.272 24.038L234.562 27.202L233.589 28.238L230.292 25.074ZM229.823 28.196C228.89 28.196 228.059 27.986 227.331 27.566C226.603 27.146 226.031 26.5557 225.616 25.795C225.201 25.0297 224.993 24.1313 224.993 23.1C224.993 22.0687 225.201 21.1727 225.616 20.412C226.031 19.6467 226.603 19.054 227.331 18.634C228.059 18.214 228.89 18.004 229.823 18.004C230.756 18.004 231.587 18.214 232.315 18.634C233.043 19.054 233.615 19.6467 234.03 20.412C234.445 21.1727 234.653 22.0687 234.653 23.1C234.653 24.1313 234.445 25.0297 234.03 25.795C233.615 26.5557 233.043 27.146 232.315 27.566C231.587 27.986 230.756 28.196 229.823 28.196ZM229.823 26.621C230.509 26.621 231.083 26.4693 231.545 26.166C232.007 25.858 232.355 25.438 232.588 24.906C232.821 24.374 232.938 23.772 232.938 23.1C232.938 22.428 232.821 21.826 232.588 21.294C232.355 20.762 232.007 20.3443 231.545 20.041C231.083 19.733 230.509 19.579 229.823 19.579C229.132 19.579 228.556 19.733 228.094 20.041C227.632 20.3443 227.284 20.762 227.051 21.294C226.818 21.826 226.701 22.428 226.701 23.1C226.701 23.772 226.818 24.374 227.051 24.906C227.284 25.438 227.632 25.858 228.094 26.166C228.556 26.4693 229.132 26.621 229.823 26.621ZM240.486 28.196C239.567 28.196 238.806 28.0163 238.204 27.657C237.607 27.2977 237.161 26.7913 236.867 26.138C236.573 25.48 236.426 24.7053 236.426 23.814V18.2H238.05V23.387C238.05 23.849 238.083 24.2783 238.148 24.675C238.214 25.0717 238.33 25.4193 238.498 25.718C238.671 26.0167 238.918 26.25 239.24 26.418C239.562 26.5813 239.978 26.663 240.486 26.663C241 26.663 241.415 26.5813 241.732 26.418C242.054 26.25 242.302 26.0167 242.474 25.718C242.647 25.4193 242.764 25.0717 242.824 24.675C242.89 24.2737 242.922 23.8443 242.922 23.387V18.2H244.546V23.814C244.546 24.7053 244.399 25.48 244.105 26.138C243.811 26.7913 243.363 27.2977 242.761 27.657C242.164 28.0163 241.406 28.196 240.486 28.196ZM246.895 28V18.2H253.062V19.74H248.547V22.113H252.082V23.653H248.547V26.46H253.195V28H246.895ZM254.608 28L255.952 18.2H257.296L259.76 22.806L262.196 18.2H263.554L264.891 28H263.197L262.238 20.405L262.679 20.489L259.76 25.844L256.82 20.496L257.261 20.419L256.302 28H254.608ZM266.828 28V18.2H272.995V19.74H268.48V22.113H272.015V23.653H268.48V26.46H273.128V28H266.828ZM274.996 28V18.2H276.641L281.065 24.892V18.2H282.696V28H281.345L276.62 20.909V28H274.996ZM287.079 28V19.74H284.279V18.2H291.51V19.74H288.703V28H287.079ZM296.095 22.799V21.049H297.803V22.799H296.095ZM296.095 28V26.25H297.803V28H296.095Z" fill="white"></path><defs><linearGradient id="paint0_linear_430_94" x1="109" y1="23" x2="311" y2="23" gradientUnits="userSpaceOnUse"><stop stop-color="#666666" stop-opacity="0.3"></stop><stop offset="1" stop-color="#666666" stop-opacity="0.3"></stop></linearGradient></defs></svg>