<svg xmlns="http://www.w3.org/2000/svg" width="144" height="39" viewBox="0 0 144 39" fill="none"><rect x="1.1876" y="1.0875" width="141.425" height="37.325" rx="2.9375" fill="#202127"></rect><rect x="1.1876" y="1.0875" width="141.425" height="37.325" rx="2.9375" stroke="url(#paint0_linear_430_25)" stroke-width="1.175"></rect><path d="M20.8716 25.25V13.735H24.8607C25.7052 13.735 26.4262 13.8639 27.0239 14.1216C27.6271 14.3793 28.0877 14.7823 28.4057 15.3306C28.7237 15.879 28.8828 16.5891 28.8828 17.4609C28.8828 18.3328 28.7237 19.0484 28.4057 19.6076C28.0932 20.1615 27.638 20.5727 27.0404 20.8414C26.4427 21.1101 25.7271 21.2444 24.8936 21.2444H22.8127V25.25H20.8716ZM22.8127 19.6159H24.6551C25.4173 19.6159 25.9876 19.4431 26.3659 19.0977C26.7497 18.7523 26.9417 18.2149 26.9417 17.4856C26.9417 16.7563 26.7525 16.2217 26.3741 15.8817C25.9958 15.5363 25.4118 15.3636 24.6222 15.3636H22.8127V19.6159ZM32.1677 25.4145C31.7071 25.4145 31.2932 25.3158 30.9258 25.1184C30.5584 24.921 30.2678 24.6414 30.0539 24.2795C29.8456 23.9175 29.7414 23.4898 29.7414 22.9964C29.7414 22.5358 29.8456 22.141 30.0539 21.812C30.2678 21.4775 30.5474 21.2006 30.8929 20.9812C31.2438 20.7619 31.6249 20.5892 32.0361 20.4631C32.4529 20.3315 32.8696 20.2355 33.2863 20.1752C33.7086 20.1149 34.0924 20.082 34.4378 20.0765C34.4214 19.4952 34.2871 19.095 34.0348 18.8756C33.7881 18.6508 33.396 18.5384 32.8586 18.5384C32.5132 18.5384 32.1677 18.5878 31.8223 18.6865C31.4768 18.7852 31.0848 18.9579 30.6461 19.2046L30.4569 17.7077C30.8901 17.4664 31.3507 17.28 31.8387 17.1484C32.3322 17.0113 32.8367 16.9428 33.3521 16.9428C33.9937 16.9428 34.5311 17.0552 34.9642 17.28C35.3974 17.5048 35.7237 17.8749 35.943 18.3904C36.1678 18.9058 36.2802 19.5939 36.2802 20.4548V22.4617C36.2802 22.862 36.2994 23.1663 36.3378 23.3747C36.3762 23.5831 36.4502 23.7256 36.5599 23.8024C36.675 23.8792 36.8478 23.9176 37.0781 23.9176H37.3001L37.1027 25.4145H36.5928C36.2199 25.4145 35.9101 25.3706 35.6634 25.2829C35.4166 25.2006 35.2137 25.0828 35.0547 24.9292C34.9012 24.7757 34.7696 24.592 34.6599 24.3782C34.3803 24.6962 34.0184 24.9484 33.5742 25.1349C33.1356 25.3213 32.6667 25.4145 32.1677 25.4145ZM32.8093 23.9916C33.067 23.9916 33.3494 23.9258 33.6565 23.7942C33.9635 23.6571 34.2267 23.4652 34.4461 23.2184V21.3267C33.9197 21.3431 33.4454 21.4117 33.0231 21.5323C32.6009 21.6475 32.2664 21.8202 32.0197 22.0505C31.7784 22.2753 31.6578 22.5632 31.6578 22.9141C31.6578 23.2815 31.7538 23.5529 31.9457 23.7284C32.1431 23.9038 32.4309 23.9916 32.8093 23.9916ZM38.7594 25.25V17.0826H40.5936V25.25H38.7594ZM38.7594 15.635V13.735H40.5936V15.635H38.7594ZM42.0818 25.25L44.8372 21.1704L42.1065 17.0826H44.2532L45.9476 19.7639L47.5021 17.0826H49.6817L46.9757 21.1293L49.7146 25.25H47.5597L45.8653 22.5769L44.2368 25.25H42.0818ZM55.2165 25.25V17.0826H57.0507V25.25H55.2165ZM55.2165 15.635V13.735H57.0507V15.635H55.2165ZM59.3367 25.25V17.0826H60.9735L61.1298 18.6207L60.6198 18.1354C61.0146 17.7461 61.4423 17.45 61.9029 17.2471C62.369 17.0442 62.8762 16.9428 63.4245 16.9428C64.5212 16.9428 65.3245 17.2882 65.8345 17.9791C66.3444 18.67 66.5994 19.583 66.5994 20.718V25.25H64.7652V20.8167C64.7652 20.0162 64.6254 19.4294 64.3457 19.0566C64.0661 18.6782 63.6055 18.4891 62.9639 18.4891C62.465 18.4891 62.04 18.6042 61.6891 18.8345C61.3381 19.0648 61.064 19.3965 60.8666 19.8297L61.1709 18.8592V25.25H59.3367ZM71.4003 25.4145C70.8849 25.4145 70.4682 25.3131 70.1501 25.1102C69.8321 24.9073 69.5991 24.6496 69.451 24.337C69.303 24.019 69.2289 23.6873 69.2289 23.3418V18.5713H67.9787L68.1432 17.0826H69.2289V15.2073L71.0631 15.0181V17.0826H72.9878V18.5713H71.0631V22.4782C71.0631 22.9333 71.0905 23.2623 71.1454 23.4652C71.2002 23.6626 71.3263 23.7887 71.5237 23.8435C71.7211 23.8929 72.0392 23.9176 72.4778 23.9176H72.9713L72.8151 25.4145H71.4003ZM78.5449 25.4145C77.5689 25.4145 76.7519 25.2171 76.0939 24.8223C75.4414 24.4275 74.9479 23.9066 74.6134 23.2596C74.2844 22.607 74.1199 21.8915 74.1199 21.1128C74.1199 20.3616 74.2734 19.6707 74.5805 19.0401C74.893 18.4041 75.3454 17.8969 75.9376 17.5185C76.5353 17.1347 77.2591 16.9428 78.109 16.9428C78.8547 16.9428 79.4908 17.0935 80.0172 17.3951C80.5436 17.6967 80.9439 18.1134 81.218 18.6453C81.4977 19.1717 81.6375 19.7749 81.6375 20.4548C81.6375 20.6084 81.6266 20.7701 81.6046 20.9401C81.5882 21.1046 81.5635 21.2746 81.5306 21.4501H76.0198C76.0966 22.0477 76.2639 22.522 76.5216 22.873C76.7793 23.2239 77.1001 23.4789 77.4839 23.6379C77.8677 23.7914 78.2817 23.8682 78.7259 23.8682C79.1645 23.8682 79.5868 23.8161 79.9925 23.7119C80.4038 23.6023 80.7849 23.4542 81.1358 23.2678L81.2756 24.7894C80.9631 24.9429 80.5765 25.0855 80.1159 25.2171C79.6553 25.3487 79.1316 25.4145 78.5449 25.4145ZM76.1021 20.1999H79.7622C79.7622 19.9038 79.7046 19.6268 79.5895 19.3691C79.4798 19.1059 79.3016 18.8948 79.0549 18.7358C78.8136 18.5713 78.4956 18.4891 78.1008 18.4891C77.525 18.4891 77.0754 18.6453 76.7519 18.9579C76.4338 19.2704 76.2172 19.6844 76.1021 20.1999ZM76.6696 15.8406V14.648L79.8445 12.8138V14.6069L76.6696 15.8406ZM83.3923 25.25V17.0826H85.0537L85.1442 18.1272C85.4293 17.7927 85.7611 17.5075 86.1394 17.2718C86.5178 17.036 86.9263 16.9181 87.3649 16.9181C87.4965 16.9181 87.6199 16.9318 87.7351 16.9592L87.587 18.8263C87.4828 18.7989 87.3787 18.7824 87.2745 18.7769C87.1703 18.766 87.0634 18.7605 86.9537 18.7605C86.5808 18.7605 86.2381 18.8455 85.9256 19.0155C85.613 19.1854 85.3937 19.3828 85.2676 19.6076V25.25H83.3923ZM89.0707 25.25V17.0826H90.9049V25.25H89.0707ZM89.0707 15.635V13.735H90.9049V15.635H89.0707ZM97.1225 25.4145C96.1465 25.4145 95.3294 25.2171 94.6714 24.8223C94.0189 24.4275 93.5254 23.9066 93.1909 23.2596C92.8619 22.607 92.6974 21.8915 92.6974 21.1128C92.6974 20.3616 92.851 19.6707 93.158 19.0401C93.4706 18.4041 93.923 17.8969 94.5152 17.5185C95.1129 17.1347 95.8367 16.9428 96.6866 16.9428C97.4323 16.9428 98.0684 17.0935 98.5948 17.3951C99.1212 17.6967 99.5215 18.1134 99.7956 18.6453C100.075 19.1717 100.215 19.7749 100.215 20.4548C100.215 20.6084 100.204 20.7701 100.182 20.9401C100.166 21.1046 100.141 21.2746 100.108 21.4501H94.5974C94.6742 22.0477 94.8414 22.522 95.0991 22.873C95.3569 23.2239 95.6776 23.4789 96.0615 23.6379C96.4453 23.7914 96.8593 23.8682 97.3034 23.8682C97.7421 23.8682 98.1643 23.8161 98.5701 23.7119C98.9813 23.6023 99.3624 23.4542 99.7134 23.2678L99.8532 24.7894C99.5406 24.9429 99.1541 25.0855 98.6935 25.2171C98.2329 25.3487 97.7092 25.4145 97.1225 25.4145ZM94.6797 20.1999H98.3398C98.3398 19.9038 98.2822 19.6268 98.1671 19.3691C98.0574 19.1059 97.8792 18.8948 97.6324 18.7358C97.3912 18.5713 97.0731 18.4891 96.6783 18.4891C96.1026 18.4891 95.653 18.6453 95.3294 18.9579C95.0114 19.2704 94.7948 19.6844 94.6797 20.1999ZM105.194 25.4145C104.421 25.4145 103.79 25.261 103.302 24.9539C102.814 24.6414 102.455 24.2027 102.225 23.6379C102 23.0676 101.888 22.3904 101.888 21.6063V17.0826H103.722V21.4583C103.722 22.2534 103.856 22.851 104.125 23.2513C104.399 23.6461 104.838 23.8435 105.441 23.8435C105.901 23.8435 106.299 23.7339 106.633 23.5145C106.968 23.2952 107.228 22.9744 107.415 22.5522L107.102 23.4981V17.0826H108.936V25.25H107.25L107.078 23.7613L107.505 24.2301C107.28 24.5701 106.962 24.8525 106.551 25.0773C106.14 25.3021 105.688 25.4145 105.194 25.4145ZM111.215 25.25V17.0826H112.876L112.967 18.1272C113.252 17.7927 113.583 17.5075 113.962 17.2718C114.34 17.036 114.749 16.9181 115.187 16.9181C115.319 16.9181 115.442 16.9318 115.557 16.9592L115.409 18.8263C115.305 18.7989 115.201 18.7824 115.097 18.7769C114.993 18.766 114.886 18.7605 114.776 18.7605C114.403 18.7605 114.06 18.8455 113.748 19.0155C113.435 19.1854 113.216 19.3828 113.09 19.6076V25.25H111.215ZM120.664 25.4145C119.688 25.4145 118.871 25.2171 118.213 24.8223C117.56 24.4275 117.067 23.9066 116.732 23.2596C116.403 22.607 116.239 21.8915 116.239 21.1128C116.239 20.3616 116.392 19.6707 116.7 19.0401C117.012 18.4041 117.464 17.8969 118.057 17.5185C118.654 17.1347 119.378 16.9428 120.228 16.9428C120.974 16.9428 121.61 17.0935 122.136 17.3951C122.663 17.6967 123.063 18.1134 123.337 18.6453C123.617 19.1717 123.757 19.7749 123.757 20.4548C123.757 20.6084 123.746 20.7701 123.724 20.9401C123.707 21.1046 123.683 21.2746 123.65 21.4501H118.139C118.216 22.0477 118.383 22.522 118.641 22.873C118.898 23.2239 119.219 23.4789 119.603 23.6379C119.987 23.7914 120.401 23.8682 120.845 23.8682C121.284 23.8682 121.706 23.8161 122.112 23.7119C122.523 23.6023 122.904 23.4542 123.255 23.2678L123.395 24.7894C123.082 24.9429 122.696 25.0855 122.235 25.2171C121.774 25.3487 121.251 25.4145 120.664 25.4145ZM118.221 20.1999H121.881C121.881 19.9038 121.824 19.6268 121.709 19.3691C121.599 19.1059 121.421 18.8948 121.174 18.7358C120.933 18.5713 120.615 18.4891 120.22 18.4891C119.644 18.4891 119.194 18.6453 118.871 18.9579C118.553 19.2704 118.336 19.6844 118.221 20.1999Z" fill="#97B2E8"></path><defs><linearGradient id="paint0_linear_430_25" x1="0.600098" y1="19.75" x2="143.2" y2="19.75" gradientUnits="userSpaceOnUse"><stop stop-color="#666666" stop-opacity="0.3"></stop><stop offset="1" stop-color="#666666" stop-opacity="0.3"></stop></linearGradient></defs></svg>