<svg xmlns="http://www.w3.org/2000/svg" width="188" height="39" viewBox="0 0 188 39" fill="none"><rect x="0.5875" y="0.5875" width="186.425" height="37.325" rx="2.9375" fill="#202127"></rect><rect x="0.5875" y="0.5875" width="186.425" height="37.325" rx="2.9375" stroke="url(#paint0_linear_430_19)" stroke-width="1.175"></rect><path d="M19.6149 24.75L21.1941 13.235H22.7733L25.6685 18.6471L28.5308 13.235H30.1265L31.6974 24.75H29.707L28.5802 15.8259L29.0983 15.9246L25.6685 22.2167L22.214 15.9328L22.7322 15.8423L21.6054 24.75H19.6149ZM35.4618 24.9145C35.0012 24.9145 34.5872 24.8158 34.2198 24.6184C33.8524 24.421 33.5618 24.1414 33.348 23.7795C33.1396 23.4175 33.0354 22.9898 33.0354 22.4964C33.0354 22.0358 33.1396 21.641 33.348 21.312C33.5618 20.9775 33.8415 20.7006 34.1869 20.4812C34.5379 20.2619 34.9189 20.0892 35.3302 19.9631C35.7469 19.8315 36.1637 19.7355 36.5804 19.6752C37.0026 19.6149 37.3864 19.582 37.7319 19.5765C37.7154 18.9952 37.5811 18.595 37.3289 18.3756C37.0821 18.1508 36.6901 18.0384 36.1527 18.0384C35.8072 18.0384 35.4618 18.0878 35.1163 18.1865C34.7709 18.2852 34.3788 18.4579 33.9402 18.7046L33.751 17.2077C34.1842 16.9664 34.6448 16.78 35.1328 16.6484C35.6263 16.5113 36.1308 16.4428 36.6462 16.4428C37.2877 16.4428 37.8251 16.5552 38.2583 16.78C38.6915 17.0048 39.0177 17.3749 39.2371 17.8904C39.4619 18.4058 39.5743 19.0939 39.5743 19.9548V21.9617C39.5743 22.362 39.5935 22.6663 39.6319 22.8747C39.6703 23.0831 39.7443 23.2256 39.8539 23.3024C39.9691 23.3792 40.1418 23.4176 40.3721 23.4176H40.5942L40.3968 24.9145H39.8868C39.514 24.9145 39.2042 24.8706 38.9574 24.7829C38.7107 24.7006 38.5078 24.5828 38.3488 24.4292C38.1952 24.2757 38.0636 24.092 37.954 23.8782C37.6743 24.1962 37.3124 24.4484 36.8683 24.6349C36.4296 24.8213 35.9608 24.9145 35.4618 24.9145ZM36.1033 23.4916C36.3611 23.4916 36.6435 23.4258 36.9505 23.2942C37.2576 23.1571 37.5208 22.9652 37.7401 22.7184V20.8267C37.2137 20.8431 36.7394 20.9117 36.3172 21.0323C35.895 21.1475 35.5605 21.3202 35.3137 21.5505C35.0725 21.7753 34.9518 22.0632 34.9518 22.4141C34.9518 22.7815 35.0478 23.0529 35.2397 23.2284C35.4371 23.4038 35.725 23.4916 36.1033 23.4916ZM42.0535 24.75V16.5826H43.6903L43.8465 18.1207L43.3366 17.6354C43.7314 17.2461 44.1591 16.95 44.6197 16.7471C45.0858 16.5442 45.593 16.4428 46.1413 16.4428C47.238 16.4428 48.0413 16.7882 48.5512 17.4791C49.0612 18.17 49.3162 19.083 49.3162 20.218V24.75H47.482V20.3167C47.482 19.5162 47.3422 18.9294 47.0625 18.5566C46.7829 18.1782 46.3223 17.9891 45.6807 17.9891C45.1817 17.9891 44.7568 18.1042 44.4058 18.3345C44.0549 18.5648 43.7807 18.8965 43.5833 19.3297L43.8877 18.3592V24.75H42.0535ZM51.5071 24.75V16.5826H53.3413V24.75H51.5071ZM51.5071 15.135V13.235H53.3413V15.135H51.5071ZM56.1455 24.75V18.0713H54.8953L55.0845 16.5826H56.1455V14.7813C56.1455 14.0575 56.3511 13.4818 56.7624 13.0541C57.1791 12.6264 57.7795 12.4125 58.5636 12.4125C58.8323 12.4125 59.0736 12.4289 59.2874 12.4619C59.5013 12.4893 59.6987 12.5304 59.8796 12.5852L59.6822 14.0822C59.5781 14.0493 59.4711 14.0246 59.3615 14.0081C59.2573 13.9917 59.1284 13.9835 58.9749 13.9835C58.6678 13.9835 58.4238 14.0657 58.2429 14.2302C58.0674 14.3947 57.9797 14.6662 57.9797 15.0445V16.5826H59.9208V18.0713H57.9797V24.75H56.1455ZM65.3176 24.9145C64.3416 24.9145 63.5246 24.7171 62.8666 24.3223C62.2141 23.9275 61.7206 23.4066 61.3861 22.7596C61.0571 22.107 60.8926 21.3915 60.8926 20.6128C60.8926 19.8616 61.0461 19.1707 61.3532 18.5401C61.6657 17.9041 62.1181 17.3969 62.7103 17.0185C63.308 16.6347 64.0318 16.4428 64.8817 16.4428C65.6275 16.4428 66.2635 16.5935 66.7899 16.8951C67.3163 17.1967 67.7166 17.6134 67.9908 18.1453C68.2704 18.6717 68.4102 19.2749 68.4102 19.9548C68.4102 20.1084 68.3993 20.2701 68.3773 20.4401C68.3609 20.6046 68.3362 20.7746 68.3033 20.9501H62.7926C62.8693 21.5477 63.0366 22.022 63.2943 22.373C63.552 22.7239 63.8728 22.9789 64.2566 23.1379C64.6405 23.2914 65.0544 23.3682 65.4986 23.3682C65.9373 23.3682 66.3595 23.3161 66.7652 23.2119C67.1765 23.1023 67.5576 22.9542 67.9085 22.7678L68.0483 24.2894C67.7358 24.4429 67.3492 24.5855 66.8886 24.7171C66.428 24.8487 65.9044 24.9145 65.3176 24.9145ZM62.8748 19.6999H66.5349C66.5349 19.4038 66.4774 19.1268 66.3622 18.8691C66.2526 18.6059 66.0743 18.3948 65.8276 18.2358C65.5863 18.0713 65.2683 17.9891 64.8735 17.9891C64.2977 17.9891 63.8481 18.1453 63.5246 18.4579C63.2066 18.7704 62.99 19.1844 62.8748 19.6999ZM72.4844 24.9145C71.8813 24.9145 71.3549 24.8514 70.9052 24.7253C70.4556 24.5937 70.0581 24.4429 69.7126 24.273L69.8936 22.6362C70.2226 22.85 70.5982 23.0419 71.0204 23.2119C71.4426 23.3764 71.9087 23.4587 72.4186 23.4587C72.8683 23.4587 73.211 23.3874 73.4468 23.2448C73.6826 23.0968 73.8004 22.872 73.8004 22.5704C73.8004 22.3346 73.7319 22.1427 73.5948 21.9946C73.4577 21.8411 73.2713 21.7122 73.0355 21.608C72.8052 21.4984 72.5448 21.3942 72.2541 21.2955C71.799 21.142 71.3878 20.9692 71.0204 20.7773C70.653 20.5799 70.3597 20.3277 70.1403 20.0206C69.9265 19.7136 69.8195 19.316 69.8195 18.828C69.8195 18.3784 69.9347 17.9726 70.165 17.6107C70.3953 17.2433 70.7353 16.9527 71.1849 16.7389C71.6345 16.525 72.1938 16.4181 72.8628 16.4181C73.3892 16.4181 73.8443 16.4757 74.2281 16.5908C74.6175 16.706 74.9684 16.8485 75.2809 17.0185L75.1 18.6224C74.7765 18.3866 74.4393 18.1919 74.0883 18.0384C73.7374 17.8794 73.3398 17.7999 72.8957 17.7999C72.5009 17.7999 72.1883 17.8766 71.958 18.0302C71.7332 18.1837 71.6208 18.4113 71.6208 18.7129C71.6208 19.0528 71.7634 19.3023 72.0485 19.4613C72.3337 19.6203 72.7778 19.8095 73.381 20.0289C73.699 20.144 73.9951 20.2701 74.2693 20.4072C74.5434 20.5443 74.7847 20.706 74.9931 20.8925C75.2014 21.0789 75.3632 21.301 75.4783 21.5587C75.5935 21.8164 75.6511 22.1235 75.6511 22.4799C75.6511 22.9405 75.5414 23.3545 75.3221 23.7219C75.1027 24.0893 74.76 24.3799 74.2939 24.5937C73.8279 24.8076 73.2247 24.9145 72.4844 24.9145ZM80.1242 24.9145C79.6088 24.9145 79.192 24.8131 78.874 24.6102C78.556 24.4073 78.3229 24.1496 78.1749 23.837C78.0268 23.519 77.9528 23.1873 77.9528 22.8418V18.0713H76.7026L76.8671 16.5826H77.9528V14.7073L79.787 14.5181V16.5826H81.7116V18.0713H79.787V21.9782C79.787 22.4333 79.8144 22.7623 79.8692 22.9652C79.924 23.1626 80.0502 23.2887 80.2476 23.3435C80.445 23.3929 80.763 23.4176 81.2017 23.4176H81.6952L81.5389 24.9145H80.1242ZM87.2688 24.9145C86.2927 24.9145 85.4757 24.7171 84.8177 24.3223C84.1652 23.9275 83.6717 23.4066 83.3372 22.7596C83.0082 22.107 82.8437 21.3915 82.8437 20.6128C82.8437 19.8616 82.9972 19.1707 83.3043 18.5401C83.6169 17.9041 84.0692 17.3969 84.6614 17.0185C85.2591 16.6347 85.9829 16.4428 86.8328 16.4428C87.5786 16.4428 88.2146 16.5935 88.741 16.8951C89.2674 17.1967 89.6677 17.6134 89.9419 18.1453C90.2215 18.6717 90.3614 19.2749 90.3614 19.9548C90.3614 20.1084 90.3504 20.2701 90.3285 20.4401C90.312 20.6046 90.2873 20.7746 90.2544 20.9501H84.7437C84.8204 21.5477 84.9877 22.022 85.2454 22.373C85.5031 22.7239 85.8239 22.9789 86.2077 23.1379C86.5916 23.2914 87.0056 23.3682 87.4497 23.3682C87.8884 23.3682 88.3106 23.3161 88.7164 23.2119C89.1276 23.1023 89.5087 22.9542 89.8596 22.7678L89.9995 24.2894C89.6869 24.4429 89.3003 24.5855 88.8397 24.7171C88.3791 24.8487 87.8555 24.9145 87.2688 24.9145ZM84.8259 19.6999H88.4861C88.4861 19.4038 88.4285 19.1268 88.3133 18.8691C88.2037 18.6059 88.0255 18.3948 87.7787 18.2358C87.5374 18.0713 87.2194 17.9891 86.8246 17.9891C86.2489 17.9891 85.7992 18.1453 85.4757 18.4579C85.1577 18.7704 84.9411 19.1844 84.8259 19.6999ZM92.1161 24.75V16.5826H93.7776L93.868 17.6272C94.1532 17.2927 94.4849 17.0075 94.8633 16.7718C95.2416 16.536 95.6501 16.4181 96.0888 16.4181C96.2204 16.4181 96.3438 16.4318 96.4589 16.4592L96.3109 18.3263C96.2067 18.2989 96.1025 18.2824 95.9983 18.2769C95.8941 18.266 95.7872 18.2605 95.6775 18.2605C95.3047 18.2605 94.962 18.3455 94.6494 18.5155C94.3369 18.6854 94.1175 18.8828 93.9914 19.1076V24.75H92.1161ZM105.092 24.9145C104.313 24.9145 103.642 24.7226 103.077 24.3388C102.518 23.9549 102.087 23.4422 101.785 22.8007C101.484 22.1591 101.333 21.4545 101.333 20.6869C101.333 19.9247 101.478 19.2228 101.769 18.5812C102.06 17.9342 102.485 17.416 103.044 17.0267C103.609 16.6374 104.291 16.4428 105.092 16.4428C105.673 16.4428 106.186 16.5497 106.63 16.7635C107.08 16.9719 107.463 17.2735 107.782 17.6683L107.354 18.022V12.4125H109.188V24.75H107.485L107.321 23.2366L107.839 23.6067C107.505 24.0235 107.115 24.347 106.671 24.5773C106.227 24.8021 105.701 24.9145 105.092 24.9145ZM105.38 23.3682C105.802 23.3682 106.169 23.264 106.482 23.0556C106.795 22.8473 107.039 22.543 107.214 22.1427C107.389 21.7424 107.477 21.2571 107.477 20.6869C107.477 20.1276 107.389 19.6478 107.214 19.2475C107.039 18.8417 106.795 18.5319 106.482 18.318C106.169 18.0987 105.802 17.9891 105.38 17.9891C104.925 17.9891 104.535 18.1042 104.212 18.3345C103.888 18.5648 103.639 18.8828 103.463 19.2886C103.293 19.6944 103.208 20.1605 103.208 20.6869C103.208 21.1968 103.293 21.6547 103.463 22.0604C103.639 22.4662 103.888 22.787 104.212 23.0228C104.535 23.2531 104.925 23.3682 105.38 23.3682ZM115.38 24.9145C114.404 24.9145 113.587 24.7171 112.929 24.3223C112.277 23.9275 111.783 23.4066 111.449 22.7596C111.12 22.107 110.955 21.3915 110.955 20.6128C110.955 19.8616 111.109 19.1707 111.416 18.5401C111.728 17.9041 112.181 17.3969 112.773 17.0185C113.371 16.6347 114.094 16.4428 114.944 16.4428C115.69 16.4428 116.326 16.5935 116.853 16.8951C117.379 17.1967 117.779 17.6134 118.053 18.1453C118.333 18.6717 118.473 19.2749 118.473 19.9548C118.473 20.1084 118.462 20.2701 118.44 20.4401C118.424 20.6046 118.399 20.7746 118.366 20.9501H112.855C112.932 21.5477 113.099 22.022 113.357 22.373C113.615 22.7239 113.935 22.9789 114.319 23.1379C114.703 23.2914 115.117 23.3682 115.561 23.3682C116 23.3682 116.422 23.3161 116.828 23.2119C117.239 23.1023 117.62 22.9542 117.971 22.7678L118.111 24.2894C117.798 24.4429 117.412 24.5855 116.951 24.7171C116.491 24.8487 115.967 24.9145 115.38 24.9145ZM112.937 19.6999H116.598C116.598 19.4038 116.54 19.1268 116.425 18.8691C116.315 18.6059 116.137 18.3948 115.89 18.2358C115.649 18.0713 115.331 17.9891 114.936 17.9891C114.36 17.9891 113.911 18.1453 113.587 18.4579C113.269 18.7704 113.053 19.1844 112.937 19.6999ZM122.547 24.9145C121.944 24.9145 121.417 24.8514 120.968 24.7253C120.518 24.5937 120.121 24.4429 119.775 24.273L119.956 22.6362C120.285 22.85 120.661 23.0419 121.083 23.2119C121.505 23.3764 121.971 23.4587 122.481 23.4587C122.931 23.4587 123.274 23.3874 123.509 23.2448C123.745 23.0968 123.863 22.872 123.863 22.5704C123.863 22.3346 123.795 22.1427 123.657 21.9946C123.52 21.8411 123.334 21.7122 123.098 21.608C122.868 21.4984 122.607 21.3942 122.317 21.2955C121.862 21.142 121.45 20.9692 121.083 20.7773C120.716 20.5799 120.422 20.3277 120.203 20.0206C119.989 19.7136 119.882 19.316 119.882 18.828C119.882 18.3784 119.997 17.9726 120.228 17.6107C120.458 17.2433 120.798 16.9527 121.248 16.7389C121.697 16.525 122.256 16.4181 122.925 16.4181C123.452 16.4181 123.907 16.4757 124.291 16.5908C124.68 16.706 125.031 16.8485 125.344 17.0185L125.163 18.6224C124.839 18.3866 124.502 18.1919 124.151 18.0384C123.8 17.8794 123.402 17.7999 122.958 17.7999C122.564 17.7999 122.251 17.8766 122.021 18.0302C121.796 18.1837 121.683 18.4113 121.683 18.7129C121.683 19.0528 121.826 19.3023 122.111 19.4613C122.396 19.6203 122.84 19.8095 123.444 20.0289C123.762 20.144 124.058 20.2701 124.332 20.4072C124.606 20.5443 124.847 20.706 125.056 20.8925C125.264 21.0789 125.426 21.301 125.541 21.5587C125.656 21.8164 125.714 22.1235 125.714 22.4799C125.714 22.9405 125.604 23.3545 125.385 23.7219C125.165 24.0893 124.823 24.3799 124.357 24.5937C123.89 24.8076 123.287 24.9145 122.547 24.9145ZM131.488 24.75V16.5826H133.15L133.24 17.6272C133.525 17.2927 133.857 17.0075 134.235 16.7718C134.614 16.536 135.022 16.4181 135.461 16.4181C135.592 16.4181 135.716 16.4318 135.831 16.4592L135.683 18.3263C135.579 18.2989 135.475 18.2824 135.37 18.2769C135.266 18.266 135.159 18.2605 135.05 18.2605C134.677 18.2605 134.334 18.3455 134.021 18.5155C133.709 18.6854 133.49 18.8828 133.363 19.1076V24.75H131.488ZM140.938 24.9145C139.961 24.9145 139.144 24.7171 138.486 24.3223C137.834 23.9275 137.34 23.4066 137.006 22.7596C136.677 22.107 136.512 21.3915 136.512 20.6128C136.512 19.8616 136.666 19.1707 136.973 18.5401C137.286 17.9041 137.738 17.3969 138.33 17.0185C138.928 16.6347 139.652 16.4428 140.502 16.4428C141.247 16.4428 141.883 16.5935 142.41 16.8951C142.936 17.1967 143.336 17.6134 143.611 18.1453C143.89 18.6717 144.03 19.2749 144.03 19.9548C144.03 20.1084 144.019 20.2701 143.997 20.4401C143.981 20.6046 143.956 20.7746 143.923 20.9501H138.412C138.489 21.5477 138.656 22.022 138.914 22.373C139.172 22.7239 139.493 22.9789 139.876 23.1379C140.26 23.2914 140.674 23.3682 141.118 23.3682C141.557 23.3682 141.979 23.3161 142.385 23.2119C142.796 23.1023 143.177 22.9542 143.528 22.7678L143.668 24.2894C143.356 24.4429 142.969 24.5855 142.508 24.7171C142.048 24.8487 141.524 24.9145 140.938 24.9145ZM138.495 19.6999H142.155C142.155 19.4038 142.097 19.1268 141.982 18.8691C141.872 18.6059 141.694 18.3948 141.447 18.2358C141.206 18.0713 140.888 17.9891 140.493 17.9891C139.918 17.9891 139.468 18.1453 139.144 18.4579C138.826 18.7704 138.61 19.1844 138.495 19.6999ZM138.503 15.5791V14.3865L140.641 12.5523L142.78 14.3865V15.5791L140.641 14.2302L138.503 15.5791ZM147.95 24.75L144.816 16.5826H146.692L148.805 22.5457L150.903 16.5826H152.786L149.661 24.75H147.95ZM157.949 24.9145C156.973 24.9145 156.156 24.7171 155.498 24.3223C154.846 23.9275 154.352 23.4066 154.018 22.7596C153.689 22.107 153.524 21.3915 153.524 20.6128C153.524 19.8616 153.678 19.1707 153.985 18.5401C154.297 17.9041 154.75 17.3969 155.342 17.0185C155.939 16.6347 156.663 16.4428 157.513 16.4428C158.259 16.4428 158.895 16.5935 159.421 16.8951C159.948 17.1967 160.348 17.6134 160.622 18.1453C160.902 18.6717 161.042 19.2749 161.042 19.9548C161.042 20.1084 161.031 20.2701 161.009 20.4401C160.992 20.6046 160.968 20.7746 160.935 20.9501H155.424C155.501 21.5477 155.668 22.022 155.926 22.373C156.183 22.7239 156.504 22.9789 156.888 23.1379C157.272 23.2914 157.686 23.3682 158.13 23.3682C158.569 23.3682 158.991 23.3161 159.397 23.2119C159.808 23.1023 160.189 22.9542 160.54 22.7678L160.68 24.2894C160.367 24.4429 159.981 24.5855 159.52 24.7171C159.06 24.8487 158.536 24.9145 157.949 24.9145ZM155.506 19.6999H159.166C159.166 19.4038 159.109 19.1268 158.994 18.8691C158.884 18.6059 158.706 18.3948 158.459 18.2358C158.218 18.0713 157.9 17.9891 157.505 17.9891C156.929 17.9891 156.48 18.1453 156.156 18.4579C155.838 18.7704 155.621 19.1844 155.506 19.6999ZM165.116 24.9145C164.513 24.9145 163.986 24.8514 163.537 24.7253C163.087 24.5937 162.69 24.4429 162.344 24.273L162.525 22.6362C162.854 22.85 163.23 23.0419 163.652 23.2119C164.074 23.3764 164.54 23.4587 165.05 23.4587C165.5 23.4587 165.842 23.3874 166.078 23.2448C166.314 23.0968 166.432 22.872 166.432 22.5704C166.432 22.3346 166.363 22.1427 166.226 21.9946C166.089 21.8411 165.903 21.7122 165.667 21.608C165.437 21.4984 165.176 21.3942 164.886 21.2955C164.431 21.142 164.019 20.9692 163.652 20.7773C163.284 20.5799 162.991 20.3277 162.772 20.0206C162.558 19.7136 162.451 19.316 162.451 18.828C162.451 18.3784 162.566 17.9726 162.796 17.6107C163.027 17.2433 163.367 16.9527 163.816 16.7389C164.266 16.525 164.825 16.4181 165.494 16.4181C166.021 16.4181 166.476 16.4757 166.86 16.5908C167.249 16.706 167.6 16.8485 167.912 17.0185L167.731 18.6224C167.408 18.3866 167.071 18.1919 166.72 18.0384C166.369 17.8794 165.971 17.7999 165.527 17.7999C165.132 17.7999 164.82 17.8766 164.59 18.0302C164.365 18.1837 164.252 18.4113 164.252 18.7129C164.252 19.0528 164.395 19.3023 164.68 19.4613C164.965 19.6203 165.409 19.8095 166.012 20.0289C166.33 20.144 166.627 20.2701 166.901 20.4072C167.175 20.5443 167.416 20.706 167.625 20.8925C167.833 21.0789 167.995 21.301 168.11 21.5587C168.225 21.8164 168.283 22.1235 168.283 22.4799C168.283 22.9405 168.173 23.3545 167.954 23.7219C167.734 24.0893 167.392 24.3799 166.925 24.5937C166.459 24.8076 165.856 24.9145 165.116 24.9145Z" fill="#97B2E8"></path><defs><linearGradient id="paint0_linear_430_19" x1="0" y1="19.25" x2="187.6" y2="19.25" gradientUnits="userSpaceOnUse"><stop stop-color="#666666" stop-opacity="0.3"></stop><stop offset="1" stop-color="#666666" stop-opacity="0.3"></stop></linearGradient></defs></svg>