<svg xmlns="http://www.w3.org/2000/svg" width="233" height="39" viewBox="0 0 233 39" fill="none"><rect x="0.5875" y="1.0875" width="231.425" height="37.325" rx="2.9375" fill="#202127"></rect><rect x="0.5875" y="1.0875" width="231.425" height="37.325" rx="2.9375" stroke="url(#paint0_linear_430_23)" stroke-width="1.175"></rect><path d="M25.3583 25.4803C24.2068 25.4803 23.1896 25.2335 22.3068 24.7401C21.424 24.2466 20.7331 23.5529 20.2341 22.6591C19.7351 21.7599 19.4856 20.7043 19.4856 19.4925C19.4856 18.2807 19.7406 17.2279 20.2506 16.3341C20.7605 15.4348 21.4624 14.7385 22.3562 14.245C23.2499 13.7515 24.2726 13.5047 25.4241 13.5047C26.0218 13.5047 26.5783 13.5705 27.0938 13.7021C27.6092 13.8282 28.0561 13.9872 28.4344 14.1792L28.2288 15.9804C27.8121 15.7885 27.3734 15.6295 26.9128 15.5034C26.4522 15.3718 25.9505 15.306 25.4076 15.306C24.5632 15.306 23.8559 15.4897 23.2856 15.8571C22.7208 16.2189 22.2931 16.7179 22.0025 17.354C21.7174 17.9846 21.5748 18.6974 21.5748 19.4925C21.5748 20.2876 21.7146 21.0032 21.9943 21.6392C22.2794 22.2698 22.7016 22.7688 23.2609 23.1362C23.8257 23.4981 24.5248 23.679 25.3583 23.679C25.9176 23.679 26.4248 23.6187 26.8799 23.4981C27.3405 23.3774 27.7901 23.2129 28.2288 23.0046L28.4344 24.8141C28.0067 25.0115 27.5352 25.1705 27.0197 25.2911C26.5043 25.4172 25.9505 25.4803 25.3583 25.4803ZM30.209 25.25V17.0826H31.8704L31.9609 18.1272C32.246 17.7927 32.5778 17.5075 32.9561 17.2718C33.3345 17.036 33.743 16.9181 34.1817 16.9181C34.3133 16.9181 34.4366 16.9318 34.5518 16.9592L34.4037 18.8263C34.2995 18.7989 34.1954 18.7824 34.0912 18.7769C33.987 18.766 33.8801 18.7605 33.7704 18.7605C33.3975 18.7605 33.0548 18.8455 32.7423 19.0155C32.4297 19.1854 32.2104 19.3828 32.0843 19.6076V25.25H30.209ZM39.3869 25.4145C38.5096 25.4145 37.7611 25.2226 37.1415 24.8388C36.5274 24.4549 36.0558 23.9422 35.7268 23.3007C35.4033 22.6591 35.2415 21.9518 35.2415 21.1786C35.2415 20.4055 35.4033 19.6954 35.7268 19.0484C36.0558 18.4013 36.5274 17.8859 37.1415 17.5021C37.7611 17.1127 38.5096 16.9181 39.3869 16.9181C40.2588 16.9181 41.0045 17.1127 41.6241 17.5021C42.2437 17.8859 42.7153 18.4013 43.0388 19.0484C43.3678 19.6954 43.5323 20.4055 43.5323 21.1786C43.5323 21.9518 43.3678 22.6591 43.0388 23.3007C42.7153 23.9422 42.2437 24.4549 41.6241 24.8388C41.0045 25.2226 40.2588 25.4145 39.3869 25.4145ZM39.3869 23.8682C40.1107 23.8682 40.6673 23.6242 41.0566 23.1362C41.4514 22.6427 41.6488 21.9902 41.6488 21.1786C41.6488 20.3561 41.4514 19.6981 41.0566 19.2046C40.6673 18.7111 40.1107 18.4644 39.3869 18.4644C38.6631 18.4644 38.1038 18.7111 37.709 19.2046C37.3142 19.6981 37.1168 20.3561 37.1168 21.1786C37.1168 21.9902 37.3142 22.6427 37.709 23.1362C38.1038 23.6242 38.6631 23.8682 39.3869 23.8682ZM45.3089 25.25V17.0826H47.1431V25.25H45.3089ZM45.3089 15.635V13.735H47.1431V15.635H45.3089ZM51.7486 25.4145C51.1454 25.4145 50.619 25.3514 50.1694 25.2253C49.7198 25.0937 49.3222 24.9429 48.9768 24.773L49.1577 23.1362C49.4867 23.35 49.8623 23.5419 50.2845 23.7119C50.7068 23.8764 51.1728 23.9587 51.6828 23.9587C52.1324 23.9587 52.4751 23.8874 52.7109 23.7448C52.9467 23.5968 53.0646 23.372 53.0646 23.0704C53.0646 22.8346 52.996 22.6427 52.859 22.4946C52.7219 22.3411 52.5354 22.2122 52.2997 22.108C52.0694 21.9984 51.8089 21.8942 51.5183 21.7955C51.0632 21.642 50.6519 21.4692 50.2845 21.2773C49.9172 21.0799 49.6238 20.8277 49.4045 20.5206C49.1906 20.2136 49.0837 19.816 49.0837 19.328C49.0837 18.8784 49.1988 18.4726 49.4291 18.1107C49.6594 17.7433 49.9994 17.4527 50.449 17.2389C50.8987 17.025 51.458 16.9181 52.1269 16.9181C52.6533 16.9181 53.1085 16.9757 53.4923 17.0908C53.8816 17.206 54.2325 17.3485 54.5451 17.5185L54.3641 19.1224C54.0406 18.8866 53.7034 18.6919 53.3525 18.5384C53.0015 18.3794 52.604 18.2999 52.1598 18.2999C51.765 18.2999 51.4525 18.3766 51.2222 18.5302C50.9974 18.6837 50.885 18.9113 50.885 19.2129C50.885 19.5528 51.0275 19.8023 51.3127 19.9613C51.5978 20.1203 52.0419 20.3095 52.6451 20.5289C52.9631 20.644 53.2592 20.7701 53.5334 20.9072C53.8076 21.0443 54.0488 21.206 54.2572 21.3925C54.4656 21.5789 54.6273 21.801 54.7425 22.0587C54.8576 22.3164 54.9152 22.6235 54.9152 22.9799C54.9152 23.4405 54.8055 23.8545 54.5862 24.2219C54.3669 24.5893 54.0242 24.8799 53.5581 25.0937C53.092 25.3076 52.4888 25.4145 51.7486 25.4145ZM58.9853 25.4145C58.3821 25.4145 57.8557 25.3514 57.4061 25.2253C56.9565 25.0937 56.5589 24.9429 56.2135 24.773L56.3944 23.1362C56.7234 23.35 57.099 23.5419 57.5213 23.7119C57.9435 23.8764 58.4096 23.9587 58.9195 23.9587C59.3691 23.9587 59.7118 23.8874 59.9476 23.7448C60.1834 23.5968 60.3013 23.372 60.3013 23.0704C60.3013 22.8346 60.2328 22.6427 60.0957 22.4946C59.9586 22.3411 59.7722 22.2122 59.5364 22.108C59.3061 21.9984 59.0456 21.8942 58.755 21.7955C58.2999 21.642 57.8886 21.4692 57.5213 21.2773C57.1539 21.0799 56.8605 20.8277 56.6412 20.5206C56.4273 20.2136 56.3204 19.816 56.3204 19.328C56.3204 18.8784 56.4356 18.4726 56.6659 18.1107C56.8962 17.7433 57.2361 17.4527 57.6858 17.2389C58.1354 17.025 58.6947 16.9181 59.3637 16.9181C59.8901 16.9181 60.3452 16.9757 60.729 17.0908C61.1183 17.206 61.4693 17.3485 61.7818 17.5185L61.6009 19.1224C61.2773 18.8866 60.9401 18.6919 60.5892 18.5384C60.2382 18.3794 59.8407 18.2999 59.3966 18.2999C59.0018 18.2999 58.6892 18.3766 58.4589 18.5302C58.2341 18.6837 58.1217 18.9113 58.1217 19.2129C58.1217 19.5528 58.2642 19.8023 58.5494 19.9613C58.8345 20.1203 59.2787 20.3095 59.8818 20.5289C60.1999 20.644 60.496 20.7701 60.7701 20.9072C61.0443 21.0443 61.2856 21.206 61.4939 21.3925C61.7023 21.5789 61.8641 21.801 61.9792 22.0587C62.0944 22.3164 62.1519 22.6235 62.1519 22.9799C62.1519 23.4405 62.0423 23.8545 61.8229 24.2219C61.6036 24.5893 61.2609 24.8799 60.7948 25.0937C60.3287 25.3076 59.7256 25.4145 58.9853 25.4145ZM65.7203 25.4145C65.2597 25.4145 64.8457 25.3158 64.4783 25.1184C64.1109 24.921 63.8203 24.6414 63.6065 24.2795C63.3981 23.9175 63.2939 23.4898 63.2939 22.9964C63.2939 22.5358 63.3981 22.141 63.6065 21.812C63.8203 21.4775 64.1 21.2006 64.4454 20.9812C64.7963 20.7619 65.1774 20.5892 65.5887 20.4631C66.0054 20.3315 66.4222 20.2355 66.8389 20.1752C67.2611 20.1149 67.6449 20.082 67.9904 20.0765C67.9739 19.4952 67.8396 19.095 67.5874 18.8756C67.3406 18.6508 66.9486 18.5384 66.4112 18.5384C66.0657 18.5384 65.7203 18.5878 65.3748 18.6865C65.0294 18.7852 64.6373 18.9579 64.1987 19.2046L64.0095 17.7077C64.4427 17.4664 64.9033 17.28 65.3913 17.1484C65.8848 17.0113 66.3893 16.9428 66.9047 16.9428C67.5462 16.9428 68.0836 17.0552 68.5168 17.28C68.95 17.5048 69.2762 17.8749 69.4956 18.3904C69.7204 18.9058 69.8328 19.5939 69.8328 20.4548V22.4617C69.8328 22.862 69.852 23.1663 69.8904 23.3747C69.9287 23.5831 70.0028 23.7256 70.1124 23.8024C70.2276 23.8792 70.4003 23.9176 70.6306 23.9176H70.8527L70.6553 25.4145H70.1453C69.7725 25.4145 69.4627 25.3706 69.2159 25.2829C68.9692 25.2006 68.7663 25.0828 68.6073 24.9292C68.4537 24.7757 68.3221 24.592 68.2125 24.3782C67.9328 24.6962 67.5709 24.9484 67.1268 25.1349C66.6881 25.3213 66.2193 25.4145 65.7203 25.4145ZM66.3618 23.9916C66.6196 23.9916 66.9019 23.9258 67.209 23.7942C67.5161 23.6571 67.7793 23.4652 67.9986 23.2184V21.3267C67.4722 21.3431 66.9979 21.4117 66.5757 21.5323C66.1535 21.6475 65.819 21.8202 65.5722 22.0505C65.331 22.2753 65.2103 22.5632 65.2103 22.9141C65.2103 23.2815 65.3063 23.5529 65.4982 23.7284C65.6956 23.9038 65.9835 23.9916 66.3618 23.9916ZM72.312 25.25V17.0826H73.9488L74.105 18.6207L73.5951 18.1354C73.9899 17.7461 74.4176 17.45 74.8782 17.2471C75.3443 17.0442 75.8515 16.9428 76.3998 16.9428C77.4965 16.9428 78.2998 17.2882 78.8097 17.9791C79.3197 18.67 79.5747 19.583 79.5747 20.718V25.25H77.7405V20.8167C77.7405 20.0162 77.6007 19.4294 77.321 19.0566C77.0414 18.6782 76.5808 18.4891 75.9392 18.4891C75.4402 18.4891 75.0153 18.6042 74.6643 18.8345C74.3134 19.0648 74.0392 19.3965 73.8418 19.8297L74.1462 18.8592V25.25H72.312ZM85.5409 25.4145C84.6087 25.4145 83.8273 25.2253 83.1967 24.847C82.5662 24.4631 82.0891 23.9532 81.7656 23.3171C81.4476 22.6756 81.2885 21.9682 81.2885 21.1951C81.2885 20.4055 81.4448 19.6872 81.7574 19.0401C82.0754 18.3931 82.5552 17.8777 83.1967 17.4938C83.8383 17.11 84.6471 16.9181 85.6231 16.9181C86.0728 16.9181 86.484 16.9674 86.8569 17.0661C87.2297 17.1593 87.5533 17.28 87.8274 17.428L87.6382 18.9497C87.3696 18.8126 87.0735 18.7029 86.7499 18.6207C86.4264 18.5329 86.0892 18.4891 85.7383 18.4891C84.9158 18.4891 84.2797 18.7331 83.8301 19.2211C83.3859 19.7036 83.1638 20.3534 83.1638 21.1704C83.1638 21.9545 83.3859 22.6016 83.8301 23.1115C84.2742 23.6214 84.9021 23.8764 85.7136 23.8764C86.059 23.8764 86.3935 23.8298 86.717 23.7366C87.0406 23.6434 87.3531 23.5145 87.6547 23.35L87.8439 24.8799C87.5807 25.0279 87.2434 25.154 86.8322 25.2582C86.4264 25.3624 85.996 25.4145 85.5409 25.4145ZM93.4158 25.4145C92.4398 25.4145 91.6227 25.2171 90.9647 24.8223C90.3122 24.4275 89.8187 23.9066 89.4842 23.2596C89.1552 22.607 88.9907 21.8915 88.9907 21.1128C88.9907 20.3616 89.1443 19.6707 89.4513 19.0401C89.7639 18.4041 90.2163 17.8969 90.8085 17.5185C91.4062 17.1347 92.13 16.9428 92.9799 16.9428C93.7256 16.9428 94.3617 17.0935 94.8881 17.3951C95.4145 17.6967 95.8148 18.1134 96.0889 18.6453C96.3686 19.1717 96.5084 19.7749 96.5084 20.4548C96.5084 20.6084 96.4974 20.7701 96.4755 20.9401C96.459 21.1046 96.4344 21.2746 96.4015 21.4501H90.8907C90.9675 22.0477 91.1347 22.522 91.3924 22.873C91.6502 23.2239 91.9709 23.4789 92.3548 23.6379C92.7386 23.7914 93.1526 23.8682 93.5967 23.8682C94.0354 23.8682 94.4576 23.8161 94.8634 23.7119C95.2746 23.6023 95.6557 23.4542 96.0067 23.2678L96.1465 24.7894C95.8339 24.9429 95.4474 25.0855 94.9868 25.2171C94.5262 25.3487 94.0025 25.4145 93.4158 25.4145ZM90.973 20.1999H94.6331C94.6331 19.9038 94.5755 19.6268 94.4604 19.3691C94.3507 19.1059 94.1725 18.8948 93.9257 18.7358C93.6845 18.5713 93.3664 18.4891 92.9716 18.4891C92.3959 18.4891 91.9463 18.6453 91.6227 18.9579C91.3047 19.2704 91.0881 19.6844 90.973 20.1999ZM102.287 29.2309V17.0826H103.751L104.105 18.6207L103.562 18.3821C103.929 17.9435 104.343 17.5953 104.804 17.3375C105.27 17.0744 105.837 16.9428 106.506 16.9428C107.291 16.9428 107.951 17.1347 108.489 17.5185C109.031 17.9023 109.443 18.415 109.722 19.0566C110.002 19.6981 110.142 20.4055 110.142 21.1786C110.142 21.9518 110.005 22.6591 109.731 23.3007C109.456 23.9422 109.051 24.4549 108.513 24.8388C107.976 25.2226 107.307 25.4145 106.506 25.4145C105.865 25.4145 105.322 25.3103 104.878 25.102C104.439 24.8936 104.047 24.5701 103.702 24.1314L104.121 23.7613V29.2309H102.287ZM106.21 23.8682C106.857 23.8682 107.362 23.6242 107.724 23.1362C108.086 22.6427 108.267 21.9902 108.267 21.1786C108.267 20.3616 108.086 19.7091 107.724 19.2211C107.362 18.7331 106.857 18.4891 106.21 18.4891C105.75 18.4891 105.355 18.5987 105.026 18.818C104.702 19.0319 104.456 19.339 104.286 19.7393C104.116 20.1395 104.031 20.6193 104.031 21.1786C104.031 21.7489 104.116 22.2342 104.286 22.6345C104.456 23.0347 104.702 23.3418 105.026 23.5556C105.355 23.764 105.75 23.8682 106.21 23.8682ZM111.933 25.25V17.0826H113.595L113.685 18.1272C113.97 17.7927 114.302 17.5075 114.68 17.2718C115.059 17.036 115.467 16.9181 115.906 16.9181C116.038 16.9181 116.161 16.9318 116.276 16.9592L116.128 18.8263C116.024 18.7989 115.92 18.7824 115.816 18.7769C115.711 18.766 115.604 18.7605 115.495 18.7605C115.122 18.7605 114.779 18.8455 114.467 19.0155C114.154 19.1854 113.935 19.3828 113.809 19.6076V25.25H111.933ZM121.111 25.4145C120.234 25.4145 119.485 25.2226 118.866 24.8388C118.252 24.4549 117.78 23.9422 117.451 23.3007C117.128 22.6591 116.966 21.9518 116.966 21.1786C116.966 20.4055 117.128 19.6954 117.451 19.0484C117.78 18.4013 118.252 17.8859 118.866 17.5021C119.485 17.1127 120.234 16.9181 121.111 16.9181C121.983 16.9181 122.729 17.1127 123.348 17.5021C123.968 17.8859 124.44 18.4013 124.763 19.0484C125.092 19.6954 125.257 20.4055 125.257 21.1786C125.257 21.9518 125.092 22.6591 124.763 23.3007C124.44 23.9422 123.968 24.4549 123.348 24.8388C122.729 25.2226 121.983 25.4145 121.111 25.4145ZM121.111 23.8682C121.835 23.8682 122.392 23.6242 122.781 23.1362C123.176 22.6427 123.373 21.9902 123.373 21.1786C123.373 20.3561 123.176 19.6981 122.781 19.2046C122.392 18.7111 121.835 18.4644 121.111 18.4644C120.387 18.4644 119.828 18.7111 119.433 19.2046C119.039 19.6981 118.841 20.3561 118.841 21.1786C118.841 21.9902 119.039 22.6427 119.433 23.1362C119.828 23.6242 120.387 23.8682 121.111 23.8682ZM127.455 25.25V18.5713H126.205L126.394 17.0826H127.455V15.2813C127.455 14.5575 127.661 13.9818 128.072 13.5541C128.489 13.1264 129.089 12.9125 129.873 12.9125C130.142 12.9125 130.383 12.9289 130.597 12.9619C130.811 12.9893 131.008 13.0304 131.189 13.0852L130.992 14.5822C130.888 14.5493 130.781 14.5246 130.671 14.5081C130.567 14.4917 130.438 14.4835 130.284 14.4835C129.977 14.4835 129.733 14.5657 129.552 14.7302C129.377 14.8947 129.289 15.1662 129.289 15.5445V17.0826H131.23V18.5713H129.289V25.25H127.455ZM136.627 25.4145C135.651 25.4145 134.834 25.2171 134.176 24.8223C133.524 24.4275 133.03 23.9066 132.696 23.2596C132.367 22.607 132.202 21.8915 132.202 21.1128C132.202 20.3616 132.356 19.6707 132.663 19.0401C132.975 18.4041 133.428 17.8969 134.02 17.5185C134.618 17.1347 135.341 16.9428 136.191 16.9428C136.937 16.9428 137.573 17.0935 138.1 17.3951C138.626 17.6967 139.026 18.1134 139.3 18.6453C139.58 19.1717 139.72 19.7749 139.72 20.4548C139.72 20.6084 139.709 20.7701 139.687 20.9401C139.67 21.1046 139.646 21.2746 139.613 21.4501H134.102C134.179 22.0477 134.346 22.522 134.604 22.873C134.862 23.2239 135.182 23.4789 135.566 23.6379C135.95 23.7914 136.364 23.8682 136.808 23.8682C137.247 23.8682 137.669 23.8161 138.075 23.7119C138.486 23.6023 138.867 23.4542 139.218 23.2678L139.358 24.7894C139.045 24.9429 138.659 25.0855 138.198 25.2171C137.738 25.3487 137.214 25.4145 136.627 25.4145ZM134.184 20.1999H137.845C137.845 19.9038 137.787 19.6268 137.672 19.3691C137.562 19.1059 137.384 18.8948 137.137 18.7358C136.896 18.5713 136.578 18.4891 136.183 18.4891C135.607 18.4891 135.158 18.6453 134.834 18.9579C134.516 19.2704 134.3 19.6844 134.184 20.1999ZM143.794 25.4145C143.191 25.4145 142.664 25.3514 142.215 25.2253C141.765 25.0937 141.368 24.9429 141.022 24.773L141.203 23.1362C141.532 23.35 141.908 23.5419 142.33 23.7119C142.752 23.8764 143.218 23.9587 143.728 23.9587C144.178 23.9587 144.521 23.8874 144.756 23.7448C144.992 23.5968 145.11 23.372 145.11 23.0704C145.11 22.8346 145.042 22.6427 144.904 22.4946C144.767 22.3411 144.581 22.2122 144.345 22.108C144.115 21.9984 143.854 21.8942 143.564 21.7955C143.109 21.642 142.697 21.4692 142.33 21.2773C141.963 21.0799 141.669 20.8277 141.45 20.5206C141.236 20.2136 141.129 19.816 141.129 19.328C141.129 18.8784 141.244 18.4726 141.475 18.1107C141.705 17.7433 142.045 17.4527 142.494 17.2389C142.944 17.025 143.503 16.9181 144.172 16.9181C144.699 16.9181 145.154 16.9757 145.538 17.0908C145.927 17.206 146.278 17.3485 146.591 17.5185L146.41 19.1224C146.086 18.8866 145.749 18.6919 145.398 18.5384C145.047 18.3794 144.649 18.2999 144.205 18.2999C143.81 18.2999 143.498 18.3766 143.268 18.5302C143.043 18.6837 142.93 18.9113 142.93 19.2129C142.93 19.5528 143.073 19.8023 143.358 19.9613C143.643 20.1203 144.087 20.3095 144.691 20.5289C145.009 20.644 145.305 20.7701 145.579 20.9072C145.853 21.0443 146.094 21.206 146.303 21.3925C146.511 21.5789 146.673 21.801 146.788 22.0587C146.903 22.3164 146.961 22.6235 146.961 22.9799C146.961 23.4405 146.851 23.8545 146.632 24.2219C146.412 24.5893 146.07 24.8799 145.604 25.0937C145.137 25.3076 144.534 25.4145 143.794 25.4145ZM151.031 25.4145C150.428 25.4145 149.901 25.3514 149.452 25.2253C149.002 25.0937 148.604 24.9429 148.259 24.773L148.44 23.1362C148.769 23.35 149.144 23.5419 149.567 23.7119C149.989 23.8764 150.455 23.9587 150.965 23.9587C151.415 23.9587 151.757 23.8874 151.993 23.7448C152.229 23.5968 152.347 23.372 152.347 23.0704C152.347 22.8346 152.278 22.6427 152.141 22.4946C152.004 22.3411 151.818 22.2122 151.582 22.108C151.352 21.9984 151.091 21.8942 150.8 21.7955C150.345 21.642 149.934 21.4692 149.567 21.2773C149.199 21.0799 148.906 20.8277 148.687 20.5206C148.473 20.2136 148.366 19.816 148.366 19.328C148.366 18.8784 148.481 18.4726 148.711 18.1107C148.942 17.7433 149.282 17.4527 149.731 17.2389C150.181 17.025 150.74 16.9181 151.409 16.9181C151.936 16.9181 152.391 16.9757 152.774 17.0908C153.164 17.206 153.515 17.3485 153.827 17.5185L153.646 19.1224C153.323 18.8866 152.986 18.6919 152.635 18.5384C152.284 18.3794 151.886 18.2999 151.442 18.2999C151.047 18.2999 150.735 18.3766 150.504 18.5302C150.28 18.6837 150.167 18.9113 150.167 19.2129C150.167 19.5528 150.31 19.8023 150.595 19.9613C150.88 20.1203 151.324 20.3095 151.927 20.5289C152.245 20.644 152.541 20.7701 152.816 20.9072C153.09 21.0443 153.331 21.206 153.539 21.3925C153.748 21.5789 153.91 21.801 154.025 22.0587C154.14 22.3164 154.197 22.6235 154.197 22.9799C154.197 23.4405 154.088 23.8545 153.868 24.2219C153.649 24.5893 153.306 24.8799 152.84 25.0937C152.374 25.3076 151.771 25.4145 151.031 25.4145ZM155.948 25.25V17.0826H157.782V25.25H155.948ZM155.948 15.635V13.735H157.782V15.635H155.948ZM163.728 25.4145C162.851 25.4145 162.103 25.2226 161.483 24.8388C160.869 24.4549 160.397 23.9422 160.068 23.3007C159.745 22.6591 159.583 21.9518 159.583 21.1786C159.583 20.4055 159.745 19.6954 160.068 19.0484C160.397 18.4013 160.869 17.8859 161.483 17.5021C162.103 17.1127 162.851 16.9181 163.728 16.9181C164.6 16.9181 165.346 17.1127 165.966 17.5021C166.585 17.8859 167.057 18.4013 167.38 19.0484C167.709 19.6954 167.874 20.4055 167.874 21.1786C167.874 21.9518 167.709 22.6591 167.38 23.3007C167.057 23.9422 166.585 24.4549 165.966 24.8388C165.346 25.2226 164.6 25.4145 163.728 25.4145ZM163.728 23.8682C164.452 23.8682 165.009 23.6242 165.398 23.1362C165.793 22.6427 165.99 21.9902 165.99 21.1786C165.99 20.3561 165.793 19.6981 165.398 19.2046C165.009 18.7111 164.452 18.4644 163.728 18.4644C163.005 18.4644 162.445 18.7111 162.05 19.2046C161.656 19.6981 161.458 20.3561 161.458 21.1786C161.458 21.9902 161.656 22.6427 162.05 23.1362C162.445 23.6242 163.005 23.8682 163.728 23.8682ZM169.65 25.25V17.0826H171.287L171.443 18.6207L170.933 18.1354C171.328 17.7461 171.756 17.45 172.217 17.2471C172.683 17.0442 173.19 16.9428 173.738 16.9428C174.835 16.9428 175.638 17.2882 176.148 17.9791C176.658 18.67 176.913 19.583 176.913 20.718V25.25H175.079V20.8167C175.079 20.0162 174.939 19.4294 174.659 19.0566C174.38 18.6782 173.919 18.4891 173.278 18.4891C172.779 18.4891 172.354 18.6042 172.003 18.8345C171.652 19.0648 171.378 19.3965 171.18 19.8297L171.485 18.8592V25.25H169.65ZM179.104 25.25V17.0826H180.741L180.897 18.6207L180.387 18.1354C180.782 17.7461 181.21 17.45 181.67 17.2471C182.136 17.0442 182.643 16.9428 183.192 16.9428C184.288 16.9428 185.092 17.2882 185.602 17.9791C186.112 18.67 186.367 19.583 186.367 20.718V25.25H184.532V20.8167C184.532 20.0162 184.393 19.4294 184.113 19.0566C183.833 18.6782 183.373 18.4891 182.731 18.4891C182.232 18.4891 181.807 18.6042 181.456 18.8345C181.105 19.0648 180.831 19.3965 180.634 19.8297L180.938 18.8592V25.25H179.104ZM192.489 25.4145C191.513 25.4145 190.696 25.2171 190.038 24.8223C189.386 24.4275 188.892 23.9066 188.558 23.2596C188.229 22.607 188.064 21.8915 188.064 21.1128C188.064 20.3616 188.218 19.6707 188.525 19.0401C188.837 18.4041 189.29 17.8969 189.882 17.5185C190.479 17.1347 191.203 16.9428 192.053 16.9428C192.799 16.9428 193.435 17.0935 193.961 17.3951C194.488 17.6967 194.888 18.1134 195.162 18.6453C195.442 19.1717 195.582 19.7749 195.582 20.4548C195.582 20.6084 195.571 20.7701 195.549 20.9401C195.532 21.1046 195.508 21.2746 195.475 21.4501H189.964C190.041 22.0477 190.208 22.522 190.466 22.873C190.724 23.2239 191.044 23.4789 191.428 23.6379C191.812 23.7914 192.226 23.8682 192.67 23.8682C193.109 23.8682 193.531 23.8161 193.937 23.7119C194.348 23.6023 194.729 23.4542 195.08 23.2678L195.22 24.7894C194.907 24.9429 194.521 25.0855 194.06 25.2171C193.6 25.3487 193.076 25.4145 192.489 25.4145ZM190.046 20.1999H193.706C193.706 19.9038 193.649 19.6268 193.534 19.3691C193.424 19.1059 193.246 18.8948 192.999 18.7358C192.758 18.5713 192.44 18.4891 192.045 18.4891C191.469 18.4891 191.02 18.6453 190.696 18.9579C190.378 19.2704 190.161 19.6844 190.046 20.1999ZM199.434 25.4145C198.935 25.4145 198.529 25.3185 198.217 25.1266C197.909 24.9347 197.685 24.6825 197.542 24.3699C197.4 24.0519 197.328 23.7064 197.328 23.3336V12.9125H199.171V22.4946C199.171 22.9388 199.198 23.2623 199.253 23.4652C199.308 23.6626 199.412 23.7887 199.565 23.8435C199.724 23.8929 199.96 23.9176 200.273 23.9176L200.075 25.4145H199.434ZM203.924 25.4145C203.425 25.4145 203.019 25.3185 202.706 25.1266C202.399 24.9347 202.174 24.6825 202.032 24.3699C201.889 24.0519 201.818 23.7064 201.818 23.3336V12.9125H203.66V22.4946C203.66 22.9388 203.688 23.2623 203.743 23.4652C203.797 23.6626 203.902 23.7887 204.055 23.8435C204.214 23.8929 204.45 23.9176 204.762 23.9176L204.565 25.4145H203.924ZM210.167 25.4145C209.191 25.4145 208.374 25.2171 207.716 24.8223C207.064 24.4275 206.57 23.9066 206.236 23.2596C205.907 22.607 205.742 21.8915 205.742 21.1128C205.742 20.3616 205.896 19.6707 206.203 19.0401C206.515 18.4041 206.968 17.8969 207.56 17.5185C208.157 17.1347 208.881 16.9428 209.731 16.9428C210.477 16.9428 211.113 17.0935 211.639 17.3951C212.166 17.6967 212.566 18.1134 212.84 18.6453C213.12 19.1717 213.26 19.7749 213.26 20.4548C213.26 20.6084 213.249 20.7701 213.227 20.9401C213.21 21.1046 213.186 21.2746 213.153 21.4501H207.642C207.719 22.0477 207.886 22.522 208.144 22.873C208.401 23.2239 208.722 23.4789 209.106 23.6379C209.49 23.7914 209.904 23.8682 210.348 23.8682C210.787 23.8682 211.209 23.8161 211.615 23.7119C212.026 23.6023 212.407 23.4542 212.758 23.2678L212.898 24.7894C212.585 24.9429 212.199 25.0855 211.738 25.2171C211.277 25.3487 210.754 25.4145 210.167 25.4145ZM207.724 20.1999H211.384C211.384 19.9038 211.327 19.6268 211.212 19.3691C211.102 19.1059 210.924 18.8948 210.677 18.7358C210.436 18.5713 210.118 18.4891 209.723 18.4891C209.147 18.4891 208.698 18.6453 208.374 18.9579C208.056 19.2704 207.839 19.6844 207.724 20.1999Z" fill="#97B2E8"></path><defs><linearGradient id="paint0_linear_430_23" x1="0" y1="19.75" x2="232.6" y2="19.75" gradientUnits="userSpaceOnUse"><stop stop-color="#666666" stop-opacity="0.3"></stop><stop offset="1" stop-color="#666666" stop-opacity="0.3"></stop></linearGradient></defs></svg>