<svg xmlns="http://www.w3.org/2000/svg" width="179" height="39" viewBox="0 0 179 39" fill="none"><rect x="1.1876" y="0.5875" width="176.425" height="37.325" rx="2.9375" fill="#202127"></rect><rect x="1.1876" y="0.5875" width="176.425" height="37.325" rx="2.9375" stroke="url(#paint0_linear_430_21)" stroke-width="1.175"></rect><path d="M21.0548 24.75V13.235H22.963V24.75H21.0548ZM25.4086 24.75V16.5826H27.0454L27.2017 18.1207L26.6917 17.6354C27.0865 17.2461 27.5142 16.95 27.9748 16.7471C28.4409 16.5442 28.9481 16.4428 29.4965 16.4428C30.5931 16.4428 31.3964 16.7882 31.9064 17.4791C32.4163 18.17 32.6713 19.083 32.6713 20.218V24.75H30.8371V20.3167C30.8371 19.5162 30.6973 18.9294 30.4177 18.5566C30.138 18.1782 29.6774 17.9891 29.0359 17.9891C28.5369 17.9891 28.1119 18.1042 27.761 18.3345C27.41 18.5648 27.1359 18.8965 26.9385 19.3297L27.2428 18.3592V24.75H25.4086ZM37.4723 24.9145C36.9568 24.9145 36.5401 24.8131 36.2221 24.6102C35.904 24.4073 35.671 24.1496 35.5229 23.837C35.3749 23.519 35.3009 23.1873 35.3009 22.8418V18.0713H34.0507L34.2152 16.5826H35.3009V14.7073L37.135 14.5181V16.5826H39.0597V18.0713H37.135V21.9782C37.135 22.4333 37.1625 22.7623 37.2173 22.9652C37.2721 23.1626 37.3982 23.2887 37.5956 23.3435C37.793 23.3929 38.1111 23.4176 38.5497 23.4176H39.0432L38.887 24.9145H37.4723ZM43.9255 24.9145C43.1524 24.9145 42.5218 24.761 42.0338 24.4539C41.5458 24.1414 41.1866 23.7027 40.9563 23.1379C40.7315 22.5676 40.6191 21.8904 40.6191 21.1063V16.5826H42.4533V20.9583C42.4533 21.7534 42.5876 22.351 42.8563 22.7513C43.1305 23.1461 43.5691 23.3435 44.1723 23.3435C44.6329 23.3435 45.0304 23.2339 45.3649 23.0145C45.6994 22.7952 45.9599 22.4744 46.1463 22.0522L45.8337 22.9981V16.5826H47.6679V24.75H45.9818L45.8091 23.2613L46.2368 23.7301C46.012 24.0701 45.6939 24.3525 45.2827 24.5773C44.8714 24.8021 44.419 24.9145 43.9255 24.9145ZM49.9461 24.75V16.5826H51.7803V24.75H49.9461ZM49.9461 15.135V13.235H51.7803V15.135H49.9461ZM56.7888 24.9145C56.2734 24.9145 55.8566 24.8131 55.5386 24.6102C55.2206 24.4073 54.9875 24.1496 54.8395 23.837C54.6914 23.519 54.6174 23.1873 54.6174 22.8418V18.0713H53.3672L53.5317 16.5826H54.6174V14.7073L56.4516 14.5181V16.5826H58.3762V18.0713H56.4516V21.9782C56.4516 22.4333 56.479 22.7623 56.5338 22.9652C56.5887 23.1626 56.7148 23.2887 56.9122 23.3435C57.1096 23.3929 57.4276 23.4176 57.8663 23.4176H58.3598L58.2035 24.9145H56.7888ZM60.0179 24.75V16.5826H61.8521V24.75H60.0179ZM60.0179 15.135V13.235H61.8521V15.135H60.0179ZM67.7982 24.9145C66.9209 24.9145 66.1724 24.7226 65.5528 24.3388C64.9387 23.9549 64.4671 23.4422 64.1381 22.8007C63.8146 22.1591 63.6528 21.4518 63.6528 20.6786C63.6528 19.9055 63.8146 19.1954 64.1381 18.5484C64.4671 17.9013 64.9387 17.3859 65.5528 17.0021C66.1724 16.6127 66.9209 16.4181 67.7982 16.4181C68.6701 16.4181 69.4158 16.6127 70.0354 17.0021C70.655 17.3859 71.1266 17.9013 71.4501 18.5484C71.7791 19.1954 71.9436 19.9055 71.9436 20.6786C71.9436 21.4518 71.7791 22.1591 71.4501 22.8007C71.1266 23.4422 70.655 23.9549 70.0354 24.3388C69.4158 24.7226 68.6701 24.9145 67.7982 24.9145ZM67.7982 23.3682C68.522 23.3682 69.0786 23.1242 69.4679 22.6362C69.8627 22.1427 70.0601 21.4902 70.0601 20.6786C70.0601 19.8561 69.8627 19.1981 69.4679 18.7046C69.0786 18.2111 68.522 17.9644 67.7982 17.9644C67.0744 17.9644 66.5151 18.2111 66.1203 18.7046C65.7255 19.1981 65.5281 19.8561 65.5281 20.6786C65.5281 21.4902 65.7255 22.1427 66.1203 22.6362C66.5151 23.1242 67.0744 23.3682 67.7982 23.3682ZM73.7202 24.75V16.5826H75.357L75.5133 18.1207L75.0033 17.6354C75.3981 17.2461 75.8258 16.95 76.2864 16.7471C76.7525 16.5442 77.2597 16.4428 77.808 16.4428C78.9047 16.4428 79.708 16.7882 80.218 17.4791C80.7279 18.17 80.9829 19.083 80.9829 20.218V24.75H79.1487V20.3167C79.1487 19.5162 79.0089 18.9294 78.7292 18.5566C78.4496 18.1782 77.989 17.9891 77.3474 17.9891C76.8485 17.9891 76.4235 18.1042 76.0726 18.3345C75.7216 18.5648 75.4475 18.8965 75.2501 19.3297L75.5544 18.3592V24.75H73.7202ZM89.0154 24.9145C88.5548 24.9145 88.1408 24.8158 87.7734 24.6184C87.406 24.421 87.1154 24.1414 86.9015 23.7795C86.6932 23.4175 86.589 22.9898 86.589 22.4964C86.589 22.0358 86.6932 21.641 86.9015 21.312C87.1154 20.9775 87.395 20.7006 87.7405 20.4812C88.0914 20.2619 88.4725 20.0892 88.8838 19.9631C89.3005 19.8315 89.7172 19.7355 90.134 19.6752C90.5562 19.6149 90.94 19.582 91.2855 19.5765C91.269 18.9952 91.1347 18.595 90.8824 18.3756C90.6357 18.1508 90.2436 18.0384 89.7063 18.0384C89.3608 18.0384 89.0154 18.0878 88.6699 18.1865C88.3245 18.2852 87.9324 18.4579 87.4937 18.7046L87.3046 17.2077C87.7378 16.9664 88.1984 16.78 88.6864 16.6484C89.1799 16.5113 89.6843 16.4428 90.1998 16.4428C90.8413 16.4428 91.3787 16.5552 91.8119 16.78C92.2451 17.0048 92.5713 17.3749 92.7906 17.8904C93.0155 18.4058 93.1279 19.0939 93.1279 19.9548V21.9617C93.1279 22.362 93.1471 22.6663 93.1854 22.8747C93.2238 23.0831 93.2979 23.2256 93.4075 23.3024C93.5227 23.3792 93.6954 23.4176 93.9257 23.4176H94.1478L93.9504 24.9145H93.4404C93.0676 24.9145 92.7577 24.8706 92.511 24.7829C92.2642 24.7006 92.0614 24.5828 91.9023 24.4292C91.7488 24.2757 91.6172 24.092 91.5075 23.8782C91.2279 24.1962 90.866 24.4484 90.4218 24.6349C89.9832 24.8213 89.5144 24.9145 89.0154 24.9145ZM89.6569 23.4916C89.9146 23.4916 90.197 23.4258 90.5041 23.2942C90.8112 23.1571 91.0744 22.9652 91.2937 22.7184V20.8267C90.7673 20.8431 90.293 20.9117 89.8708 21.0323C89.4486 21.1475 89.1141 21.3202 88.8673 21.5505C88.6261 21.7753 88.5054 22.0632 88.5054 22.4141C88.5054 22.7815 88.6014 23.0529 88.7933 23.2284C88.9907 23.4038 89.2786 23.4916 89.6569 23.4916ZM95.6071 24.75V16.5826H97.1369L97.3261 17.915L96.9395 17.586C97.3179 17.2296 97.7319 16.95 98.1815 16.7471C98.6366 16.5442 99.1438 16.4428 99.7031 16.4428C100.125 16.4428 100.509 16.5086 100.855 16.6402C101.206 16.7663 101.51 16.9637 101.768 17.2324C102.031 17.501 102.242 17.8437 102.401 18.2605L101.932 18.1207C102.19 17.5942 102.571 17.183 103.075 16.8869C103.58 16.5908 104.188 16.4428 104.901 16.4428C105.631 16.4428 106.231 16.5881 106.703 16.8787C107.174 17.1638 107.522 17.5805 107.747 18.1289C107.977 18.6772 108.093 19.338 108.093 20.1111V24.75H106.25V20.2098C106.25 19.4476 106.121 18.8883 105.864 18.5319C105.606 18.17 105.178 17.9891 104.581 17.9891C104.235 17.9891 103.944 18.0466 103.709 18.1618C103.473 18.2714 103.286 18.4277 103.149 18.6306C103.012 18.8335 102.914 19.0638 102.853 19.3215C102.798 19.5792 102.771 19.8534 102.771 20.144V24.75H100.929V20.3167C100.929 19.7519 100.866 19.2996 100.739 18.9596C100.613 18.6196 100.424 18.3729 100.172 18.2194C99.9197 18.0658 99.6072 17.9891 99.2343 17.9891C98.7353 17.9891 98.3104 18.1042 97.9594 18.3345C97.614 18.5593 97.3398 18.8856 97.1369 19.3133L97.4412 18.3263V24.75H95.6071ZM114.213 24.9145C113.237 24.9145 112.42 24.7171 111.762 24.3223C111.11 23.9275 110.616 23.4066 110.282 22.7596C109.953 22.107 109.788 21.3915 109.788 20.6128C109.788 19.8616 109.942 19.1707 110.249 18.5401C110.561 17.9041 111.014 17.3969 111.606 17.0185C112.204 16.6347 112.927 16.4428 113.777 16.4428C114.523 16.4428 115.159 16.5935 115.685 16.8951C116.212 17.1967 116.612 17.6134 116.886 18.1453C117.166 18.6717 117.306 19.2749 117.306 19.9548C117.306 20.1084 117.295 20.2701 117.273 20.4401C117.256 20.6046 117.232 20.7746 117.199 20.9501H111.688C111.765 21.5477 111.932 22.022 112.19 22.373C112.448 22.7239 112.768 22.9789 113.152 23.1379C113.536 23.2914 113.95 23.3682 114.394 23.3682C114.833 23.3682 115.255 23.3161 115.661 23.2119C116.072 23.1023 116.453 22.9542 116.804 22.7678L116.944 24.2894C116.631 24.4429 116.245 24.5855 115.784 24.7171C115.324 24.8487 114.8 24.9145 114.213 24.9145ZM111.77 19.6999H115.43C115.43 19.4038 115.373 19.1268 115.258 18.8691C115.148 18.6059 114.97 18.3948 114.723 18.2358C114.482 18.0713 114.164 17.9891 113.769 17.9891C113.193 17.9891 112.744 18.1453 112.42 18.4579C112.102 18.7704 111.885 19.1844 111.77 19.6999ZM112.338 15.3406V14.148L115.513 12.3138V14.1069L112.338 15.3406ZM121.158 24.9145C120.659 24.9145 120.253 24.8185 119.941 24.6266C119.634 24.4347 119.409 24.1825 119.266 23.8699C119.124 23.5519 119.052 23.2064 119.052 22.8336V12.4125H120.895V21.9946C120.895 22.4388 120.922 22.7623 120.977 22.9652C121.032 23.1626 121.136 23.2887 121.289 23.3435C121.449 23.3929 121.684 23.4176 121.997 23.4176L121.799 24.9145H121.158ZM123.55 24.75V16.5826H125.384V24.75H123.55ZM123.55 15.135V13.235H125.384V15.135H123.55ZM131.331 24.9145C130.453 24.9145 129.705 24.7226 129.085 24.3388C128.471 23.9549 127.999 23.4422 127.67 22.8007C127.347 22.1591 127.185 21.4518 127.185 20.6786C127.185 19.9055 127.347 19.1954 127.67 18.5484C127.999 17.9013 128.471 17.3859 129.085 17.0021C129.705 16.6127 130.453 16.4181 131.331 16.4181C132.202 16.4181 132.948 16.6127 133.568 17.0021C134.187 17.3859 134.659 17.9013 134.982 18.5484C135.311 19.1954 135.476 19.9055 135.476 20.6786C135.476 21.4518 135.311 22.1591 134.982 22.8007C134.659 23.4422 134.187 23.9549 133.568 24.3388C132.948 24.7226 132.202 24.9145 131.331 24.9145ZM131.331 23.3682C132.054 23.3682 132.611 23.1242 133 22.6362C133.395 22.1427 133.592 21.4902 133.592 20.6786C133.592 19.8561 133.395 19.1981 133 18.7046C132.611 18.2111 132.054 17.9644 131.331 17.9644C130.607 17.9644 130.047 18.2111 129.653 18.7046C129.258 19.1981 129.06 19.8561 129.06 20.6786C129.06 21.4902 129.258 22.1427 129.653 22.6362C130.047 23.1242 130.607 23.3682 131.331 23.3682ZM137.253 24.75V16.5826H138.914L139.004 17.6272C139.29 17.2927 139.621 17.0075 140 16.7718C140.378 16.536 140.787 16.4181 141.225 16.4181C141.357 16.4181 141.48 16.4318 141.595 16.4592L141.447 18.3263C141.343 18.2989 141.239 18.2824 141.135 18.2769C141.031 18.266 140.924 18.2605 140.814 18.2605C140.441 18.2605 140.098 18.3455 139.786 18.5155C139.473 18.6854 139.254 18.8828 139.128 19.1076V24.75H137.253ZM146.702 24.9145C145.726 24.9145 144.909 24.7171 144.251 24.3223C143.598 23.9275 143.105 23.4066 142.77 22.7596C142.441 22.107 142.277 21.3915 142.277 20.6128C142.277 19.8616 142.43 19.1707 142.737 18.5401C143.05 17.9041 143.502 17.3969 144.095 17.0185C144.692 16.6347 145.416 16.4428 146.266 16.4428C147.012 16.4428 147.648 16.5935 148.174 16.8951C148.701 17.1967 149.101 17.6134 149.375 18.1453C149.655 18.6717 149.795 19.2749 149.795 19.9548C149.795 20.1084 149.784 20.2701 149.762 20.4401C149.745 20.6046 149.72 20.7746 149.688 20.9501H144.177C144.254 21.5477 144.421 22.022 144.679 22.373C144.936 22.7239 145.257 22.9789 145.641 23.1379C146.025 23.2914 146.439 23.3682 146.883 23.3682C147.322 23.3682 147.744 23.3161 148.15 23.2119C148.561 23.1023 148.942 22.9542 149.293 22.7678L149.433 24.2894C149.12 24.4429 148.733 24.5855 148.273 24.7171C147.812 24.8487 147.289 24.9145 146.702 24.9145ZM144.259 19.6999H147.919C147.919 19.4038 147.862 19.1268 147.746 18.8691C147.637 18.6059 147.459 18.3948 147.212 18.2358C146.971 18.0713 146.653 17.9891 146.258 17.9891C145.682 17.9891 145.232 18.1453 144.909 18.4579C144.591 18.7704 144.374 19.1844 144.259 19.6999ZM144.827 15.3406V14.148L148.001 12.3138V14.1069L144.827 15.3406ZM155.481 24.9145C154.505 24.9145 153.688 24.7171 153.03 24.3223C152.377 23.9275 151.884 23.4066 151.549 22.7596C151.22 22.107 151.056 21.3915 151.056 20.6128C151.056 19.8616 151.209 19.1707 151.516 18.5401C151.829 17.9041 152.281 17.3969 152.874 17.0185C153.471 16.6347 154.195 16.4428 155.045 16.4428C155.791 16.4428 156.427 16.5935 156.953 16.8951C157.48 17.1967 157.88 17.6134 158.154 18.1453C158.434 18.6717 158.573 19.2749 158.573 19.9548C158.573 20.1084 158.562 20.2701 158.541 20.4401C158.524 20.6046 158.499 20.7746 158.467 20.9501H152.956C153.033 21.5477 153.2 22.022 153.457 22.373C153.715 22.7239 154.036 22.9789 154.42 23.1379C154.804 23.2914 155.218 23.3682 155.662 23.3682C156.1 23.3682 156.523 23.3161 156.928 23.2119C157.34 23.1023 157.721 22.9542 158.072 22.7678L158.212 24.2894C157.899 24.4429 157.512 24.5855 157.052 24.7171C156.591 24.8487 156.068 24.9145 155.481 24.9145ZM153.038 19.6999H156.698C156.698 19.4038 156.641 19.1268 156.525 18.8691C156.416 18.6059 156.238 18.3948 155.991 18.2358C155.75 18.0713 155.431 17.9891 155.037 17.9891C154.461 17.9891 154.011 18.1453 153.688 18.4579C153.37 18.7704 153.153 19.1844 153.038 19.6999Z" fill="#97B2E8"></path><defs><linearGradient id="paint0_linear_430_21" x1="0.600098" y1="19.25" x2="178.2" y2="19.25" gradientUnits="userSpaceOnUse"><stop stop-color="#666666" stop-opacity="0.3"></stop><stop offset="1" stop-color="#666666" stop-opacity="0.3"></stop></linearGradient></defs></svg>