<svg xmlns="http://www.w3.org/2000/svg" width="238" height="39" viewBox="0 0 238 39" fill="none"><rect x="1.1876" y="0.5875" width="235.425" height="37.325" rx="2.9375" fill="#202127"></rect><rect x="1.1876" y="0.5875" width="235.425" height="37.325" rx="2.9375" stroke="url(#paint0_linear_430_29)" stroke-width="1.175"></rect><path d="M25.3629 24.9803C24.2827 24.9803 23.3889 24.7692 22.6816 24.347C21.9797 23.9248 21.4561 23.3298 21.1106 22.5622C20.7652 21.789 20.5924 20.8788 20.5924 19.8314V13.235H22.5006V19.3297C22.5006 19.8726 22.539 20.377 22.6158 20.8431C22.6926 21.3092 22.8296 21.7177 23.027 22.0687C23.2299 22.4196 23.5205 22.6937 23.8989 22.8912C24.2772 23.0831 24.7653 23.179 25.3629 23.179C25.9661 23.179 26.4541 23.0831 26.827 22.8912C27.2053 22.6937 27.496 22.4196 27.6988 22.0687C27.9017 21.7177 28.0388 21.3092 28.1101 20.8431C28.1869 20.3716 28.2252 19.8671 28.2252 19.3297V13.235H30.1334V19.8314C30.1334 20.8788 29.9607 21.789 29.6153 22.5622C29.2698 23.3298 28.7434 23.9248 28.0361 24.347C27.3342 24.7692 26.4432 24.9803 25.3629 24.9803ZM32.323 24.75V16.5826H33.9597L34.116 18.1207L33.6061 17.6354C34.0009 17.2461 34.4286 16.95 34.8892 16.7471C35.3553 16.5442 35.8625 16.4428 36.4108 16.4428C37.5075 16.4428 38.3108 16.7882 38.8207 17.4791C39.3307 18.17 39.5856 19.083 39.5856 20.218V24.75H37.7515V20.3167C37.7515 19.5162 37.6116 18.9294 37.332 18.5566C37.0523 18.1782 36.5917 17.9891 35.9502 17.9891C35.4512 17.9891 35.0263 18.1042 34.6753 18.3345C34.3244 18.5648 34.0502 18.8965 33.8528 19.3297L34.1571 18.3592V24.75H32.323ZM49.4605 24.9145C48.5832 24.9145 47.8347 24.7226 47.2151 24.3388C46.601 23.9549 46.1294 23.4422 45.8004 22.8007C45.4769 22.1591 45.3151 21.4518 45.3151 20.6786C45.3151 19.9055 45.4769 19.1954 45.8004 18.5484C46.1294 17.9013 46.601 17.3859 47.2151 17.0021C47.8347 16.6127 48.5832 16.4181 49.4605 16.4181C50.3324 16.4181 51.0781 16.6127 51.6977 17.0021C52.3173 17.3859 52.7889 17.9013 53.1124 18.5484C53.4414 19.1954 53.6059 19.9055 53.6059 20.6786C53.6059 21.4518 53.4414 22.1591 53.1124 22.8007C52.7889 23.4422 52.3173 23.9549 51.6977 24.3388C51.0781 24.7226 50.3324 24.9145 49.4605 24.9145ZM49.4605 23.3682C50.1843 23.3682 50.7409 23.1242 51.1302 22.6362C51.525 22.1427 51.7224 21.4902 51.7224 20.6786C51.7224 19.8561 51.525 19.1981 51.1302 18.7046C50.7409 18.2111 50.1843 17.9644 49.4605 17.9644C48.7367 17.9644 48.1774 18.2111 47.7826 18.7046C47.3878 19.1981 47.1904 19.8561 47.1904 20.6786C47.1904 21.4902 47.3878 22.1427 47.7826 22.6362C48.1774 23.1242 48.7367 23.3682 49.4605 23.3682ZM55.3825 28.7309V16.5826H56.8466L57.2003 18.1207L56.6574 17.8821C57.0248 17.4435 57.4388 17.0953 57.8994 16.8375C58.3655 16.5744 58.933 16.4428 59.602 16.4428C60.3861 16.4428 61.0468 16.6347 61.5842 17.0185C62.127 17.4023 62.5383 17.915 62.8179 18.5566C63.0976 19.1981 63.2374 19.9055 63.2374 20.6786C63.2374 21.4518 63.1003 22.1591 62.8262 22.8007C62.552 23.4422 62.1462 23.9549 61.6089 24.3388C61.0715 24.7226 60.4025 24.9145 59.602 24.9145C58.9604 24.9145 58.4176 24.8103 57.9734 24.602C57.5347 24.3936 57.1427 24.0701 56.7972 23.6314L57.2167 23.2613V28.7309H55.3825ZM59.3059 23.3682C59.9529 23.3682 60.4574 23.1242 60.8193 22.6362C61.1812 22.1427 61.3621 21.4902 61.3621 20.6786C61.3621 19.8616 61.1812 19.2091 60.8193 18.7211C60.4574 18.2331 59.9529 17.9891 59.3059 17.9891C58.8453 17.9891 58.4505 18.0987 58.1215 18.318C57.7979 18.5319 57.5512 18.839 57.3812 19.2393C57.2112 19.6395 57.1262 20.1193 57.1262 20.6786C57.1262 21.2489 57.2112 21.7342 57.3812 22.1345C57.5512 22.5347 57.7979 22.8418 58.1215 23.0556C58.4505 23.264 58.8453 23.3682 59.3059 23.3682ZM67.655 24.9145C67.1396 24.9145 66.7228 24.8131 66.4048 24.6102C66.0868 24.4073 65.8537 24.1496 65.7057 23.837C65.5576 23.519 65.4836 23.1873 65.4836 22.8418V18.0713H64.2334L64.3979 16.5826H65.4836V14.7073L67.3178 14.5181V16.5826H69.2424V18.0713H67.3178V21.9782C67.3178 22.4333 67.3452 22.7623 67.4 22.9652C67.4549 23.1626 67.581 23.2887 67.7784 23.3435C67.9758 23.3929 68.2938 23.4176 68.7325 23.4176H69.226L69.0697 24.9145H67.655ZM70.8841 24.75V16.5826H72.7183V24.75H70.8841ZM70.8841 15.135V13.235H72.7183V15.135H70.8841ZM75.0043 24.75V16.5826H76.5341L76.7233 17.915L76.3367 17.586C76.7151 17.2296 77.1291 16.95 77.5787 16.7471C78.0338 16.5442 78.541 16.4428 79.1003 16.4428C79.5226 16.4428 79.9064 16.5086 80.2518 16.6402C80.6028 16.7663 80.9071 16.9637 81.1648 17.2324C81.428 17.501 81.6391 17.8437 81.7981 18.2605L81.3293 18.1207C81.587 17.5942 81.9681 17.183 82.4726 16.8869C82.9771 16.5908 83.5857 16.4428 84.2985 16.4428C85.0278 16.4428 85.6282 16.5881 86.0998 16.8787C86.5714 17.1638 86.9196 17.5805 87.1444 18.1289C87.3747 18.6772 87.4898 19.338 87.4898 20.1111V24.75H85.6474V20.2098C85.6474 19.4476 85.5186 18.8883 85.2609 18.5319C85.0031 18.17 84.5754 17.9891 83.9778 17.9891C83.6323 17.9891 83.3417 18.0466 83.1059 18.1618C82.8701 18.2714 82.6837 18.4277 82.5466 18.6306C82.4095 18.8335 82.3108 19.0638 82.2505 19.3215C82.1957 19.5792 82.1683 19.8534 82.1683 20.144V24.75H80.3259V20.3167C80.3259 19.7519 80.2628 19.2996 80.1367 18.9596C80.0106 18.6196 79.8214 18.3729 79.5692 18.2194C79.3169 18.0658 79.0044 17.9891 78.6315 17.9891C78.1325 17.9891 77.7076 18.1042 77.3566 18.3345C77.0112 18.5593 76.737 18.8856 76.5341 19.3133L76.8385 18.3263V24.75H75.0043ZM89.6788 24.75V16.5826H91.513V24.75H89.6788ZM89.6788 15.135V13.235H91.513V15.135H89.6788ZM96.1185 24.9145C95.5153 24.9145 94.9889 24.8514 94.5393 24.7253C94.0897 24.5937 93.6921 24.4429 93.3467 24.273L93.5276 22.6362C93.8566 22.85 94.2322 23.0419 94.6545 23.2119C95.0767 23.3764 95.5428 23.4587 96.0527 23.4587C96.5023 23.4587 96.845 23.3874 97.0808 23.2448C97.3166 23.0968 97.4345 22.872 97.4345 22.5704C97.4345 22.3346 97.366 22.1427 97.2289 21.9946C97.0918 21.8411 96.9054 21.7122 96.6696 21.608C96.4393 21.4984 96.1788 21.3942 95.8882 21.2955C95.4331 21.142 95.0218 20.9692 94.6545 20.7773C94.2871 20.5799 93.9937 20.3277 93.7744 20.0206C93.5605 19.7136 93.4536 19.316 93.4536 18.828C93.4536 18.3784 93.5688 17.9726 93.7991 17.6107C94.0294 17.2433 94.3693 16.9527 94.819 16.7389C95.2686 16.525 95.8279 16.4181 96.4969 16.4181C97.0233 16.4181 97.4784 16.4757 97.8622 16.5908C98.2515 16.706 98.6025 16.8485 98.915 17.0185L98.7341 18.6224C98.4105 18.3866 98.0733 18.1919 97.7224 18.0384C97.3714 17.8794 96.9739 17.7999 96.5298 17.7999C96.135 17.7999 95.8224 17.8766 95.5921 18.0302C95.3673 18.1837 95.2549 18.4113 95.2549 18.7129C95.2549 19.0528 95.3974 19.3023 95.6826 19.4613C95.9677 19.6203 96.4119 19.8095 97.015 20.0289C97.3331 20.144 97.6292 20.2701 97.9033 20.4072C98.1775 20.5443 98.4188 20.706 98.6271 20.8925C98.8355 21.0789 98.9973 21.301 99.1124 21.5587C99.2276 21.8164 99.2851 22.1235 99.2851 22.4799C99.2851 22.9405 99.1755 23.3545 98.9561 23.7219C98.7368 24.0893 98.3941 24.3799 97.928 24.5937C97.4619 24.8076 96.8588 24.9145 96.1185 24.9145ZM101.036 24.75V16.5826H102.566L102.755 17.915L102.368 17.586C102.747 17.2296 103.161 16.95 103.61 16.7471C104.065 16.5442 104.573 16.4428 105.132 16.4428C105.554 16.4428 105.938 16.5086 106.283 16.6402C106.634 16.7663 106.939 16.9637 107.196 17.2324C107.459 17.501 107.671 17.8437 107.83 18.2605L107.361 18.1207C107.619 17.5942 108 17.183 108.504 16.8869C109.009 16.5908 109.617 16.4428 110.33 16.4428C111.059 16.4428 111.66 16.5881 112.131 16.8787C112.603 17.1638 112.951 17.5805 113.176 18.1289C113.406 18.6772 113.521 19.338 113.521 20.1111V24.75H111.679V20.2098C111.679 19.4476 111.55 18.8883 111.292 18.5319C111.035 18.17 110.607 17.9891 110.009 17.9891C109.664 17.9891 109.373 18.0466 109.137 18.1618C108.902 18.2714 108.715 18.4277 108.578 18.6306C108.441 18.8335 108.342 19.0638 108.282 19.3215C108.227 19.5792 108.2 19.8534 108.2 20.144V24.75H106.357V20.3167C106.357 19.7519 106.294 19.2996 106.168 18.9596C106.042 18.6196 105.853 18.3729 105.601 18.2194C105.348 18.0658 105.036 17.9891 104.663 17.9891C104.164 17.9891 103.739 18.1042 103.388 18.3345C103.043 18.5593 102.769 18.8856 102.566 19.3133L102.87 18.3263V24.75H101.036ZM119.642 24.9145C118.666 24.9145 117.849 24.7171 117.191 24.3223C116.538 23.9275 116.045 23.4066 115.71 22.7596C115.381 22.107 115.217 21.3915 115.217 20.6128C115.217 19.8616 115.37 19.1707 115.677 18.5401C115.99 17.9041 116.442 17.3969 117.035 17.0185C117.632 16.6347 118.356 16.4428 119.206 16.4428C119.952 16.4428 120.588 16.5935 121.114 16.8951C121.641 17.1967 122.041 17.6134 122.315 18.1453C122.595 18.6717 122.734 19.2749 122.734 19.9548C122.734 20.1084 122.724 20.2701 122.702 20.4401C122.685 20.6046 122.66 20.7746 122.628 20.9501H117.117C117.194 21.5477 117.361 22.022 117.619 22.373C117.876 22.7239 118.197 22.9789 118.581 23.1379C118.965 23.2914 119.379 23.3682 119.823 23.3682C120.261 23.3682 120.684 23.3161 121.089 23.2119C121.501 23.1023 121.882 22.9542 122.233 22.7678L122.373 24.2894C122.06 24.4429 121.673 24.5855 121.213 24.7171C120.752 24.8487 120.229 24.9145 119.642 24.9145ZM117.199 19.6999H120.859C120.859 19.4038 120.802 19.1268 120.686 18.8691C120.577 18.6059 120.399 18.3948 120.152 18.2358C119.911 18.0713 119.593 17.9891 119.198 17.9891C118.622 17.9891 118.172 18.1453 117.849 18.4579C117.531 18.7704 117.314 19.1844 117.199 19.6999ZM128.513 24.75V16.5826H130.347V24.75H128.513ZM128.513 15.135V13.235H130.347V15.135H128.513ZM132.633 24.75V16.5826H134.27L134.426 18.1207L133.916 17.6354C134.311 17.2461 134.739 16.95 135.199 16.7471C135.666 16.5442 136.173 16.4428 136.721 16.4428C137.818 16.4428 138.621 16.7882 139.131 17.4791C139.641 18.17 139.896 19.083 139.896 20.218V24.75H138.062V20.3167C138.062 19.5162 137.922 18.9294 137.642 18.5566C137.363 18.1782 136.902 17.9891 136.26 17.9891C135.762 17.9891 135.337 18.1042 134.986 18.3345C134.635 18.5648 134.361 18.8965 134.163 19.3297L134.467 18.3592V24.75H132.633ZM146.018 24.9145C145.042 24.9145 144.225 24.7171 143.567 24.3223C142.915 23.9275 142.421 23.4066 142.087 22.7596C141.758 22.107 141.593 21.3915 141.593 20.6128C141.593 19.8616 141.747 19.1707 142.054 18.5401C142.367 17.9041 142.819 17.3969 143.411 17.0185C144.009 16.6347 144.733 16.4428 145.582 16.4428C146.328 16.4428 146.964 16.5935 147.491 16.8951C148.017 17.1967 148.417 17.6134 148.692 18.1453C148.971 18.6717 149.111 19.2749 149.111 19.9548C149.111 20.1084 149.1 20.2701 149.078 20.4401C149.062 20.6046 149.037 20.7746 149.004 20.9501H143.493C143.57 21.5477 143.737 22.022 143.995 22.373C144.253 22.7239 144.574 22.9789 144.957 23.1379C145.341 23.2914 145.755 23.3682 146.199 23.3682C146.638 23.3682 147.06 23.3161 147.466 23.2119C147.877 23.1023 148.258 22.9542 148.609 22.7678L148.749 24.2894C148.437 24.4429 148.05 24.5855 147.589 24.7171C147.129 24.8487 146.605 24.9145 146.018 24.9145ZM143.576 19.6999H147.236C147.236 19.4038 147.178 19.1268 147.063 18.8691C146.953 18.6059 146.775 18.3948 146.528 18.2358C146.287 18.0713 145.969 17.9891 145.574 17.9891C144.999 17.9891 144.549 18.1453 144.225 18.4579C143.907 18.7704 143.691 19.1844 143.576 19.6999ZM144.143 15.3406V14.148L147.318 12.3138V14.1069L144.143 15.3406ZM155.028 24.9145C154.424 24.9145 153.882 24.8021 153.399 24.5773C152.922 24.347 152.519 24.0235 152.19 23.6067L152.708 23.2366L152.544 24.75H150.849V12.4125H152.683V18.0302L152.256 17.7423C152.59 17.3475 152.991 17.0322 153.457 16.7964C153.928 16.5606 154.452 16.4428 155.028 16.4428C155.817 16.4428 156.483 16.6374 157.026 17.0267C157.575 17.416 157.991 17.9342 158.276 18.5812C158.562 19.2228 158.704 19.9219 158.704 20.6786C158.704 21.4518 158.556 22.1591 158.26 22.8007C157.964 23.4422 157.542 23.9549 156.993 24.3388C156.445 24.7226 155.79 24.9145 155.028 24.9145ZM154.773 23.3682C155.206 23.3682 155.576 23.2531 155.883 23.0228C156.19 22.787 156.423 22.4662 156.582 22.0604C156.747 21.6547 156.829 21.1941 156.829 20.6786C156.829 20.1522 156.747 19.6889 156.582 19.2886C156.423 18.8828 156.19 18.5648 155.883 18.3345C155.576 18.1042 155.206 17.9891 154.773 17.9891C154.318 17.9891 153.928 18.0987 153.605 18.318C153.281 18.5319 153.032 18.839 152.856 19.2393C152.681 19.6395 152.593 20.1193 152.593 20.6786C152.593 21.2489 152.681 21.7342 152.856 22.1345C153.032 22.5347 153.281 22.8418 153.605 23.0556C153.928 23.264 154.318 23.3682 154.773 23.3682ZM160.496 24.75V16.5826H162.158L162.248 17.6272C162.533 17.2927 162.865 17.0075 163.243 16.7718C163.622 16.536 164.03 16.4181 164.469 16.4181C164.6 16.4181 164.724 16.4318 164.839 16.4592L164.691 18.3263C164.587 18.2989 164.482 18.2824 164.378 18.2769C164.274 18.266 164.167 18.2605 164.058 18.2605C163.685 18.2605 163.342 18.3455 163.029 18.5155C162.717 18.6854 162.498 18.8828 162.371 19.1076V24.75H160.496ZM167.896 24.9145C167.435 24.9145 167.021 24.8158 166.654 24.6184C166.287 24.421 165.996 24.1414 165.782 23.7795C165.574 23.4175 165.47 22.9898 165.47 22.4964C165.47 22.0358 165.574 21.641 165.782 21.312C165.996 20.9775 166.276 20.7006 166.621 20.4812C166.972 20.2619 167.353 20.0892 167.764 19.9631C168.181 19.8315 168.598 19.7355 169.014 19.6752C169.437 19.6149 169.821 19.582 170.166 19.5765C170.15 18.9952 170.015 18.595 169.763 18.3756C169.516 18.1508 169.124 18.0384 168.587 18.0384C168.241 18.0384 167.896 18.0878 167.55 18.1865C167.205 18.2852 166.813 18.4579 166.374 18.7046L166.185 17.2077C166.618 16.9664 167.079 16.78 167.567 16.6484C168.06 16.5113 168.565 16.4428 169.08 16.4428C169.722 16.4428 170.259 16.5552 170.692 16.78C171.126 17.0048 171.452 17.3749 171.671 17.8904C171.896 18.4058 172.008 19.0939 172.008 19.9548V21.9617C172.008 22.362 172.028 22.6663 172.066 22.8747C172.104 23.0831 172.178 23.2256 172.288 23.3024C172.403 23.3792 172.576 23.4176 172.806 23.4176H173.028L172.831 24.9145H172.321C171.948 24.9145 171.638 24.8706 171.392 24.7829C171.145 24.7006 170.942 24.5828 170.783 24.4292C170.629 24.2757 170.498 24.092 170.388 23.8782C170.108 24.1962 169.747 24.4484 169.302 24.6349C168.864 24.8213 168.395 24.9145 167.896 24.9145ZM168.537 23.4916C168.795 23.4916 169.078 23.4258 169.385 23.2942C169.692 23.1571 169.955 22.9652 170.174 22.7184V20.8267C169.648 20.8431 169.174 20.9117 168.751 21.0323C168.329 21.1475 167.995 21.3202 167.748 21.5505C167.507 21.7753 167.386 22.0632 167.386 22.4141C167.386 22.7815 167.482 23.0529 167.674 23.2284C167.871 23.4038 168.159 23.4916 168.537 23.4916ZM174.488 24.75V16.5826H176.124L176.281 18.1207L175.771 17.6354C176.165 17.2461 176.593 16.95 177.054 16.7471C177.52 16.5442 178.027 16.4428 178.575 16.4428C179.672 16.4428 180.475 16.7882 180.985 17.4791C181.495 18.17 181.75 19.083 181.75 20.218V24.75H179.916V20.3167C179.916 19.5162 179.776 18.9294 179.497 18.5566C179.217 18.1782 178.756 17.9891 178.115 17.9891C177.616 17.9891 177.191 18.1042 176.84 18.3345C176.489 18.5648 176.215 18.8965 176.017 19.3297L176.322 18.3592V24.75H174.488ZM186.039 24.9145C185.54 24.9145 185.134 24.8185 184.821 24.6266C184.514 24.4347 184.289 24.1825 184.147 23.8699C184.004 23.5519 183.933 23.2064 183.933 22.8336V12.4125H185.775V21.9946C185.775 22.4388 185.803 22.7623 185.858 22.9652C185.912 23.1626 186.017 23.2887 186.17 23.3435C186.329 23.3929 186.565 23.4176 186.878 23.4176L186.68 24.9145H186.039ZM190.249 24.9145C189.788 24.9145 189.374 24.8158 189.007 24.6184C188.639 24.421 188.349 24.1414 188.135 23.7795C187.926 23.4175 187.822 22.9898 187.822 22.4964C187.822 22.0358 187.926 21.641 188.135 21.312C188.349 20.9775 188.628 20.7006 188.974 20.4812C189.325 20.2619 189.706 20.0892 190.117 19.9631C190.534 19.8315 190.95 19.7355 191.367 19.6752C191.789 19.6149 192.173 19.582 192.519 19.5765C192.502 18.9952 192.368 18.595 192.116 18.3756C191.869 18.1508 191.477 18.0384 190.94 18.0384C190.594 18.0384 190.249 18.0878 189.903 18.1865C189.558 18.2852 189.166 18.4579 188.727 18.7046L188.538 17.2077C188.971 16.9664 189.432 16.78 189.92 16.6484C190.413 16.5113 190.918 16.4428 191.433 16.4428C192.075 16.4428 192.612 16.5552 193.045 16.78C193.478 17.0048 193.805 17.3749 194.024 17.8904C194.249 18.4058 194.361 19.0939 194.361 19.9548V21.9617C194.361 22.362 194.38 22.6663 194.419 22.8747C194.457 23.0831 194.531 23.2256 194.641 23.3024C194.756 23.3792 194.929 23.4176 195.159 23.4176H195.381L195.184 24.9145H194.674C194.301 24.9145 193.991 24.8706 193.744 24.7829C193.497 24.7006 193.295 24.5828 193.136 24.4292C192.982 24.2757 192.85 24.092 192.741 23.8782C192.461 24.1962 192.099 24.4484 191.655 24.6349C191.216 24.8213 190.748 24.9145 190.249 24.9145ZM190.89 23.4916C191.148 23.4916 191.43 23.4258 191.737 23.2942C192.044 23.1571 192.308 22.9652 192.527 22.7184V20.8267C192.001 20.8431 191.526 20.9117 191.104 21.0323C190.682 21.1475 190.347 21.3202 190.101 21.5505C189.859 21.7753 189.739 22.0632 189.739 22.4141C189.739 22.7815 189.835 23.0529 190.027 23.2284C190.224 23.4038 190.512 23.4916 190.89 23.4916ZM201.002 24.9145C200.399 24.9145 199.856 24.8021 199.374 24.5773C198.897 24.347 198.494 24.0235 198.165 23.6067L198.683 23.2366L198.518 24.75H196.824V12.4125H198.658V18.0302L198.23 17.7423C198.565 17.3475 198.965 17.0322 199.431 16.7964C199.903 16.5606 200.426 16.4428 201.002 16.4428C201.792 16.4428 202.458 16.6374 203.001 17.0267C203.549 17.416 203.966 17.9342 204.251 18.5812C204.536 19.2228 204.679 19.9219 204.679 20.6786C204.679 21.4518 204.531 22.1591 204.235 22.8007C203.938 23.4422 203.516 23.9549 202.968 24.3388C202.42 24.7226 201.764 24.9145 201.002 24.9145ZM200.747 23.3682C201.18 23.3682 201.55 23.2531 201.858 23.0228C202.165 22.787 202.398 22.4662 202.557 22.0604C202.721 21.6547 202.803 21.1941 202.803 20.6786C202.803 20.1522 202.721 19.6889 202.557 19.2886C202.398 18.8828 202.165 18.5648 201.858 18.3345C201.55 18.1042 201.18 17.9891 200.747 17.9891C200.292 17.9891 199.903 18.0987 199.579 18.318C199.256 18.5319 199.006 18.839 198.831 19.2393C198.655 19.6395 198.568 20.1193 198.568 20.6786C198.568 21.2489 198.655 21.7342 198.831 22.1345C199.006 22.5347 199.256 22.8418 199.579 23.0556C199.903 23.264 200.292 23.3682 200.747 23.3682ZM208.568 24.9145C208.069 24.9145 207.663 24.8185 207.351 24.6266C207.044 24.4347 206.819 24.1825 206.676 23.8699C206.534 23.5519 206.462 23.2064 206.462 22.8336V12.4125H208.305V21.9946C208.305 22.4388 208.332 22.7623 208.387 22.9652C208.442 23.1626 208.546 23.2887 208.7 23.3435C208.859 23.3929 209.094 23.4176 209.407 23.4176L209.21 24.9145H208.568ZM214.812 24.9145C213.836 24.9145 213.018 24.7171 212.36 24.3223C211.708 23.9275 211.214 23.4066 210.88 22.7596C210.551 22.107 210.386 21.3915 210.386 20.6128C210.386 19.8616 210.54 19.1707 210.847 18.5401C211.16 17.9041 211.612 17.3969 212.204 17.0185C212.802 16.6347 213.526 16.4428 214.376 16.4428C215.121 16.4428 215.757 16.5935 216.284 16.8951C216.81 17.1967 217.21 17.6134 217.485 18.1453C217.764 18.6717 217.904 19.2749 217.904 19.9548C217.904 20.1084 217.893 20.2701 217.871 20.4401C217.855 20.6046 217.83 20.7746 217.797 20.9501H212.286C212.363 21.5477 212.53 22.022 212.788 22.373C213.046 22.7239 213.367 22.9789 213.751 23.1379C214.134 23.2914 214.548 23.3682 214.992 23.3682C215.431 23.3682 215.853 23.3161 216.259 23.2119C216.67 23.1023 217.051 22.9542 217.402 22.7678L217.542 24.2894C217.23 24.4429 216.843 24.5855 216.383 24.7171C215.922 24.8487 215.398 24.9145 214.812 24.9145ZM212.369 19.6999H216.029C216.029 19.4038 215.971 19.1268 215.856 18.8691C215.746 18.6059 215.568 18.3948 215.321 18.2358C215.08 18.0713 214.762 17.9891 214.367 17.9891C213.792 17.9891 213.342 18.1453 213.018 18.4579C212.7 18.7704 212.484 19.1844 212.369 19.6999Z" fill="#97B2E8"></path><defs><linearGradient id="paint0_linear_430_29" x1="0.600098" y1="19.25" x2="237.2" y2="19.25" gradientUnits="userSpaceOnUse"><stop stop-color="#666666" stop-opacity="0.3"></stop><stop offset="1" stop-color="#666666" stop-opacity="0.3"></stop></linearGradient></defs></svg>