<svg xmlns="http://www.w3.org/2000/svg" width="229" height="39" viewBox="0 0 229 39" fill="none"><rect x="0.5875" y="0.5875" width="227.425" height="37.325" rx="2.9375" fill="#202127"></rect><rect x="0.5875" y="0.5875" width="227.425" height="37.325" rx="2.9375" stroke="url(#paint0_linear_430_27)" stroke-width="1.175"></rect><path d="M22.5065 24.75V15.0445H19.2165V13.235H27.7129V15.0445H24.4147V24.75H22.5065ZM27.8678 24.75V16.5826H29.5292L29.6197 17.6272C29.9048 17.2927 30.2366 17.0075 30.6149 16.7718C30.9933 16.536 31.4018 16.4181 31.8404 16.4181C31.972 16.4181 32.0954 16.4318 32.2106 16.4592L32.0625 18.3263C31.9583 18.2989 31.8542 18.2824 31.75 18.2769C31.6458 18.266 31.5389 18.2605 31.4292 18.2605C31.0563 18.2605 30.7136 18.3455 30.4011 18.5155C30.0885 18.6854 29.8692 18.8828 29.7431 19.1076V24.75H27.8678ZM37.0457 24.9145C36.1684 24.9145 35.4199 24.7226 34.8003 24.3388C34.1862 23.9549 33.7146 23.4422 33.3856 22.8007C33.0621 22.1591 32.9003 21.4518 32.9003 20.6786C32.9003 19.9055 33.0621 19.1954 33.3856 18.5484C33.7146 17.9013 34.1862 17.3859 34.8003 17.0021C35.4199 16.6127 36.1684 16.4181 37.0457 16.4181C37.9176 16.4181 38.6633 16.6127 39.2829 17.0021C39.9025 17.3859 40.3741 17.9013 40.6976 18.5484C41.0266 19.1954 41.1911 19.9055 41.1911 20.6786C41.1911 21.4518 41.0266 22.1591 40.6976 22.8007C40.3741 23.4422 39.9025 23.9549 39.2829 24.3388C38.6633 24.7226 37.9176 24.9145 37.0457 24.9145ZM37.0457 23.3682C37.7695 23.3682 38.3261 23.1242 38.7154 22.6362C39.1102 22.1427 39.3076 21.4902 39.3076 20.6786C39.3076 19.8561 39.1102 19.1981 38.7154 18.7046C38.3261 18.2111 37.7695 17.9644 37.0457 17.9644C36.3219 17.9644 35.7626 18.2111 35.3678 18.7046C34.973 19.1981 34.7756 19.8561 34.7756 20.6786C34.7756 21.4902 34.973 22.1427 35.3678 22.6362C35.7626 23.1242 36.3219 23.3682 37.0457 23.3682ZM46.1919 24.9145C45.4188 24.9145 44.7882 24.761 44.3002 24.4539C43.8121 24.1414 43.453 23.7027 43.2227 23.1379C42.9979 22.5676 42.8855 21.8904 42.8855 21.1063V16.5826H44.7196V20.9583C44.7196 21.7534 44.854 22.351 45.1227 22.7513C45.3968 23.1461 45.8355 23.3435 46.4387 23.3435C46.8993 23.3435 47.2968 23.2339 47.6313 23.0145C47.9658 22.7952 48.2262 22.4744 48.4127 22.0522L48.1001 22.9981V16.5826H49.9343V24.75H48.2482L48.0754 23.2613L48.5031 23.7301C48.2783 24.0701 47.9603 24.3525 47.549 24.5773C47.1378 24.8021 46.6854 24.9145 46.1919 24.9145ZM54.4579 24.75L51.3242 16.5826H53.1995L55.3133 22.5457L57.4107 16.5826H59.2942L56.1687 24.75H54.4579ZM64.4571 24.9145C63.481 24.9145 62.664 24.7171 62.006 24.3223C61.3535 23.9275 60.86 23.4066 60.5255 22.7596C60.1965 22.107 60.032 21.3915 60.032 20.6128C60.032 19.8616 60.1855 19.1707 60.4926 18.5401C60.8052 17.9041 61.2575 17.3969 61.8497 17.0185C62.4474 16.6347 63.1712 16.4428 64.0211 16.4428C64.7669 16.4428 65.4029 16.5935 65.9293 16.8951C66.4557 17.1967 66.856 17.6134 67.1302 18.1453C67.4098 18.6717 67.5497 19.2749 67.5497 19.9548C67.5497 20.1084 67.5387 20.2701 67.5168 20.4401C67.5003 20.6046 67.4756 20.7746 67.4427 20.9501H61.932C62.0088 21.5477 62.176 22.022 62.4337 22.373C62.6914 22.7239 63.0122 22.9789 63.396 23.1379C63.7799 23.2914 64.1939 23.3682 64.638 23.3682C65.0767 23.3682 65.4989 23.3161 65.9047 23.2119C66.3159 23.1023 66.697 22.9542 67.0479 22.7678L67.1878 24.2894C66.8752 24.4429 66.4886 24.5855 66.028 24.7171C65.5674 24.8487 65.0438 24.9145 64.4571 24.9145ZM62.0142 19.6999H65.6744C65.6744 19.4038 65.6168 19.1268 65.5016 18.8691C65.392 18.6059 65.2138 18.3948 64.967 18.2358C64.7257 18.0713 64.4077 17.9891 64.0129 17.9891C63.4372 17.9891 62.9875 18.1453 62.664 18.4579C62.346 18.7704 62.1294 19.1844 62.0142 19.6999ZM68.6546 24.75L73.3018 17.4133L73.5156 18.1536H68.9919V16.5826H75.761L71.1139 23.9193L70.8507 23.179H75.7528V24.75H68.6546ZM83.6618 24.75L80.5281 16.5826H82.4034L84.5172 22.5457L86.6146 16.5826H88.4981L85.3726 24.75H83.6618ZM93.3895 24.9145C92.5122 24.9145 91.7637 24.7226 91.1441 24.3388C90.53 23.9549 90.0584 23.4422 89.7294 22.8007C89.4059 22.1591 89.2441 21.4518 89.2441 20.6786C89.2441 19.9055 89.4059 19.1954 89.7294 18.5484C90.0584 17.9013 90.53 17.3859 91.1441 17.0021C91.7637 16.6127 92.5122 16.4181 93.3895 16.4181C94.2614 16.4181 95.0071 16.6127 95.6267 17.0021C96.2463 17.3859 96.7179 17.9013 97.0414 18.5484C97.3704 19.1954 97.5349 19.9055 97.5349 20.6786C97.5349 21.4518 97.3704 22.1591 97.0414 22.8007C96.7179 23.4422 96.2463 23.9549 95.6267 24.3388C95.0071 24.7226 94.2614 24.9145 93.3895 24.9145ZM93.3895 23.3682C94.1133 23.3682 94.6699 23.1242 95.0592 22.6362C95.454 22.1427 95.6514 21.4902 95.6514 20.6786C95.6514 19.8561 95.454 19.1981 95.0592 18.7046C94.6699 18.2111 94.1133 17.9644 93.3895 17.9644C92.6657 17.9644 92.1064 18.2111 91.7116 18.7046C91.3168 19.1981 91.1194 19.8561 91.1194 20.6786C91.1194 21.4902 91.3168 22.1427 91.7116 22.6362C92.1064 23.1242 92.6657 23.3682 93.3895 23.3682ZM101.938 24.9145C101.422 24.9145 101.005 24.8131 100.687 24.6102C100.369 24.4073 100.136 24.1496 99.9883 23.837C99.8402 23.519 99.7662 23.1873 99.7662 22.8418V18.0713H98.516L98.6805 16.5826H99.7662V14.7073L101.6 14.5181V16.5826H103.525V18.0713H101.6V21.9782C101.6 22.4333 101.628 22.7623 101.683 22.9652C101.737 23.1626 101.864 23.2887 102.061 23.3435C102.258 23.3929 102.576 23.4176 103.015 23.4176H103.509L103.352 24.9145H101.938ZM105.167 24.75V16.5826H106.828L106.919 17.6272C107.204 17.2927 107.536 17.0075 107.914 16.7718C108.292 16.536 108.701 16.4181 109.139 16.4181C109.271 16.4181 109.394 16.4318 109.51 16.4592L109.361 18.3263C109.257 18.2989 109.153 18.2824 109.049 18.2769C108.945 18.266 108.838 18.2605 108.728 18.2605C108.355 18.2605 108.013 18.3455 107.7 18.5155C107.387 18.6854 107.168 18.8828 107.042 19.1076V24.75H105.167ZM114.616 24.9145C113.64 24.9145 112.823 24.7171 112.165 24.3223C111.512 23.9275 111.019 23.4066 110.685 22.7596C110.356 22.107 110.191 21.3915 110.191 20.6128C110.191 19.8616 110.345 19.1707 110.652 18.5401C110.964 17.9041 111.417 17.3969 112.009 17.0185C112.606 16.6347 113.33 16.4428 114.18 16.4428C114.926 16.4428 115.562 16.5935 116.088 16.8951C116.615 17.1967 117.015 17.6134 117.289 18.1453C117.569 18.6717 117.709 19.2749 117.709 19.9548C117.709 20.1084 117.698 20.2701 117.676 20.4401C117.659 20.6046 117.635 20.7746 117.602 20.9501H112.091C112.168 21.5477 112.335 22.022 112.593 22.373C112.85 22.7239 113.171 22.9789 113.555 23.1379C113.939 23.2914 114.353 23.3682 114.797 23.3682C115.236 23.3682 115.658 23.3161 116.064 23.2119C116.475 23.1023 116.856 22.9542 117.207 22.7678L117.347 24.2894C117.034 24.4429 116.648 24.5855 116.187 24.7171C115.726 24.8487 115.203 24.9145 114.616 24.9145ZM112.173 19.6999H115.833C115.833 19.4038 115.776 19.1268 115.661 18.8691C115.551 18.6059 115.373 18.3948 115.126 18.2358C114.885 18.0713 114.567 17.9891 114.172 17.9891C113.596 17.9891 113.147 18.1453 112.823 18.4579C112.505 18.7704 112.288 19.1844 112.173 19.6999ZM125.807 24.9145C125.204 24.9145 124.677 24.8514 124.227 24.7253C123.778 24.5937 123.38 24.4429 123.035 24.273L123.216 22.6362C123.545 22.85 123.92 23.0419 124.343 23.2119C124.765 23.3764 125.231 23.4587 125.741 23.4587C126.191 23.4587 126.533 23.3874 126.769 23.2448C127.005 23.0968 127.123 22.872 127.123 22.5704C127.123 22.3346 127.054 22.1427 126.917 21.9946C126.78 21.8411 126.594 21.7122 126.358 21.608C126.127 21.4984 125.867 21.3942 125.576 21.2955C125.121 21.142 124.71 20.9692 124.343 20.7773C123.975 20.5799 123.682 20.3277 123.463 20.0206C123.249 19.7136 123.142 19.316 123.142 18.828C123.142 18.3784 123.257 17.9726 123.487 17.6107C123.718 17.2433 124.058 16.9527 124.507 16.7389C124.957 16.525 125.516 16.4181 126.185 16.4181C126.711 16.4181 127.167 16.4757 127.55 16.5908C127.94 16.706 128.291 16.8485 128.603 17.0185L128.422 18.6224C128.099 18.3866 127.762 18.1919 127.411 18.0384C127.06 17.8794 126.662 17.7999 126.218 17.7999C125.823 17.7999 125.511 17.8766 125.28 18.0302C125.055 18.1837 124.943 18.4113 124.943 18.7129C124.943 19.0528 125.086 19.3023 125.371 19.4613C125.656 19.6203 126.1 19.8095 126.703 20.0289C127.021 20.144 127.317 20.2701 127.592 20.4072C127.866 20.5443 128.107 20.706 128.315 20.8925C128.524 21.0789 128.685 21.301 128.801 21.5587C128.916 21.8164 128.973 22.1235 128.973 22.4799C128.973 22.9405 128.864 23.3545 128.644 23.7219C128.425 24.0893 128.082 24.3799 127.616 24.5937C127.15 24.8076 126.547 24.9145 125.807 24.9145ZM134.656 24.9145C133.679 24.9145 132.862 24.7171 132.204 24.3223C131.552 23.9275 131.058 23.4066 130.724 22.7596C130.395 22.107 130.23 21.3915 130.23 20.6128C130.23 19.8616 130.384 19.1707 130.691 18.5401C131.004 17.9041 131.456 17.3969 132.048 17.0185C132.646 16.6347 133.37 16.4428 134.22 16.4428C134.965 16.4428 135.601 16.5935 136.128 16.8951C136.654 17.1967 137.054 17.6134 137.329 18.1453C137.608 18.6717 137.748 19.2749 137.748 19.9548C137.748 20.1084 137.737 20.2701 137.715 20.4401C137.699 20.6046 137.674 20.7746 137.641 20.9501H132.13C132.207 21.5477 132.374 22.022 132.632 22.373C132.89 22.7239 133.211 22.9789 133.594 23.1379C133.978 23.2914 134.392 23.3682 134.836 23.3682C135.275 23.3682 135.697 23.3161 136.103 23.2119C136.514 23.1023 136.895 22.9542 137.246 22.7678L137.386 24.2894C137.074 24.4429 136.687 24.5855 136.226 24.7171C135.766 24.8487 135.242 24.9145 134.656 24.9145ZM132.213 19.6999H135.873C135.873 19.4038 135.815 19.1268 135.7 18.8691C135.59 18.6059 135.412 18.3948 135.165 18.2358C134.924 18.0713 134.606 17.9891 134.211 17.9891C133.636 17.9891 133.186 18.1453 132.862 18.4579C132.544 18.7704 132.328 19.1844 132.213 19.6999ZM139.503 24.75V16.5826H141.14L141.296 18.1207L140.786 17.6354C141.181 17.2461 141.608 16.95 142.069 16.7471C142.535 16.5442 143.042 16.4428 143.591 16.4428C144.687 16.4428 145.491 16.7882 146.001 17.4791C146.511 18.17 146.766 19.083 146.766 20.218V24.75H144.931V20.3167C144.931 19.5162 144.792 18.9294 144.512 18.5566C144.232 18.1782 143.772 17.9891 143.13 17.9891C142.631 17.9891 142.206 18.1042 141.855 18.3345C141.504 18.5648 141.23 18.8965 141.033 19.3297L141.337 18.3592V24.75H139.503ZM151.276 24.9145C150.673 24.9145 150.146 24.8514 149.697 24.7253C149.247 24.5937 148.85 24.4429 148.504 24.273L148.685 22.6362C149.014 22.85 149.39 23.0419 149.812 23.2119C150.234 23.3764 150.7 23.4587 151.21 23.4587C151.66 23.4587 152.002 23.3874 152.238 23.2448C152.474 23.0968 152.592 22.872 152.592 22.5704C152.592 22.3346 152.523 22.1427 152.386 21.9946C152.249 21.8411 152.063 21.7122 151.827 21.608C151.597 21.4984 151.336 21.3942 151.046 21.2955C150.591 21.142 150.179 20.9692 149.812 20.7773C149.444 20.5799 149.151 20.3277 148.932 20.0206C148.718 19.7136 148.611 19.316 148.611 18.828C148.611 18.3784 148.726 17.9726 148.956 17.6107C149.187 17.2433 149.527 16.9527 149.976 16.7389C150.426 16.525 150.985 16.4181 151.654 16.4181C152.181 16.4181 152.636 16.4757 153.02 16.5908C153.409 16.706 153.76 16.8485 154.072 17.0185L153.891 18.6224C153.568 18.3866 153.231 18.1919 152.88 18.0384C152.529 17.8794 152.131 17.7999 151.687 17.7999C151.292 17.7999 150.98 17.8766 150.75 18.0302C150.525 18.1837 150.412 18.4113 150.412 18.7129C150.412 19.0528 150.555 19.3023 150.84 19.4613C151.125 19.6203 151.569 19.8095 152.172 20.0289C152.49 20.144 152.787 20.2701 153.061 20.4072C153.335 20.5443 153.576 20.706 153.785 20.8925C153.993 21.0789 154.155 21.301 154.27 21.5587C154.385 21.8164 154.443 22.1235 154.443 22.4799C154.443 22.9405 154.333 23.3545 154.114 23.7219C153.894 24.0893 153.552 24.3799 153.085 24.5937C152.619 24.8076 152.016 24.9145 151.276 24.9145ZM162.035 24.9145C161.574 24.9145 161.16 24.8158 160.793 24.6184C160.425 24.421 160.135 24.1414 159.921 23.7795C159.713 23.4175 159.608 22.9898 159.608 22.4964C159.608 22.0358 159.713 21.641 159.921 21.312C160.135 20.9775 160.414 20.7006 160.76 20.4812C161.111 20.2619 161.492 20.0892 161.903 19.9631C162.32 19.8315 162.737 19.7355 163.153 19.6752C163.576 19.6149 163.959 19.582 164.305 19.5765C164.288 18.9952 164.154 18.595 163.902 18.3756C163.655 18.1508 163.263 18.0384 162.726 18.0384C162.38 18.0384 162.035 18.0878 161.689 18.1865C161.344 18.2852 160.952 18.4579 160.513 18.7046L160.324 17.2077C160.757 16.9664 161.218 16.78 161.706 16.6484C162.199 16.5113 162.704 16.4428 163.219 16.4428C163.861 16.4428 164.398 16.5552 164.831 16.78C165.264 17.0048 165.591 17.3749 165.81 17.8904C166.035 18.4058 166.147 19.0939 166.147 19.9548V21.9617C166.147 22.362 166.166 22.6663 166.205 22.8747C166.243 23.0831 166.317 23.2256 166.427 23.3024C166.542 23.3792 166.715 23.4176 166.945 23.4176H167.167L166.97 24.9145H166.46C166.087 24.9145 165.777 24.8706 165.53 24.7829C165.284 24.7006 165.081 24.5828 164.922 24.4292C164.768 24.2757 164.637 24.092 164.527 23.8782C164.247 24.1962 163.885 24.4484 163.441 24.6349C163.003 24.8213 162.534 24.9145 162.035 24.9145ZM162.676 23.4916C162.934 23.4916 163.216 23.4258 163.523 23.2942C163.831 23.1571 164.094 22.9652 164.313 22.7184V20.8267C163.787 20.8431 163.312 20.9117 162.89 21.0323C162.468 21.1475 162.133 21.3202 161.887 21.5505C161.645 21.7753 161.525 22.0632 161.525 22.4141C161.525 22.7815 161.621 23.0529 161.813 23.2284C162.01 23.4038 162.298 23.4916 162.676 23.4916ZM164.798 15.3406L161.623 14.1069V12.3138L164.798 14.148V15.3406ZM174.748 24.9145C174.249 24.9145 173.843 24.8185 173.53 24.6266C173.223 24.4347 172.998 24.1825 172.856 23.8699C172.713 23.5519 172.642 23.2064 172.642 22.8336V12.4125H174.484V21.9946C174.484 22.4388 174.512 22.7623 174.567 22.9652C174.621 23.1626 174.726 23.2887 174.879 23.3435C175.038 23.3929 175.274 23.4176 175.587 23.4176L175.389 24.9145H174.748ZM178.958 24.9145C178.497 24.9145 178.083 24.8158 177.716 24.6184C177.348 24.421 177.058 24.1414 176.844 23.7795C176.635 23.4175 176.531 22.9898 176.531 22.4964C176.531 22.0358 176.635 21.641 176.844 21.312C177.058 20.9775 177.337 20.7006 177.683 20.4812C178.034 20.2619 178.415 20.0892 178.826 19.9631C179.243 19.8315 179.66 19.7355 180.076 19.6752C180.498 19.6149 180.882 19.582 181.228 19.5765C181.211 18.9952 181.077 18.595 180.825 18.3756C180.578 18.1508 180.186 18.0384 179.649 18.0384C179.303 18.0384 178.958 18.0878 178.612 18.1865C178.267 18.2852 177.875 18.4579 177.436 18.7046L177.247 17.2077C177.68 16.9664 178.141 16.78 178.629 16.6484C179.122 16.5113 179.627 16.4428 180.142 16.4428C180.784 16.4428 181.321 16.5552 181.754 16.78C182.187 17.0048 182.514 17.3749 182.733 17.8904C182.958 18.4058 183.07 19.0939 183.07 19.9548V21.9617C183.07 22.362 183.089 22.6663 183.128 22.8747C183.166 23.0831 183.24 23.2256 183.35 23.3024C183.465 23.3792 183.638 23.4176 183.868 23.4176H184.09L183.893 24.9145H183.383C183.01 24.9145 182.7 24.8706 182.453 24.7829C182.207 24.7006 182.004 24.5828 181.845 24.4292C181.691 24.2757 181.56 24.092 181.45 23.8782C181.17 24.1962 180.808 24.4484 180.364 24.6349C179.925 24.8213 179.457 24.9145 178.958 24.9145ZM179.599 23.4916C179.857 23.4916 180.139 23.4258 180.446 23.2942C180.753 23.1571 181.017 22.9652 181.236 22.7184V20.8267C180.71 20.8431 180.235 20.9117 179.813 21.0323C179.391 21.1475 179.056 21.3202 178.81 21.5505C178.568 21.7753 178.448 22.0632 178.448 22.4141C178.448 22.7815 178.544 23.0529 178.736 23.2284C178.933 23.4038 179.221 23.4916 179.599 23.4916ZM191.819 24.75L188.685 16.5826H190.56L192.674 22.5457L194.771 16.5826H196.655L193.529 24.75H191.819ZM198.031 24.75V16.5826H199.865V24.75H198.031ZM198.031 15.135V13.235H199.865V15.135H198.031ZM206.083 24.9145C205.107 24.9145 204.29 24.7171 203.632 24.3223C202.979 23.9275 202.485 23.4066 202.151 22.7596C201.822 22.107 201.658 21.3915 201.658 20.6128C201.658 19.8616 201.811 19.1707 202.118 18.5401C202.431 17.9041 202.883 17.3969 203.475 17.0185C204.073 16.6347 204.797 16.4428 205.647 16.4428C206.392 16.4428 207.028 16.5935 207.555 16.8951C208.081 17.1967 208.482 17.6134 208.756 18.1453C209.035 18.6717 209.175 19.2749 209.175 19.9548C209.175 20.1084 209.164 20.2701 209.142 20.4401C209.126 20.6046 209.101 20.7746 209.068 20.9501H203.557C203.634 21.5477 203.801 22.022 204.059 22.373C204.317 22.7239 204.638 22.9789 205.022 23.1379C205.405 23.2914 205.819 23.3682 206.264 23.3682C206.702 23.3682 207.124 23.3161 207.53 23.2119C207.941 23.1023 208.322 22.9542 208.673 22.7678L208.813 24.2894C208.501 24.4429 208.114 24.5855 207.654 24.7171C207.193 24.8487 206.669 24.9145 206.083 24.9145ZM203.64 19.6999H207.3C207.3 19.4038 207.242 19.1268 207.127 18.8691C207.017 18.6059 206.839 18.3948 206.593 18.2358C206.351 18.0713 206.033 17.9891 205.638 17.9891C205.063 17.9891 204.613 18.1453 204.29 18.4579C203.971 18.7704 203.755 19.1844 203.64 19.6999Z" fill="#97B2E8"></path><defs><linearGradient id="paint0_linear_430_27" x1="0" y1="19.25" x2="228.6" y2="19.25" gradientUnits="userSpaceOnUse"><stop stop-color="#666666" stop-opacity="0.3"></stop><stop offset="1" stop-color="#666666" stop-opacity="0.3"></stop></linearGradient></defs></svg>