<svg xmlns="http://www.w3.org/2000/svg" width="90" height="33" viewBox="0 0 90 33" fill="none"><rect x="0.5" y="0.5" width="89" height="32" rx="2.5" fill="#202127"></rect><rect x="0.5" y="0.5" width="89" height="32" rx="2.5" stroke="url(#paint0_linear_430_92)"></rect><path d="M21.7819 22.196C20.8019 22.196 19.9363 21.986 19.1849 21.566C18.4336 21.146 17.8456 20.5557 17.4209 19.795C16.9963 19.0297 16.7839 18.1313 16.7839 17.1C16.7839 16.0687 17.0009 15.1727 17.4349 14.412C17.8689 13.6467 18.4663 13.054 19.2269 12.634C19.9876 12.214 20.8579 12.004 21.8379 12.004C22.3466 12.004 22.8203 12.06 23.2589 12.172C23.6976 12.2793 24.0779 12.4147 24.3999 12.578L24.2249 14.111C23.8703 13.9477 23.4969 13.8123 23.1049 13.705C22.7129 13.593 22.2859 13.537 21.8239 13.537C21.1053 13.537 20.5033 13.6933 20.0179 14.006C19.5373 14.314 19.1733 14.7387 18.9259 15.28C18.6833 15.8167 18.5619 16.4233 18.5619 17.1C18.5619 17.7767 18.6809 18.3857 18.9189 18.927C19.1616 19.4637 19.5209 19.8883 19.9969 20.201C20.4776 20.509 21.0726 20.663 21.7819 20.663C22.2579 20.663 22.6896 20.6117 23.0769 20.509C23.4689 20.4063 23.8516 20.2663 24.2249 20.089L24.3999 21.629C24.0359 21.797 23.6346 21.9323 23.1959 22.035C22.7573 22.1423 22.2859 22.196 21.7819 22.196ZM27.4845 22.14C27.0925 22.14 26.7402 22.056 26.4275 21.888C26.1149 21.72 25.8675 21.482 25.6855 21.174C25.5082 20.866 25.4195 20.502 25.4195 20.082C25.4195 19.69 25.5082 19.354 25.6855 19.074C25.8675 18.7893 26.1055 18.5537 26.3995 18.367C26.6982 18.1803 27.0225 18.0333 27.3725 17.926C27.7272 17.814 28.0819 17.7323 28.4365 17.681C28.7959 17.6297 29.1225 17.6017 29.4165 17.597C29.4025 17.1023 29.2882 16.7617 29.0735 16.575C28.8635 16.3837 28.5299 16.288 28.0725 16.288C27.7785 16.288 27.4845 16.33 27.1905 16.414C26.8965 16.498 26.5629 16.645 26.1895 16.855L26.0285 15.581C26.3972 15.3757 26.7892 15.217 27.2045 15.105C27.6245 14.9883 28.0539 14.93 28.4925 14.93C29.0385 14.93 29.4959 15.0257 29.8645 15.217C30.2332 15.4083 30.5109 15.7233 30.6975 16.162C30.8889 16.6007 30.9845 17.1863 30.9845 17.919V19.627C30.9845 19.9677 31.0009 20.2267 31.0335 20.404C31.0662 20.5813 31.1292 20.7027 31.2225 20.768C31.3205 20.8333 31.4675 20.866 31.6635 20.866H31.8525L31.6845 22.14H31.2505C30.9332 22.14 30.6695 22.1027 30.4595 22.028C30.2495 21.958 30.0769 21.8577 29.9415 21.727C29.8109 21.5963 29.6989 21.44 29.6055 21.258C29.3675 21.5287 29.0595 21.7433 28.6815 21.902C28.3082 22.0607 27.9092 22.14 27.4845 22.14ZM28.0305 20.929C28.2499 20.929 28.4902 20.873 28.7515 20.761C29.0129 20.6443 29.2369 20.481 29.4235 20.271V18.661C28.9755 18.675 28.5719 18.7333 28.2125 18.836C27.8532 18.934 27.5685 19.081 27.3585 19.277C27.1532 19.4683 27.0505 19.7133 27.0505 20.012C27.0505 20.3247 27.1322 20.5557 27.2955 20.705C27.4635 20.8543 27.7085 20.929 28.0305 20.929ZM35.8805 22.14C35.2178 22.14 34.6461 21.9767 34.1655 21.65C33.6895 21.3233 33.3231 20.887 33.0665 20.341C32.8098 19.795 32.6815 19.1953 32.6815 18.542C32.6815 17.8933 32.8051 17.296 33.0525 16.75C33.2998 16.1993 33.6615 15.7583 34.1375 15.427C34.6181 15.0957 35.1991 14.93 35.8805 14.93C36.3751 14.93 36.8115 15.021 37.1895 15.203C37.5721 15.3803 37.8988 15.637 38.1695 15.973L37.8055 16.274V11.5H39.3665V22H37.9175L37.7775 20.712L38.2185 21.027C37.9338 21.3817 37.6025 21.657 37.2245 21.853C36.8465 22.0443 36.3985 22.14 35.8805 22.14ZM36.1255 20.824C36.4848 20.824 36.7975 20.7353 37.0635 20.558C37.3295 20.3807 37.5371 20.1217 37.6865 19.781C37.8358 19.4403 37.9105 19.0273 37.9105 18.542C37.9105 18.066 37.8358 17.6577 37.6865 17.317C37.5371 16.9717 37.3295 16.708 37.0635 16.526C36.7975 16.3393 36.4848 16.246 36.1255 16.246C35.7381 16.246 35.4068 16.344 35.1315 16.54C34.8561 16.736 34.6438 17.0067 34.4945 17.352C34.3498 17.6973 34.2775 18.094 34.2775 18.542C34.2775 18.976 34.3498 19.3657 34.4945 19.711C34.6438 20.0563 34.8561 20.3293 35.1315 20.53C35.4068 20.726 35.7381 20.824 36.1255 20.824ZM44.6365 22.14C43.8058 22.14 43.1105 21.972 42.5505 21.636C41.9952 21.3 41.5752 20.8567 41.2905 20.306C41.0105 19.7507 40.8705 19.1417 40.8705 18.479C40.8705 17.8397 41.0012 17.2517 41.2625 16.715C41.5285 16.1737 41.9135 15.742 42.4175 15.42C42.9262 15.0933 43.5422 14.93 44.2655 14.93C44.9002 14.93 45.4415 15.0583 45.8895 15.315C46.3375 15.5717 46.6782 15.9263 46.9115 16.379C47.1495 16.827 47.2685 17.3403 47.2685 17.919C47.2685 18.0497 47.2592 18.1873 47.2405 18.332C47.2265 18.472 47.2055 18.6167 47.1775 18.766H42.4875C42.5528 19.2747 42.6952 19.6783 42.9145 19.977C43.1338 20.2757 43.4068 20.4927 43.7335 20.628C44.0602 20.7587 44.4125 20.824 44.7905 20.824C45.1638 20.824 45.5232 20.7797 45.8685 20.691C46.2185 20.5977 46.5428 20.4717 46.8415 20.313L46.9605 21.608C46.6945 21.7387 46.3655 21.86 45.9735 21.972C45.5815 22.084 45.1358 22.14 44.6365 22.14ZM42.5575 17.702H45.6725C45.6725 17.45 45.6235 17.2143 45.5255 16.995C45.4322 16.771 45.2805 16.5913 45.0705 16.456C44.8652 16.316 44.5945 16.246 44.2585 16.246C43.7685 16.246 43.3858 16.379 43.1105 16.645C42.8398 16.911 42.6555 17.2633 42.5575 17.702ZM50.3089 22.14C49.9169 22.14 49.5646 22.056 49.2519 21.888C48.9392 21.72 48.6919 21.482 48.5099 21.174C48.3326 20.866 48.2439 20.502 48.2439 20.082C48.2439 19.69 48.3326 19.354 48.5099 19.074C48.6919 18.7893 48.9299 18.5537 49.2239 18.367C49.5226 18.1803 49.8469 18.0333 50.1969 17.926C50.5516 17.814 50.9062 17.7323 51.2609 17.681C51.6202 17.6297 51.9469 17.6017 52.2409 17.597C52.2269 17.1023 52.1126 16.7617 51.8979 16.575C51.6879 16.3837 51.3542 16.288 50.8969 16.288C50.6029 16.288 50.3089 16.33 50.0149 16.414C49.7209 16.498 49.3872 16.645 49.0139 16.855L48.8529 15.581C49.2216 15.3757 49.6136 15.217 50.0289 15.105C50.4489 14.9883 50.8782 14.93 51.3169 14.93C51.8629 14.93 52.3202 15.0257 52.6889 15.217C53.0576 15.4083 53.3352 15.7233 53.5219 16.162C53.7132 16.6007 53.8089 17.1863 53.8089 17.919V19.627C53.8089 19.9677 53.8252 20.2267 53.8579 20.404C53.8906 20.5813 53.9536 20.7027 54.0469 20.768C54.1449 20.8333 54.2919 20.866 54.4879 20.866H54.6769L54.5089 22.14H54.0749C53.7576 22.14 53.4939 22.1027 53.2839 22.028C53.0739 21.958 52.9012 21.8577 52.7659 21.727C52.6352 21.5963 52.5232 21.44 52.4299 21.258C52.1919 21.5287 51.8839 21.7433 51.5059 21.902C51.1326 22.0607 50.7336 22.14 50.3089 22.14ZM50.8549 20.929C51.0742 20.929 51.3146 20.873 51.5759 20.761C51.8372 20.6443 52.0612 20.481 52.2479 20.271V18.661C51.7999 18.675 51.3962 18.7333 51.0369 18.836C50.6776 18.934 50.3929 19.081 50.1829 19.277C49.9776 19.4683 49.8749 19.7133 49.8749 20.012C49.8749 20.3247 49.9566 20.5557 50.1199 20.705C50.2879 20.8543 50.5329 20.929 50.8549 20.929ZM58.6218 22.14C57.9638 22.14 57.4272 22.0093 57.0118 21.748C56.5965 21.482 56.2908 21.1087 56.0948 20.628C55.9035 20.1427 55.8078 19.5663 55.8078 18.899V15.049H57.3688V18.773C57.3688 19.4497 57.4832 19.9583 57.7118 20.299C57.9452 20.635 58.3185 20.803 58.8318 20.803C59.2238 20.803 59.5622 20.7097 59.8468 20.523C60.1315 20.3363 60.3532 20.0633 60.5118 19.704L60.2458 20.509V15.049H61.8068V22H60.3718L60.2248 20.733L60.5888 21.132C60.3975 21.4213 60.1268 21.6617 59.7768 21.853C59.4268 22.0443 59.0418 22.14 58.6218 22.14ZM67.0233 21.993L69.6413 17.996C69.9633 17.5013 70.2269 17.0743 70.4323 16.715C70.6423 16.3557 70.7963 16.0337 70.8943 15.749C70.9969 15.4597 71.0483 15.182 71.0483 14.916C71.0483 14.482 70.9269 14.1413 70.6843 13.894C70.4416 13.6467 70.1033 13.523 69.6693 13.523C69.1886 13.523 68.7523 13.6373 68.3603 13.866C67.9729 14.09 67.6206 14.3607 67.3033 14.678L67.1003 13.019C67.4829 12.711 67.9076 12.4637 68.3743 12.277C68.8409 12.0903 69.3683 11.997 69.9563 11.997C70.5489 11.997 71.0436 12.1183 71.4403 12.361C71.8416 12.6037 72.1403 12.9257 72.3363 13.327C72.5369 13.7283 72.6373 14.1717 72.6373 14.657C72.6373 15.0537 72.5836 15.441 72.4763 15.819C72.3689 16.1923 72.1986 16.6007 71.9653 17.044C71.7319 17.4827 71.4263 17.989 71.0483 18.563L69.7743 20.488H73.0013V21.993H67.0233Z" fill="#F4EAC6"></path><defs><linearGradient id="paint0_linear_430_92" x1="0" y1="16.5" x2="90" y2="16.5" gradientUnits="userSpaceOnUse"><stop stop-color="#666666" stop-opacity="0.3"></stop><stop offset="1" stop-color="#666666" stop-opacity="0.3"></stop></linearGradient></defs></svg>