<svg xmlns="http://www.w3.org/2000/svg" width="88" height="33" viewBox="0 0 88 33" fill="none"><rect x="0.5" y="0.5" width="87" height="32" rx="2.5" fill="#202127"></rect><rect x="0.5" y="0.5" width="87" height="32" rx="2.5" stroke="url(#paint0_linear_430_89)"></rect><path d="M21.9987 22.196C21.0187 22.196 20.1531 21.986 19.4017 21.566C18.6504 21.146 18.0624 20.5557 17.6377 19.795C17.2131 19.0297 17.0007 18.1313 17.0007 17.1C17.0007 16.0687 17.2177 15.1727 17.6517 14.412C18.0857 13.6467 18.6831 13.054 19.4437 12.634C20.2044 12.214 21.0747 12.004 22.0547 12.004C22.5634 12.004 23.0371 12.06 23.4757 12.172C23.9144 12.2793 24.2947 12.4147 24.6167 12.578L24.4417 14.111C24.0871 13.9477 23.7137 13.8123 23.3217 13.705C22.9297 13.593 22.5027 13.537 22.0407 13.537C21.3221 13.537 20.7201 13.6933 20.2347 14.006C19.7541 14.314 19.3901 14.7387 19.1427 15.28C18.9001 15.8167 18.7787 16.4233 18.7787 17.1C18.7787 17.7767 18.8977 18.3857 19.1357 18.927C19.3784 19.4637 19.7377 19.8883 20.2137 20.201C20.6944 20.509 21.2894 20.663 21.9987 20.663C22.4747 20.663 22.9064 20.6117 23.2937 20.509C23.6857 20.4063 24.0684 20.2663 24.4417 20.089L24.6167 21.629C24.2527 21.797 23.8514 21.9323 23.4127 22.035C22.9741 22.1423 22.5027 22.196 21.9987 22.196ZM27.7013 22.14C27.3093 22.14 26.957 22.056 26.6443 21.888C26.3317 21.72 26.0843 21.482 25.9023 21.174C25.725 20.866 25.6363 20.502 25.6363 20.082C25.6363 19.69 25.725 19.354 25.9023 19.074C26.0843 18.7893 26.3223 18.5537 26.6163 18.367C26.915 18.1803 27.2393 18.0333 27.5893 17.926C27.944 17.814 28.2987 17.7323 28.6533 17.681C29.0127 17.6297 29.3393 17.6017 29.6333 17.597C29.6193 17.1023 29.505 16.7617 29.2903 16.575C29.0803 16.3837 28.7467 16.288 28.2893 16.288C27.9953 16.288 27.7013 16.33 27.4073 16.414C27.1133 16.498 26.7797 16.645 26.4063 16.855L26.2453 15.581C26.614 15.3757 27.006 15.217 27.4213 15.105C27.8413 14.9883 28.2707 14.93 28.7093 14.93C29.2553 14.93 29.7127 15.0257 30.0813 15.217C30.45 15.4083 30.7277 15.7233 30.9143 16.162C31.1057 16.6007 31.2013 17.1863 31.2013 17.919V19.627C31.2013 19.9677 31.2177 20.2267 31.2503 20.404C31.283 20.5813 31.346 20.7027 31.4393 20.768C31.5373 20.8333 31.6843 20.866 31.8803 20.866H32.0693L31.9013 22.14H31.4673C31.15 22.14 30.8863 22.1027 30.6763 22.028C30.4663 21.958 30.2937 21.8577 30.1583 21.727C30.0277 21.5963 29.9157 21.44 29.8223 21.258C29.5843 21.5287 29.2763 21.7433 28.8983 21.902C28.525 22.0607 28.126 22.14 27.7013 22.14ZM28.2473 20.929C28.4667 20.929 28.707 20.873 28.9683 20.761C29.2297 20.6443 29.4537 20.481 29.6403 20.271V18.661C29.1923 18.675 28.7887 18.7333 28.4293 18.836C28.07 18.934 27.7853 19.081 27.5753 19.277C27.37 19.4683 27.2673 19.7133 27.2673 20.012C27.2673 20.3247 27.349 20.5557 27.5123 20.705C27.6803 20.8543 27.9253 20.929 28.2473 20.929ZM36.0973 22.14C35.4346 22.14 34.8629 21.9767 34.3823 21.65C33.9063 21.3233 33.5399 20.887 33.2833 20.341C33.0266 19.795 32.8983 19.1953 32.8983 18.542C32.8983 17.8933 33.0219 17.296 33.2693 16.75C33.5166 16.1993 33.8783 15.7583 34.3543 15.427C34.8349 15.0957 35.4159 14.93 36.0973 14.93C36.5919 14.93 37.0283 15.021 37.4063 15.203C37.7889 15.3803 38.1156 15.637 38.3863 15.973L38.0223 16.274V11.5H39.5833V22H38.1343L37.9943 20.712L38.4353 21.027C38.1506 21.3817 37.8193 21.657 37.4413 21.853C37.0633 22.0443 36.6153 22.14 36.0973 22.14ZM36.3423 20.824C36.7016 20.824 37.0143 20.7353 37.2803 20.558C37.5463 20.3807 37.7539 20.1217 37.9033 19.781C38.0526 19.4403 38.1273 19.0273 38.1273 18.542C38.1273 18.066 38.0526 17.6577 37.9033 17.317C37.7539 16.9717 37.5463 16.708 37.2803 16.526C37.0143 16.3393 36.7016 16.246 36.3423 16.246C35.9549 16.246 35.6236 16.344 35.3483 16.54C35.0729 16.736 34.8606 17.0067 34.7113 17.352C34.5666 17.6973 34.4943 18.094 34.4943 18.542C34.4943 18.976 34.5666 19.3657 34.7113 19.711C34.8606 20.0563 35.0729 20.3293 35.3483 20.53C35.6236 20.726 35.9549 20.824 36.3423 20.824ZM44.8533 22.14C44.0226 22.14 43.3273 21.972 42.7673 21.636C42.212 21.3 41.792 20.8567 41.5073 20.306C41.2273 19.7507 41.0873 19.1417 41.0873 18.479C41.0873 17.8397 41.218 17.2517 41.4793 16.715C41.7453 16.1737 42.1303 15.742 42.6343 15.42C43.143 15.0933 43.759 14.93 44.4823 14.93C45.117 14.93 45.6583 15.0583 46.1063 15.315C46.5543 15.5717 46.895 15.9263 47.1283 16.379C47.3663 16.827 47.4853 17.3403 47.4853 17.919C47.4853 18.0497 47.476 18.1873 47.4573 18.332C47.4433 18.472 47.4223 18.6167 47.3943 18.766H42.7043C42.7696 19.2747 42.912 19.6783 43.1313 19.977C43.3506 20.2757 43.6236 20.4927 43.9503 20.628C44.277 20.7587 44.6293 20.824 45.0073 20.824C45.3806 20.824 45.74 20.7797 46.0853 20.691C46.4353 20.5977 46.7596 20.4717 47.0583 20.313L47.1773 21.608C46.9113 21.7387 46.5823 21.86 46.1903 21.972C45.7983 22.084 45.3526 22.14 44.8533 22.14ZM42.7743 17.702H45.8893C45.8893 17.45 45.8403 17.2143 45.7423 16.995C45.649 16.771 45.4973 16.5913 45.2873 16.456C45.082 16.316 44.8113 16.246 44.4753 16.246C43.9853 16.246 43.6026 16.379 43.3273 16.645C43.0566 16.911 42.8723 17.2633 42.7743 17.702ZM50.5257 22.14C50.1337 22.14 49.7814 22.056 49.4687 21.888C49.156 21.72 48.9087 21.482 48.7267 21.174C48.5494 20.866 48.4607 20.502 48.4607 20.082C48.4607 19.69 48.5494 19.354 48.7267 19.074C48.9087 18.7893 49.1467 18.5537 49.4407 18.367C49.7394 18.1803 50.0637 18.0333 50.4137 17.926C50.7684 17.814 51.123 17.7323 51.4777 17.681C51.837 17.6297 52.1637 17.6017 52.4577 17.597C52.4437 17.1023 52.3294 16.7617 52.1147 16.575C51.9047 16.3837 51.571 16.288 51.1137 16.288C50.8197 16.288 50.5257 16.33 50.2317 16.414C49.9377 16.498 49.604 16.645 49.2307 16.855L49.0697 15.581C49.4384 15.3757 49.8304 15.217 50.2457 15.105C50.6657 14.9883 51.095 14.93 51.5337 14.93C52.0797 14.93 52.537 15.0257 52.9057 15.217C53.2744 15.4083 53.552 15.7233 53.7387 16.162C53.93 16.6007 54.0257 17.1863 54.0257 17.919V19.627C54.0257 19.9677 54.042 20.2267 54.0747 20.404C54.1074 20.5813 54.1704 20.7027 54.2637 20.768C54.3617 20.8333 54.5087 20.866 54.7047 20.866H54.8937L54.7257 22.14H54.2917C53.9744 22.14 53.7107 22.1027 53.5007 22.028C53.2907 21.958 53.118 21.8577 52.9827 21.727C52.852 21.5963 52.74 21.44 52.6467 21.258C52.4087 21.5287 52.1007 21.7433 51.7227 21.902C51.3494 22.0607 50.9504 22.14 50.5257 22.14ZM51.0717 20.929C51.291 20.929 51.5314 20.873 51.7927 20.761C52.054 20.6443 52.278 20.481 52.4647 20.271V18.661C52.0167 18.675 51.613 18.7333 51.2537 18.836C50.8944 18.934 50.6097 19.081 50.3997 19.277C50.1944 19.4683 50.0917 19.7133 50.0917 20.012C50.0917 20.3247 50.1734 20.5557 50.3367 20.705C50.5047 20.8543 50.7497 20.929 51.0717 20.929ZM58.8386 22.14C58.1806 22.14 57.644 22.0093 57.2286 21.748C56.8133 21.482 56.5076 21.1087 56.3116 20.628C56.1203 20.1427 56.0246 19.5663 56.0246 18.899V15.049H57.5856V18.773C57.5856 19.4497 57.7 19.9583 57.9286 20.299C58.162 20.635 58.5353 20.803 59.0486 20.803C59.4406 20.803 59.779 20.7097 60.0636 20.523C60.3483 20.3363 60.57 20.0633 60.7286 19.704L60.4626 20.509V15.049H62.0236V22H60.5886L60.4416 20.733L60.8056 21.132C60.6143 21.4213 60.3436 21.6617 59.9936 21.853C59.6436 22.0443 59.2586 22.14 58.8386 22.14ZM68.6261 22V14.51C68.3881 14.6827 68.1641 14.818 67.9541 14.916C67.7487 15.014 67.5364 15.0887 67.3171 15.14L67.1351 13.726C67.3544 13.67 67.5901 13.5627 67.8421 13.404C68.0987 13.2453 68.3344 13.061 68.5491 12.851C68.7637 12.641 68.9247 12.424 69.0321 12.2H70.2361V22H68.6261Z" fill="#F4EAC6"></path><defs><linearGradient id="paint0_linear_430_89" x1="0" y1="16.5" x2="88" y2="16.5" gradientUnits="userSpaceOnUse"><stop stop-color="#666666" stop-opacity="0.3"></stop><stop offset="1" stop-color="#666666" stop-opacity="0.3"></stop></linearGradient></defs></svg>