<svg xmlns="http://www.w3.org/2000/svg" width="253" height="68" viewBox="0 0 253 68" fill="none"><path id="Arrow 06" d="M234.269 37.6527C230.92 44.7632 227.817 51.7211 224.109 59.5579C229.63 59.9883 233.355 57.5078 235.284 54.2973C241.073 44.6659 246.691 34.8046 251.308 24.559C253.975 18.7099 249.836 14.5707 243.011 15.2859C231.591 16.3375 220.266 18.0015 208.771 19.4356C208.109 19.511 207.239 19.5477 206.956 19.8916C205.651 21.0371 204.724 22.4511 203.589 23.8265C204.931 24.6705 206.122 26.2795 207.407 26.32C211.888 26.5572 216.236 26.3734 220.547 26.3808C222.91 26.4231 225.103 26.2356 228.241 27.8096C225.499 29.6796 222.719 31.7409 219.977 33.6109C161.47 69.9334 85.3374 65.7087 29.8812 23.4896C22.7744 18.0063 16.4429 11.8739 9.61976 6.04674C7.21937 4.01486 4.78111 2.1742 2.38072 0.142319C1.68112 0.408932 1.15159 0.90539 0.451977 1.172C0.734962 3.00895 0.488418 5.34235 1.71684 6.76006C5.49643 11.6255 9.27602 16.491 13.7931 20.8986C58.5479 64.8975 130.027 79.559 192.064 56.9777C203.92 52.6365 214.869 46.3425 226.082 40.8907C228.464 39.747 230.469 38.3348 232.681 36.9613C233.135 36.8473 233.721 37.1544 234.269 37.6527Z" fill="#96B7FF"></path></svg>