<svg xmlns="http://www.w3.org/2000/svg" width="517" height="517" viewBox="0 0 517 517" fill="none"><style>        #texto-garantia{        animation: rodar 15s linear infinite;        transform-origin: center;    }    #circulo-lines{        animation: rodar-izq 10s linear infinite;        transform-origin: center;    }    @keyframes rodar{    0%{        transform: rotate(0deg);    }     100%{        transform: rotate(360deg);    }}@keyframes rodar-izq{    0%{        transform: rotate(0deg);    }     100%{        transform: rotate(-360deg);    }}</style><g id="Garantia Frances"><g id="Group 3"><path id="circulo-grande" opacity="0.5" d="M7.00006 258.755C7.00006 397.795 119.715 510.51 258.755 510.51C397.795 510.51 510.51 397.795 510.51 258.755C510.51 119.714 397.795 7 258.755 7C119.715 7 7.00006 119.714 7.00006 258.755Z" stroke="url(#paint0_linear_275_1671)" stroke-width="12.5877" stroke-dasharray="2.1 12.59"></path><path id="circulo-lines" fill-rule="evenodd" clip-rule="evenodd" d="M257.741 169.756C258.065 169.753 258.389 169.751 258.713 169.751C259.037 169.751 259.361 169.753 259.685 169.756L259.565 180.939C259.281 180.936 258.997 180.935 258.713 180.935C258.428 180.935 258.145 180.936 257.861 180.939L257.741 169.756ZM275.119 171.262C275.754 171.38 276.387 171.505 277.018 171.637L274.727 182.584C274.177 182.469 273.624 182.359 273.069 182.256L275.119 171.262ZM240.408 171.637C241.038 171.505 241.671 171.38 242.306 171.262L244.357 182.256C243.802 182.359 243.249 182.469 242.698 182.584L240.408 171.637ZM291.872 176.138C292.471 176.379 293.068 176.626 293.661 176.88L289.264 187.163C288.746 186.941 288.225 186.725 287.701 186.515L291.872 176.138ZM223.765 176.88C224.358 176.626 224.954 176.379 225.554 176.138L229.725 186.515C229.201 186.725 228.68 186.941 228.162 187.163L223.765 176.88ZM307.338 184.205C307.879 184.558 308.415 184.917 308.948 185.282L302.625 194.507C302.16 194.188 301.691 193.874 301.218 193.565L307.338 184.205ZM208.478 185.282C209.01 184.917 209.547 184.558 210.087 184.205L216.208 193.565C215.735 193.874 215.266 194.188 214.8 194.507L208.478 185.282ZM320.93 195.127C321.392 195.578 321.848 196.034 322.3 196.496L314.306 204.318C313.911 203.914 313.512 203.515 313.108 203.12L320.93 195.127ZM195.126 196.496C195.577 196.034 196.034 195.578 196.495 195.127L204.317 203.12C203.914 203.515 203.514 203.914 203.119 204.318L195.126 196.496ZM332.144 208.479C332.509 209.011 332.868 209.547 333.222 210.088L323.861 216.208C323.552 215.736 323.238 215.266 322.919 214.801L332.144 208.479ZM184.204 210.088C184.557 209.547 184.917 209.011 185.281 208.479L194.507 214.801C194.188 215.266 193.874 215.736 193.564 216.208L184.204 210.088ZM340.547 223.766C340.8 224.359 341.047 224.955 341.288 225.554L330.911 229.725C330.701 229.201 330.485 228.68 330.263 228.162L340.547 223.766ZM176.137 225.554C176.378 224.955 176.626 224.359 176.879 223.766L187.162 228.162C186.941 228.68 186.725 229.201 186.514 229.725L176.137 225.554ZM345.789 240.409C345.921 241.039 346.046 241.672 346.165 242.307L335.17 244.358C335.067 243.803 334.957 243.25 334.842 242.699L345.789 240.409ZM171.261 242.307C171.38 241.672 171.505 241.039 171.637 240.409L182.584 242.699C182.468 243.25 182.359 243.803 182.255 244.358L171.261 242.307ZM169.75 258.713C169.75 258.389 169.752 258.065 169.756 257.742L180.939 257.861C180.936 258.145 180.934 258.429 180.934 258.713C180.934 258.998 180.936 259.282 180.939 259.565L169.756 259.685C169.752 259.362 169.75 259.038 169.75 258.713ZM347.67 257.742C347.673 258.065 347.675 258.389 347.675 258.713C347.675 259.038 347.673 259.362 347.67 259.685L336.487 259.565C336.49 259.282 336.491 258.998 336.491 258.713C336.491 258.429 336.49 258.145 336.487 257.861L347.67 257.742ZM171.637 277.018C171.505 276.388 171.38 275.755 171.261 275.12L182.255 273.069C182.359 273.624 182.468 274.177 182.584 274.728L171.637 277.018ZM346.165 275.12C346.046 275.755 345.921 276.388 345.789 277.018L334.842 274.728C334.957 274.177 335.067 273.624 335.17 273.069L346.165 275.12ZM176.879 293.661C176.626 293.068 176.378 292.472 176.137 291.872L186.514 287.702C186.725 288.225 186.941 288.746 187.162 289.264L176.879 293.661ZM341.288 291.872C341.047 292.472 340.8 293.068 340.547 293.661L330.263 289.264C330.485 288.746 330.701 288.225 330.911 287.702L341.288 291.872ZM185.281 308.948C184.917 308.416 184.557 307.879 184.204 307.339L193.564 301.218C193.874 301.691 194.188 302.16 194.507 302.626L185.281 308.948ZM333.222 307.339C332.868 307.879 332.509 308.416 332.144 308.948L322.919 302.626C323.238 302.16 323.552 301.691 323.861 301.218L333.222 307.339ZM196.495 322.3C196.034 321.849 195.577 321.392 195.126 320.931L203.119 313.109C203.514 313.512 203.914 313.912 204.317 314.307L196.495 322.3ZM322.3 320.931C321.848 321.392 321.392 321.849 320.93 322.3L313.108 314.307C313.512 313.912 313.911 313.512 314.306 313.109L322.3 320.931ZM210.087 333.222C209.547 332.869 209.01 332.51 208.478 332.145L214.8 322.92C215.266 323.239 215.735 323.553 216.208 323.862L210.087 333.222ZM308.948 332.145C308.415 332.51 307.879 332.869 307.338 333.222L301.218 323.862C301.691 323.553 302.16 323.239 302.625 322.92L308.948 332.145ZM225.554 341.289C224.954 341.048 224.358 340.801 223.765 340.547L228.162 330.264C228.68 330.485 229.201 330.701 229.725 330.912L225.554 341.289ZM293.661 340.547C293.068 340.801 292.471 341.048 291.872 341.289L287.701 330.912C288.225 330.701 288.746 330.485 289.264 330.264L293.661 340.547ZM242.306 346.165C241.671 346.047 241.038 345.921 240.408 345.789L242.698 334.843C243.249 334.958 243.802 335.067 244.357 335.171L242.306 346.165ZM277.018 345.789C276.387 345.921 275.754 346.047 275.119 346.165L273.069 335.171C273.624 335.067 274.177 334.958 274.727 334.843L277.018 345.789ZM258.713 347.676C258.389 347.676 258.065 347.674 257.741 347.67L257.861 336.487C258.145 336.49 258.428 336.492 258.713 336.492C258.997 336.492 259.281 336.49 259.565 336.487L259.685 347.67C259.361 347.674 259.037 347.676 258.713 347.676Z" fill="#B2B2B2"></path><path id="circulo" opacity="0.3" d="M258.931 444.861C361.617 444.861 444.861 361.617 444.861 258.931C444.861 156.244 361.617 73 258.931 73C156.244 73 73 156.244 73 258.931C73 361.617 156.244 444.861 258.931 444.861Z" stroke="white" stroke-width="1.77925"></path><path id="15" d="M246.424 302H209.243L209.366 300.769H211.951C213.839 300.769 215.44 300.112 216.753 298.799C218.066 297.486 218.723 295.926 218.723 294.12V230.715C218.723 228.006 218.066 226.078 216.753 224.929C215.522 223.779 213.798 223.205 211.582 223.205H208.381V221.974C210.023 221.81 212.033 221.563 214.414 221.235C216.794 220.907 219.256 220.455 221.801 219.881C224.427 219.224 226.972 218.444 229.434 217.541C231.896 216.557 234.03 215.407 235.836 214.094H237.067V294.244C237.067 296.049 237.724 297.609 239.037 298.922C240.433 300.153 242.033 300.769 243.839 300.769H246.424V302ZM301.16 232.069L266.81 234.655L263.239 248.444C270.052 246.802 276.208 246.31 281.707 246.967C287.288 247.541 292.049 249.06 295.989 251.522C299.928 253.984 302.883 257.226 304.853 261.248C306.905 265.27 307.808 269.907 307.562 275.16C307.315 281.234 305.715 286.446 302.76 290.796C299.887 295.146 296.194 298.676 291.679 301.384C287.247 304.093 282.446 306.022 277.275 307.171C272.186 308.402 267.22 308.854 262.378 308.525C257.617 308.279 253.431 307.376 249.82 305.817L250.066 304.585C252.118 304.668 254.662 304.38 257.699 303.724C260.818 303.149 264.019 302.164 267.302 300.769C270.667 299.373 273.827 297.609 276.782 295.475C279.737 293.259 282.199 290.632 284.169 287.595C286.139 284.476 287.247 280.947 287.494 277.007C287.904 271.918 286.632 267.896 283.677 264.942C280.722 261.987 276.659 260.263 271.488 259.771C266.399 259.278 260.654 260.263 254.252 262.726L253.144 262.11L263.116 220.25L295.004 217.665C297.63 217.665 299.682 217.09 301.16 215.941C302.637 214.792 303.827 213.314 304.73 211.509H305.961L301.16 232.069Z" fill="#EBE7FF"></path><g id="texto-garantia"><path d="M286.123 127.869L286.756 125.434L295.05 127.592L294.417 130.027L286.123 127.869Z" fill="white"></path><path d="M322.819 150.41L330.614 137.84C330.035 137.882 329.518 137.876 329.064 137.822C328.617 137.773 328.183 137.677 327.762 137.535L328.928 134.972C329.354 135.107 329.861 135.172 330.449 135.168C331.045 135.169 331.633 135.105 332.212 134.976C332.79 134.847 333.286 134.65 333.7 134.386L335.72 135.639L325.521 152.086L322.819 150.41Z" fill="white"></path><path d="M334.126 158.583C333.301 157.932 332.62 157.218 332.082 156.442C331.545 155.665 331.14 154.876 330.868 154.075L333.281 152.245C333.565 152.986 333.906 153.684 334.305 154.339C334.704 154.994 335.247 155.593 335.934 156.135C336.817 156.832 337.704 157.151 338.596 157.091C339.501 157.031 340.27 156.599 340.904 155.796C341.606 154.906 341.852 153.991 341.643 153.051C341.44 152.104 340.817 151.22 339.775 150.397C339.276 150.004 338.759 149.648 338.223 149.33C337.694 149.019 337.147 148.722 336.582 148.441L343.883 141.154L351.045 146.806L348.994 149.114L343.916 145.106L339.907 149.093L339.81 147.519C340.217 147.688 340.626 147.899 341.036 148.152C341.447 148.406 341.858 148.695 342.271 149.021C343.276 149.814 343.994 150.704 344.426 151.69C344.87 152.674 345.01 153.695 344.845 154.751C344.687 155.799 344.219 156.816 343.443 157.8C342.627 158.834 341.686 159.542 340.622 159.923C339.571 160.303 338.481 160.376 337.351 160.142C336.228 159.913 335.153 159.393 334.126 158.583Z" fill="white"></path><path d="M344.996 174.048L346.83 171.954C347.409 172.598 347.962 172.937 348.489 172.972C349.016 173.007 349.622 172.716 350.307 172.1L364.331 159.496L366.474 161.881L351.926 174.956C350.713 176.047 349.587 176.538 348.549 176.43C347.517 176.33 346.533 175.758 345.596 174.717L344.996 174.048Z" fill="white"></path><path d="M360.828 186.54C359.785 185.02 359.199 183.433 359.069 181.778C358.939 180.123 359.262 178.533 360.036 177.007C360.818 175.475 362.049 174.133 363.728 172.981C365.408 171.828 367.099 171.165 368.801 170.992C370.511 170.813 372.115 171.081 373.613 171.797C375.11 172.513 376.38 173.631 377.423 175.151C378.466 176.671 379.052 178.258 379.182 179.912C379.311 181.567 378.985 183.16 378.203 184.692C377.429 186.218 376.202 187.557 374.522 188.71C372.843 189.862 371.148 190.528 369.438 190.707C367.736 190.88 366.136 190.609 364.638 189.893C363.141 189.177 361.871 188.059 360.828 186.54ZM363.392 184.78C364.159 185.897 365.047 186.662 366.057 187.075C367.075 187.483 368.147 187.58 369.274 187.365C370.401 187.151 371.512 186.668 372.606 185.917C373.7 185.166 374.55 184.304 375.156 183.329C375.761 182.355 376.053 181.322 376.03 180.231C376.016 179.134 375.625 178.028 374.858 176.911C374.087 175.786 373.192 175.02 372.174 174.612C371.164 174.199 370.095 174.099 368.969 174.314C367.842 174.528 366.731 175.011 365.637 175.762C364.543 176.513 363.693 177.375 363.087 178.35C362.482 179.324 362.186 180.36 362.201 181.456C362.224 182.547 362.621 183.655 363.392 184.78Z" fill="white"></path><path d="M372.296 206.686C371.56 205.026 371.276 203.509 371.444 202.134C371.615 200.769 372.172 199.559 373.117 198.505C374.07 197.448 375.351 196.563 376.96 195.85L387.096 191.359L388.395 194.291L379.03 198.441C378.196 198.81 377.447 199.213 376.783 199.648C376.119 200.083 375.585 200.572 375.18 201.114C374.779 201.665 374.555 202.298 374.509 203.014C374.472 203.726 374.657 204.541 375.064 205.46C375.474 206.386 375.954 207.071 376.503 207.513C377.064 207.96 377.683 208.22 378.36 208.293C379.038 208.366 379.759 208.298 380.523 208.091C381.3 207.887 382.102 207.603 382.927 207.237L392.292 203.088L393.592 206.02L383.455 210.511C381.846 211.224 380.33 211.578 378.907 211.574C377.492 211.566 376.219 211.162 375.089 210.362C373.962 209.571 373.031 208.346 372.296 206.686Z" fill="white"></path><path d="M378.113 220.213L396.86 215.409L398.545 221.984C398.877 223.278 398.962 224.464 398.801 225.543C398.648 226.619 398.221 227.532 397.519 228.283C396.817 229.033 395.815 229.576 394.511 229.91C393.172 230.253 392.013 230.241 391.034 229.873C390.058 229.515 389.201 228.902 388.465 228.034L381.713 234.26L380.8 230.698L386.937 225.187C386.93 225.16 386.924 225.138 386.919 225.12C386.915 225.102 386.909 225.08 386.902 225.053L386.007 221.558L378.923 223.373L378.113 220.213ZM388.658 220.878L389.382 223.704C389.732 225.07 390.276 225.967 391.014 226.397C391.763 226.832 392.611 226.929 393.557 226.687C394.557 226.43 395.259 225.941 395.664 225.219C396.069 224.497 396.102 223.475 395.763 222.154L395.019 219.248L388.658 220.878Z" fill="white"></path><path d="M382.662 244.401C382.582 243.613 382.569 242.804 382.623 241.974C382.678 241.144 382.77 240.37 382.901 239.653C383.042 238.944 383.196 238.363 383.363 237.911L386.787 237.965C386.562 238.581 386.353 239.251 386.158 239.975C385.972 240.698 385.83 241.448 385.734 242.227C385.647 243.014 385.643 243.797 385.723 244.576C385.829 245.622 386.111 246.436 386.568 247.019C387.036 247.611 387.683 247.865 388.508 247.781C389.14 247.716 389.637 247.494 389.996 247.115C390.356 246.736 390.648 246.187 390.871 245.47C391.104 244.751 391.341 243.847 391.582 242.758C391.816 241.687 392.11 240.708 392.464 239.819C392.827 238.93 393.336 238.198 393.991 237.622C394.647 237.055 395.534 236.714 396.652 236.601C397.697 236.494 398.655 236.661 399.524 237.1C400.393 237.54 401.109 238.254 401.673 239.244C402.237 240.233 402.596 241.489 402.751 243.011C402.874 244.221 402.857 245.371 402.699 246.462C402.542 247.553 402.344 248.476 402.106 249.232L398.771 249.238C399.195 248.12 399.487 247.071 399.646 246.092C399.807 245.121 399.837 244.136 399.735 243.137C399.627 242.074 399.358 241.249 398.927 240.663C398.497 240.076 397.892 239.823 397.113 239.902C396.536 239.961 396.084 240.169 395.759 240.526C395.434 240.884 395.174 241.373 394.978 241.995C394.783 242.626 394.596 243.391 394.419 244.289C394.128 245.708 393.77 246.921 393.344 247.928C392.919 248.934 392.355 249.719 391.652 250.281C390.951 250.853 390.046 251.195 388.936 251.308C388.294 251.373 387.632 251.33 386.95 251.177C386.276 251.023 385.641 250.694 385.043 250.19C384.455 249.694 383.947 248.976 383.518 248.038C383.098 247.099 382.813 245.887 382.662 244.401Z" fill="white"></path><path d="M383.921 266.07L403.116 268.539L402.195 275.696C401.959 277.533 401.365 279.115 400.414 280.442C399.471 281.78 398.229 282.763 396.69 283.392C395.159 284.022 393.389 284.208 391.378 283.949C389.367 283.69 387.696 283.062 386.366 282.064C385.044 281.067 384.092 279.802 383.509 278.268C382.934 276.745 382.764 275.064 383 273.227L383.921 266.07ZM386.364 269.618L385.852 273.594C385.682 274.919 385.814 276.06 386.248 277.018C386.692 277.976 387.387 278.744 388.335 279.321C389.291 279.908 390.454 280.29 391.826 280.467C393.197 280.643 394.414 280.567 395.478 280.239C396.551 279.922 397.418 279.355 398.08 278.539C398.752 277.724 399.173 276.654 399.343 275.329L399.855 271.353L386.364 269.618Z" fill="white"></path><path d="M380.462 288.388L399.015 293.894L395.55 305.569L392.635 304.704L395.172 296.156L390.679 294.823L388.693 301.515L385.778 300.65L387.764 293.958L382.45 292.38L379.838 301.18L376.923 300.314L380.462 288.388Z" fill="white"></path><path d="M367.294 320.321C368.247 318.616 369.439 317.334 370.869 316.476C372.299 315.618 373.869 315.208 375.58 315.245C377.286 315.291 379.032 315.813 380.817 316.812C382.587 317.801 383.918 319.036 384.811 320.517C385.7 322.006 386.137 323.613 386.123 325.337C386.105 327.069 385.617 328.792 384.659 330.505C384.156 331.406 383.584 332.211 382.945 332.92C382.301 333.637 381.672 334.214 381.058 334.652L378.614 332.905C379.238 332.431 379.843 331.877 380.429 331.244C381.016 330.611 381.54 329.88 382.004 329.052C382.741 327.732 383.079 326.496 383.017 325.342C382.95 324.196 382.573 323.162 381.885 322.239C381.197 321.316 380.278 320.533 379.128 319.89C377.93 319.22 376.749 318.829 375.587 318.717C374.42 318.614 373.337 318.832 372.338 319.372C371.335 319.92 370.476 320.833 369.761 322.112C369.563 322.466 369.369 322.88 369.178 323.354C368.987 323.828 368.828 324.309 368.703 324.799L372.153 326.728L373.516 324.291L375.893 325.62L372.965 330.856L365.436 326.647C365.424 325.838 365.565 324.877 365.86 323.764C366.155 322.651 366.633 321.504 367.294 320.321Z" fill="white"></path><path d="M358.345 342.496L363.42 336.093L365.641 337.854L360.566 344.256L358.345 342.496ZM370.071 346.039L369.539 346.711L360.386 332.154L362.361 329.662L373.243 347.089L371.294 349.549L351.834 342.944L353.817 340.442L370.071 346.039Z" fill="white"></path><path d="M348.678 346.304L361.848 360.484L356.875 365.103C355.896 366.013 354.894 366.654 353.869 367.027C352.851 367.406 351.845 367.467 350.85 367.209C349.855 366.95 348.9 366.328 347.985 365.342C347.044 364.329 346.501 363.305 346.357 362.269C346.206 361.24 346.336 360.195 346.747 359.134L338.053 356.172L340.747 353.67L348.519 356.432C348.539 356.413 348.556 356.397 348.57 356.384C348.583 356.372 348.6 356.356 348.62 356.337L351.264 353.882L346.288 348.524L348.678 346.304ZM353.127 355.888L350.99 357.873C349.956 358.832 349.427 359.739 349.402 360.592C349.377 361.458 349.696 362.249 350.361 362.965C351.064 363.721 351.829 364.105 352.656 364.116C353.484 364.127 354.398 363.668 355.397 362.74L357.595 360.699L353.127 355.888Z" fill="white"></path><path d="M328.383 368.988L335.144 364.402L336.734 366.748L329.973 371.334L328.383 368.988ZM338.506 375.885L337.797 376.366L333.431 359.735L336.062 357.95L341.217 377.838L338.62 379.6L322.037 367.464L324.679 365.671L338.506 375.885Z" fill="white"></path><path d="M318.015 369.822L326.108 387.401L323.157 388.76L309.695 380.409L315.221 392.413L312.296 393.76L304.203 376.18L306.626 375.065L320.958 383.883L315.102 371.163L318.015 369.822Z" fill="white"></path><path d="M294.23 379.504L298.669 395.2L303.99 393.695L304.817 396.622L291.076 400.508L290.249 397.581L295.583 396.073L291.144 380.377L294.23 379.504Z" fill="white"></path><path d="M281.361 382.675L284.643 401.747L281.483 402.291L278.2 383.219L281.361 382.675Z" fill="white"></path><path d="M272.167 384.226L273.408 403.539L261.255 404.32L261.06 401.286L269.957 400.714L269.657 396.037L262.69 396.485L262.495 393.45L269.462 393.002L269.106 387.47L259.946 388.059L259.751 385.024L272.167 384.226Z" fill="white"></path><path d="M228.092 389.104L227.443 391.535L219.162 389.327L219.81 386.896L228.092 389.104Z" fill="white"></path><path d="M191.538 366.344L183.668 378.868C184.247 378.829 184.764 378.838 185.218 378.895C185.664 378.947 186.098 379.045 186.519 379.19L185.337 381.745C184.911 381.608 184.405 381.54 183.817 381.541C183.221 381.536 182.633 381.597 182.053 381.722C181.474 381.848 180.977 382.042 180.562 382.303L178.549 381.038L188.846 364.653L191.538 366.344Z" fill="white"></path><path d="M180.278 358.103C181.099 358.759 181.776 359.476 182.309 360.256C182.842 361.036 183.242 361.827 183.509 362.63L181.085 364.445C180.806 363.703 180.468 363.003 180.074 362.345C179.679 361.688 179.139 361.086 178.455 360.539C177.577 359.838 176.692 359.514 175.799 359.567C174.894 359.623 174.122 360.05 173.484 360.849C172.776 361.735 172.524 362.648 172.728 363.589C172.926 364.538 173.543 365.426 174.58 366.254C175.077 366.651 175.592 367.01 176.126 367.33C176.653 367.645 177.198 367.945 177.761 368.23L170.417 375.473L163.289 369.779L165.354 367.482L170.408 371.52L174.44 367.558L174.528 369.132C174.122 368.961 173.714 368.748 173.305 368.492C172.896 368.236 172.487 367.944 172.076 367.616C171.076 366.816 170.363 365.922 169.937 364.934C169.499 363.947 169.365 362.926 169.536 361.871C169.701 360.823 170.174 359.809 170.957 358.83C171.779 357.801 172.723 357.098 173.79 356.723C174.843 356.35 175.934 356.284 177.062 356.525C178.184 356.76 179.256 357.286 180.278 358.103Z" fill="white"></path><path d="M169.501 342.573L167.654 344.657C167.079 344.009 166.528 343.666 166.001 343.629C165.475 343.591 164.867 343.878 164.178 344.49L150.08 357.01L147.95 354.612L162.576 341.624C163.795 340.541 164.924 340.056 165.962 340.17C166.993 340.277 167.974 340.854 168.904 341.901L169.501 342.573Z" fill="white"></path><path d="M153.742 329.986C154.776 331.512 155.353 333.102 155.473 334.758C155.592 336.413 155.26 338.002 154.477 339.523C153.685 341.05 152.447 342.385 150.761 343.527C149.075 344.669 147.38 345.322 145.676 345.486C143.965 345.654 142.363 345.376 140.87 344.651C139.377 343.926 138.113 342.801 137.079 341.275C136.046 339.749 135.469 338.158 135.349 336.503C135.229 334.847 135.565 333.256 136.356 331.73C137.14 330.208 138.375 328.876 140.061 327.734C141.747 326.591 143.446 325.936 145.157 325.767C146.861 325.604 148.459 325.884 149.952 326.609C151.445 327.334 152.709 328.46 153.742 329.986ZM151.167 331.73C150.408 330.609 149.524 329.838 148.516 329.419C147.501 329.005 146.429 328.902 145.301 329.109C144.173 329.317 143.059 329.793 141.961 330.538C140.862 331.282 140.007 332.139 139.396 333.11C138.784 334.081 138.487 335.112 138.502 336.203C138.511 337.3 138.895 338.409 139.654 339.53C140.419 340.659 141.309 341.431 142.325 341.845C143.332 342.265 144.4 342.37 145.529 342.163C146.657 341.955 147.77 341.479 148.869 340.734C149.968 339.99 150.822 339.133 151.434 338.162C152.045 337.191 152.347 336.158 152.339 335.061C152.323 333.97 151.932 332.86 151.167 331.73Z" fill="white"></path><path d="M142.395 309.769C143.12 311.433 143.395 312.952 143.219 314.325C143.04 315.69 142.475 316.896 141.524 317.944C140.565 318.995 139.279 319.872 137.665 320.576L127.502 325.005L126.221 322.065L135.611 317.973C136.447 317.608 137.199 317.21 137.865 316.779C138.532 316.348 139.069 315.862 139.477 315.322C139.882 314.774 140.109 314.142 140.159 313.427C140.201 312.715 140.021 311.899 139.62 310.978C139.215 310.049 138.739 309.361 138.193 308.916C137.635 308.465 137.017 308.202 136.34 308.125C135.663 308.048 134.942 308.111 134.176 308.314C133.398 308.512 132.595 308.792 131.767 309.153L122.377 313.245L121.096 310.305L131.259 305.876C132.872 305.173 134.391 304.828 135.814 304.841C137.229 304.857 138.499 305.269 139.624 306.075C140.746 306.873 141.669 308.104 142.395 309.769Z" fill="white"></path><path d="M136.659 296.206L117.883 300.896L116.239 294.311C115.915 293.014 115.837 291.828 116.005 290.75C116.164 289.675 116.596 288.765 117.303 288.018C118.009 287.272 119.015 286.736 120.32 286.409C121.662 286.074 122.82 286.094 123.797 286.467C124.772 286.832 125.624 287.45 126.355 288.322L133.145 282.137L134.036 285.705L127.866 291.178C127.873 291.205 127.879 291.228 127.883 291.246C127.888 291.263 127.893 291.286 127.9 291.313L128.774 294.813L135.869 293.041L136.659 296.206ZM126.119 295.476L125.412 292.646C125.07 291.278 124.532 290.378 123.796 289.944C123.05 289.503 122.203 289.402 121.255 289.638C120.254 289.888 119.549 290.373 119.139 291.093C118.73 291.813 118.691 292.834 119.021 294.157L119.748 297.068L126.119 295.476Z" fill="white"></path><path d="M132.258 271.995C132.334 272.784 132.342 273.593 132.282 274.423C132.223 275.253 132.126 276.026 131.991 276.742C131.845 277.45 131.688 278.03 131.518 278.481L128.095 278.406C128.323 277.792 128.537 277.124 128.736 276.401C128.926 275.679 129.072 274.929 129.174 274.151C129.265 273.365 129.273 272.582 129.199 271.802C129.099 270.756 128.822 269.94 128.367 269.354C127.903 268.76 127.258 268.502 126.433 268.581C125.8 268.642 125.302 268.86 124.94 269.238C124.578 269.615 124.283 270.161 124.056 270.878C123.819 271.595 123.576 272.497 123.329 273.586C123.089 274.655 122.789 275.632 122.429 276.518C122.06 277.405 121.547 278.135 120.889 278.707C120.23 279.27 119.341 279.605 118.222 279.712C117.176 279.812 116.22 279.64 115.353 279.195C114.487 278.75 113.774 278.032 113.216 277.039C112.659 276.046 112.307 274.788 112.161 273.266C112.045 272.055 112.069 270.904 112.234 269.815C112.398 268.725 112.601 267.803 112.844 267.048L116.178 267.063C115.748 268.178 115.45 269.225 115.284 270.203C115.118 271.173 115.082 272.157 115.178 273.157C115.28 274.222 115.544 275.048 115.971 275.637C116.397 276.225 117.001 276.482 117.78 276.408C118.358 276.352 118.811 276.147 119.138 275.792C119.465 275.437 119.728 274.948 119.928 274.328C120.127 273.697 120.318 272.934 120.5 272.037C120.8 270.62 121.165 269.409 121.597 268.405C122.029 267.401 122.597 266.62 123.303 266.061C124.008 265.494 124.915 265.157 126.025 265.051C126.668 264.99 127.329 265.037 128.011 265.194C128.683 265.352 129.317 265.685 129.912 266.193C130.497 266.692 131.001 267.412 131.424 268.353C131.838 269.295 132.116 270.509 132.258 271.995Z" fill="white"></path><path d="M131.127 250.324L111.947 247.741L112.91 240.589C113.158 238.754 113.761 237.175 114.72 235.854C115.671 234.522 116.918 233.546 118.461 232.926C119.996 232.305 121.768 232.13 123.777 232.401C125.786 232.671 127.453 233.309 128.777 234.315C130.093 235.32 131.037 236.591 131.612 238.128C132.178 239.655 132.337 241.337 132.09 243.172L131.127 250.324ZM128.705 246.762L129.24 242.789C129.419 241.464 129.294 240.322 128.865 239.363C128.427 238.402 127.736 237.63 126.792 237.047C125.839 236.454 124.678 236.065 123.308 235.88C121.938 235.696 120.72 235.764 119.654 236.086C118.58 236.397 117.709 236.958 117.042 237.77C116.366 238.581 115.938 239.649 115.76 240.973L115.225 244.946L128.705 246.762Z" fill="white"></path><path d="M134.72 228.022L116.201 222.404L119.736 210.75L122.646 211.633L120.058 220.165L124.542 221.525L126.569 214.845L129.479 215.728L127.452 222.408L132.757 224.017L135.422 215.234L138.332 216.117L134.72 228.022Z" fill="white"></path><path d="M148.08 196.17C147.117 197.87 145.917 199.144 144.482 199.994C143.047 200.843 141.474 201.244 139.764 201.196C138.059 201.14 136.316 200.607 134.536 199.598C132.773 198.598 131.449 197.355 130.565 195.869C129.685 194.374 129.257 192.765 129.281 191.041C129.31 189.31 129.808 187.59 130.776 185.882C131.285 184.984 131.862 184.183 132.505 183.478C133.153 182.765 133.786 182.191 134.402 181.757L136.836 183.518C136.209 183.989 135.601 184.539 135.011 185.168C134.421 185.798 133.892 186.526 133.423 187.351C132.678 188.666 132.333 189.901 132.388 191.055C132.448 192.201 132.819 193.238 133.501 194.165C134.183 195.092 135.098 195.88 136.244 196.53C137.438 197.208 138.617 197.605 139.778 197.724C140.945 197.834 142.029 197.623 143.03 197.089C144.037 196.547 144.901 195.639 145.624 194.364C145.824 194.011 146.021 193.599 146.215 193.126C146.409 192.653 146.57 192.173 146.699 191.684L143.259 189.734L141.882 192.163L139.513 190.82L142.472 185.601L149.976 189.856C149.983 190.665 149.836 191.625 149.535 192.736C149.233 193.847 148.748 194.992 148.08 196.17Z" fill="white"></path><path d="M157.162 174.049L152.049 180.421L149.839 178.647L154.951 172.275L157.162 174.049ZM145.457 170.435L145.994 169.766L155.059 184.378L153.069 186.858L142.292 169.366L144.256 166.919L163.676 173.639L161.677 176.13L145.457 170.435Z" fill="white"></path><path d="M166.851 170.299L153.766 156.04L158.766 151.451C159.751 150.548 160.756 149.912 161.783 149.545C162.804 149.172 163.81 149.117 164.803 149.382C165.797 149.646 166.748 150.274 167.658 151.265C168.592 152.284 169.129 153.311 169.267 154.347C169.412 155.378 169.276 156.422 168.859 157.48L177.535 160.494L174.826 162.98L167.07 160.172C167.05 160.191 167.033 160.207 167.019 160.219C167.006 160.232 166.989 160.247 166.968 160.266L164.31 162.705L169.255 168.093L166.851 170.299ZM162.459 160.689L164.608 158.717C165.647 157.763 166.182 156.86 166.212 156.007C166.242 155.141 165.927 154.348 165.267 153.628C164.569 152.868 163.806 152.479 162.979 152.463C162.151 152.447 161.235 152.901 160.23 153.823L158.02 155.851L162.459 160.689Z" fill="white"></path><path d="M187.28 147.736L180.492 152.282L178.915 149.927L185.703 145.382L187.28 147.736ZM177.198 140.779L177.91 140.302L182.177 156.96L179.535 158.729L174.499 138.81L177.106 137.064L193.617 149.299L190.964 151.076L177.198 140.779Z" fill="white"></path><path d="M197.657 146.962L189.671 129.334L192.63 127.994L206.041 136.426L200.588 124.388L203.522 123.059L211.508 140.687L209.078 141.788L194.8 132.884L200.578 145.639L197.657 146.962Z" fill="white"></path><path d="M221.5 137.425L217.156 121.702L211.827 123.175L211.017 120.243L224.781 116.441L225.591 119.372L220.248 120.848L224.591 136.571L221.5 137.425Z" fill="white"></path><path d="M234.377 134.334L231.208 115.243L234.371 114.717L237.541 133.809L234.377 134.334Z" fill="white"></path><path d="M243.595 132.836L242.469 113.516L254.626 112.807L254.803 115.843L245.902 116.362L246.175 121.04L253.144 120.634L253.321 123.67L246.352 124.076L246.674 129.61L255.838 129.076L256.015 132.112L243.595 132.836Z" fill="white"></path></g></g></g><defs><linearGradient id="paint0_linear_275_1671" x1="258.755" y1="439.956" x2="258.755" y2="50.8242" gradientUnits="userSpaceOnUse"><stop stop-color="#2733DD" stop-opacity="0"></stop><stop offset="0.196628" stop-color="#2733DD"></stop><stop offset="0.81159" stop-color="#2733DD"></stop><stop offset="0.986765" stop-color="#2733DD" stop-opacity="0"></stop></linearGradient></defs></svg>