<svg xmlns="http://www.w3.org/2000/svg" width="368" height="31" viewBox="0 0 368 31" fill="none"><g opacity="0.4"><path fill-rule="evenodd" clip-rule="evenodd" d="M29.7767 14.803C29.6976 14.8957 29.6272 14.9989 29.5666 15.1127C29.4198 15.3858 29.3459 15.7064 29.3459 16.0748C29.3459 16.4475 29.4198 16.7725 29.5666 17.0499C29.6018 17.1161 29.6404 17.1786 29.6818 17.2377C28.7921 24.6139 22.5114 30.3301 14.8945 30.3301C6.66833 30.3301 0 23.6615 0 15.4352C0 7.20897 6.66833 0.540283 14.8945 0.540283C22.9097 0.540283 29.4453 6.87 29.7767 14.803ZM21.4644 16.8874V14.7877H22.3936V14.3001H21.4644V13.403H20.8727V14.3001H20.4112V14.7877H20.8727V16.8874C20.8727 17.2341 20.9553 17.4833 21.1197 17.635C21.2841 17.7866 21.5312 17.8625 21.8609 17.8625H22.3936V17.3619H21.9585C21.7765 17.3619 21.6481 17.3273 21.5751 17.2579C21.5013 17.1843 21.4644 17.0607 21.4644 16.8874ZM11.2812 14.4106C11.0641 14.2936 10.817 14.2352 10.5401 14.2352C10.2579 14.2352 10.0021 14.3044 9.77259 14.4432C9.54314 14.5818 9.37874 14.7769 9.27852 15.0282C9.16599 14.7682 8.99455 14.571 8.7651 14.4367C8.53564 14.3023 8.27102 14.2352 7.97211 14.2352C7.73386 14.2352 7.51495 14.285 7.31538 14.3846C7.12021 14.4843 6.9646 14.6273 6.84768 14.8137V14.3001H6.25601V17.8625H6.84768V15.8993C6.84768 15.5266 6.93823 15.2427 7.12021 15.0478C7.30219 14.8484 7.54747 14.7487 7.85518 14.7487C8.15409 14.7487 8.39058 14.8441 8.56377 15.0347C8.74136 15.221 8.83015 15.4919 8.83015 15.8472V17.8625H9.41566V15.8993C9.41566 15.5266 9.50621 15.2427 9.6882 15.0478C9.87018 14.8484 10.1155 14.7487 10.4232 14.7487C10.7221 14.7487 10.9577 14.8441 11.1318 15.0347C11.3093 15.221 11.3981 15.4919 11.3981 15.8472V17.8625H11.9828V15.7628C11.9828 15.4334 11.9204 15.1539 11.7946 14.9242C11.6689 14.6945 11.4975 14.5233 11.2812 14.4106ZM12.9534 15.1127C12.8057 15.3858 12.7327 15.7043 12.7327 16.0684C12.7327 16.428 12.8057 16.7487 12.9534 17.0304C13.101 17.3121 13.3024 17.531 13.5582 17.6869C13.814 17.843 14.0998 17.921 14.4163 17.921C14.724 17.921 14.9921 17.8538 15.2224 17.7195C15.4563 17.5808 15.6312 17.4075 15.749 17.1995V17.8625H16.3469V14.3001H15.749V14.9502C15.6356 14.7466 15.4651 14.5775 15.2347 14.4432C15.0053 14.3088 14.7345 14.2417 14.4224 14.2417C14.1059 14.2417 13.8175 14.3174 13.5582 14.4692C13.3024 14.6208 13.101 14.8353 12.9534 15.1127ZM15.5864 15.3728C15.6945 15.5721 15.749 15.8061 15.749 16.0748C15.749 16.3435 15.6945 16.5797 15.5864 16.7834C15.4774 16.9828 15.3306 17.1366 15.1442 17.2449C14.9622 17.3489 14.7609 17.401 14.5393 17.401C14.3187 17.401 14.1173 17.3489 13.9354 17.2449C13.7534 17.1366 13.6074 16.9828 13.4993 16.7834C13.3912 16.5797 13.3367 16.3413 13.3367 16.0684C13.3367 15.7996 13.3912 15.5656 13.4993 15.3663C13.6074 15.1669 13.7534 15.0152 13.9354 14.9112C14.1173 14.8072 14.3187 14.7552 14.5393 14.7552C14.7609 14.7552 14.9622 14.8093 15.1442 14.9177C15.3306 15.0217 15.4774 15.1734 15.5864 15.3728ZM18.6071 17.921C18.3346 17.921 18.0893 17.8755 17.8731 17.7844C17.6559 17.6891 17.4854 17.5591 17.3596 17.3945C17.2339 17.2254 17.1645 17.0326 17.1513 16.8159H17.7623C17.7799 16.9936 17.8625 17.1387 18.0093 17.2514C18.1614 17.3641 18.3584 17.4205 18.601 17.4205C18.8261 17.4205 19.0036 17.3706 19.1338 17.2709C19.2639 17.1712 19.3289 17.0456 19.3289 16.8939C19.3289 16.7379 19.2595 16.623 19.1214 16.5493C18.9825 16.4714 18.768 16.3955 18.4779 16.3218C18.2133 16.2525 17.9961 16.1832 17.8273 16.1138C17.6629 16.0401 17.5196 15.9339 17.3983 15.7953C17.2814 15.6523 17.2225 15.466 17.2225 15.2362C17.2225 15.0542 17.277 14.8874 17.3851 14.7357C17.4941 14.584 17.648 14.4648 17.8467 14.3781C18.0463 14.2871 18.2739 14.2417 18.5298 14.2417C18.9236 14.2417 19.2428 14.3413 19.4854 14.5407C19.7281 14.74 19.8582 15.013 19.8749 15.3598H19.2832C19.2709 15.1734 19.1944 15.0238 19.0564 14.9112C18.9219 14.7985 18.7399 14.7422 18.5096 14.7422C18.2977 14.7422 18.1289 14.7877 18.0032 14.8787C17.8775 14.9697 17.8142 15.0889 17.8142 15.2362C17.8142 15.3533 17.8511 15.4508 17.9249 15.5287C18.0032 15.6024 18.0981 15.6631 18.2107 15.7108C18.3276 15.7541 18.4885 15.804 18.6924 15.8603C18.9474 15.9296 19.1557 15.999 19.3157 16.0684C19.4766 16.1333 19.6129 16.233 19.7254 16.3673C19.8423 16.5017 19.903 16.6772 19.9074 16.8939C19.9074 17.089 19.8538 17.2644 19.7448 17.4205C19.6366 17.5764 19.4828 17.7 19.2832 17.791C19.0889 17.8776 18.863 17.921 18.6071 17.921ZM26.3612 15.9448C26.3612 16.0574 26.3542 16.1767 26.341 16.3023H23.4943C23.5154 16.6533 23.635 16.9286 23.8513 17.1279C24.0728 17.3229 24.3392 17.4205 24.6513 17.4205C24.9071 17.4205 25.119 17.3619 25.2887 17.2449C25.4619 17.1236 25.5832 16.9632 25.6526 16.7638H26.2891C26.1942 17.1063 26.0034 17.3858 25.7177 17.6025C25.4311 17.8148 25.0759 17.921 24.6513 17.921C24.3128 17.921 24.0095 17.8452 23.7414 17.6935C23.4767 17.5418 23.2684 17.3273 23.1172 17.0499C22.9651 16.7682 22.8895 16.4432 22.8895 16.0748C22.8895 15.7064 22.9633 15.3836 23.111 15.1062C23.2578 14.8288 23.4636 14.6165 23.7282 14.4692C23.9972 14.3174 24.3049 14.2417 24.6513 14.2417C24.9889 14.2417 25.2887 14.3153 25.548 14.4627C25.8082 14.61 26.0078 14.8137 26.1467 15.0737C26.2891 15.3294 26.3612 15.6198 26.3612 15.9448ZM25.7502 15.8213C25.7502 15.5959 25.7001 15.4031 25.6008 15.2427C25.5005 15.0781 25.3643 14.9546 25.1911 14.8722C25.0214 14.7855 24.8333 14.7422 24.6249 14.7422C24.326 14.7422 24.0702 14.8375 23.8583 15.0282C23.6499 15.2189 23.5312 15.4833 23.5005 15.8213H25.7502ZM28.1758 14.4041C27.985 14.5168 27.8373 14.675 27.7336 14.8787V14.3001H27.1419V17.8625H27.7336V15.9253C27.7336 15.2059 28.065 14.8462 28.7279 14.8462H28.8844V14.2352C28.6066 14.2352 28.3701 14.2915 28.1758 14.4041Z" fill="#FEFEFE" fill-opacity="0.7"></path><path fill-rule="evenodd" clip-rule="evenodd" d="M20.5697 14.7877C20.5601 15.0024 20.5557 15.2183 20.5557 15.4352C20.5557 23.6615 27.224 30.3301 35.4502 30.3301C43.6764 30.3301 50.3456 23.6615 50.3456 15.4352C50.3456 7.20897 43.6764 0.540282 35.4502 0.540283C27.6064 0.540284 21.1781 6.60421 20.5979 14.3002H20.8722V13.4031H21.4638V14.3002H22.3931V14.7877H21.4638V16.8875C21.4638 17.0608 21.5007 17.1843 21.5746 17.258C21.6476 17.3273 21.7759 17.362 21.9579 17.362H22.3931V17.8625H21.8603C21.5306 17.8625 21.2836 17.7867 21.1192 17.635C20.9548 17.4833 20.8722 17.2341 20.8722 16.8875V14.7877H20.5697ZM40.333 15.1128C40.1853 15.3858 40.1123 15.7043 40.1123 16.0684C40.1123 16.4281 40.1853 16.7487 40.333 17.0305C40.4807 17.3122 40.682 17.531 40.9378 17.687C41.198 17.843 41.4855 17.9211 41.802 17.9211C42.1097 17.9211 42.3787 17.8539 42.6082 17.7195C42.8376 17.5808 43.0117 17.4054 43.1286 17.193V17.8625H43.7265V13.0521H43.1286V14.9372C43.0029 14.7292 42.8209 14.5624 42.5827 14.4367C42.3436 14.3067 42.086 14.2417 41.809 14.2417C41.4882 14.2417 41.198 14.3175 40.9378 14.4692C40.682 14.6209 40.4807 14.8354 40.333 15.1128ZM42.966 15.3728C43.0741 15.5722 43.1286 15.8062 43.1286 16.0749C43.1286 16.3435 43.0741 16.5798 42.966 16.7834C42.8579 16.9828 42.7102 17.1366 42.5238 17.245C42.3418 17.349 42.1405 17.401 41.9189 17.401C41.6983 17.401 41.4969 17.349 41.315 17.245C41.133 17.1366 40.987 16.9828 40.8789 16.7834C40.7708 16.5798 40.7163 16.3414 40.7163 16.0684C40.7163 15.7997 40.7708 15.5657 40.8789 15.3663C40.987 15.167 41.133 15.0152 41.315 14.9112C41.4969 14.8072 41.6983 14.7553 41.9189 14.7553C42.1405 14.7553 42.3418 14.8094 42.5238 14.9177C42.7102 15.0217 42.8579 15.1735 42.966 15.3728ZM26.3607 15.9448C26.3607 16.0575 26.3536 16.1767 26.3413 16.3024H23.4938C23.5157 16.6534 23.6344 16.9286 23.8516 17.128C24.0722 17.323 24.3386 17.4205 24.6507 17.4205C24.9066 17.4205 25.1184 17.362 25.2881 17.245C25.4613 17.1236 25.5826 16.9632 25.6521 16.7639H26.2886C26.1936 17.1063 26.0029 17.3858 25.7171 17.6025C25.4305 17.8149 25.0753 17.9211 24.6507 17.9211C24.3131 17.9211 24.0098 17.8452 23.7408 17.6935C23.4762 17.5418 23.2687 17.3273 23.1166 17.0499C22.9645 16.7682 22.8889 16.4432 22.8889 16.0749C22.8889 15.7065 22.9628 15.3836 23.1105 15.1063C23.2573 14.8289 23.463 14.6165 23.7276 14.4692C23.9966 14.3175 24.3043 14.2417 24.6507 14.2417C24.9892 14.2417 25.2881 14.3153 25.5475 14.4627C25.8077 14.61 26.0072 14.8137 26.1462 15.0738C26.2886 15.3294 26.3607 15.6198 26.3607 15.9448ZM25.7497 15.8213C25.7497 15.596 25.6995 15.4031 25.6002 15.2427C25.5 15.0781 25.3637 14.9546 25.1905 14.8723C25.0217 14.7856 24.8327 14.7422 24.6243 14.7422C24.3254 14.7422 24.0705 14.8375 23.8577 15.0282C23.6494 15.2189 23.5307 15.4833 23.4999 15.8213H25.7497ZM28.1752 14.4042C27.9844 14.5168 27.8368 14.6751 27.733 14.8788V14.3002H27.1414V17.8625H27.733V15.9253C27.733 15.2059 28.0645 14.8462 28.7273 14.8462H28.8838V14.2352C28.606 14.2352 28.3695 14.2915 28.1752 14.4042ZM29.3454 16.0749C29.3454 15.7065 29.4192 15.3858 29.566 15.1128C29.7137 14.8354 29.9177 14.6209 30.177 14.4692C30.4417 14.3175 30.7432 14.2417 31.0808 14.2417C31.5186 14.2417 31.8782 14.3479 32.1604 14.5602C32.4461 14.7726 32.6343 15.0673 32.7257 15.4443H32.0883C32.0276 15.2276 31.909 15.0565 31.7314 14.9307C31.5573 14.8051 31.341 14.7422 31.0808 14.7422C30.7432 14.7422 30.4698 14.8593 30.2623 15.0933C30.054 15.3229 29.9502 15.6501 29.9502 16.0749C29.9502 16.5039 30.054 16.8354 30.2623 17.0694C30.4698 17.3035 30.7432 17.4205 31.0808 17.4205C31.341 17.4205 31.5573 17.3598 31.7314 17.2385C31.9046 17.1171 32.0233 16.9438 32.0883 16.7184H32.7257C32.6308 17.0824 32.44 17.375 32.1534 17.596C31.8676 17.8127 31.5098 17.9211 31.0808 17.9211C30.7432 17.9211 30.4417 17.8452 30.177 17.6935C29.9177 17.5418 29.7137 17.3273 29.566 17.0499C29.4192 16.7726 29.3454 16.4475 29.3454 16.0749ZM33.5152 15.1128C33.3675 15.3858 33.2936 15.7043 33.2936 16.0684C33.2936 16.4281 33.3675 16.7487 33.5152 17.0305C33.662 17.3122 33.8642 17.531 34.1191 17.687C34.375 17.843 34.6616 17.9211 34.9772 17.9211C35.2849 17.9211 35.5539 17.8539 35.7834 17.7195C36.0181 17.5808 36.1931 17.4075 36.31 17.1995V17.8625H36.9087V14.3002H36.31V14.9503C36.1974 14.7466 36.026 14.5776 35.7966 14.4432C35.5671 14.3088 35.2963 14.2417 34.9842 14.2417C34.6677 14.2417 34.3794 14.3175 34.1191 14.4692C33.8642 14.6209 33.662 14.8354 33.5152 15.1128ZM36.1473 15.3728C36.2564 15.5722 36.31 15.8062 36.31 16.0749C36.31 16.3435 36.2564 16.5798 36.1473 16.7834C36.0392 16.9828 35.8924 17.1366 35.706 17.245C35.524 17.349 35.3218 17.401 35.1011 17.401C34.8805 17.401 34.6783 17.349 34.4963 17.245C34.3143 17.1366 34.1693 16.9828 34.0611 16.7834C33.953 16.5798 33.8985 16.3414 33.8985 16.0684C33.8985 15.7997 33.953 15.5657 34.0611 15.3663C34.1693 15.167 34.3143 15.0152 34.4963 14.9112C34.6783 14.8072 34.8805 14.7553 35.1011 14.7553C35.3218 14.7553 35.524 14.8094 35.706 14.9177C35.8924 15.0217 36.0392 15.1735 36.1473 15.3728ZM38.4999 14.8788C38.6037 14.6751 38.7505 14.5168 38.9413 14.4042C39.1364 14.2915 39.3729 14.2352 39.6499 14.2352V14.8462H39.4942C38.8314 14.8462 38.4999 15.2059 38.4999 15.9253V17.8625H37.9083V14.3002H38.4999V14.8788Z" fill="white" fill-opacity="0.5"></path><path fill-rule="evenodd" clip-rule="evenodd" d="M105.02 6.64574C102.987 6.72986 101.236 7.30137 99.9586 8.29721C99.7195 8.48382 99.2641 8.9262 99.0874 9.14326C98.4808 9.88983 98.1318 10.7256 98.0043 11.736C97.9788 11.9409 97.9788 12.6616 98.0052 12.8421C98.1792 14.0557 98.8439 14.9951 100.148 15.8713C100.582 16.1631 100.925 16.3605 101.91 16.8859C102.277 17.0817 102.666 17.2937 102.775 17.357C103.633 17.8547 104.039 18.2489 104.172 18.7099C104.215 18.8656 104.215 19.1047 104.171 19.2701C104.028 19.7928 103.536 20.2275 102.812 20.4678C102.417 20.5991 101.996 20.6642 101.47 20.6758C100.203 20.7038 98.7287 20.3901 97.468 19.8245C97.2808 19.7406 97.0074 19.6035 96.9695 19.5747C96.959 19.5669 96.9467 19.5641 96.9423 19.5685C96.9256 19.5851 96.1291 23.2754 96.1396 23.2854C96.1616 23.3049 96.4948 23.4279 96.7788 23.5211C97.7256 23.832 98.8166 24.0594 99.8417 24.1599C100.724 24.2464 101.652 24.249 102.468 24.1672C104.979 23.9154 106.985 22.8885 108.035 21.317C108.632 20.4244 108.917 19.404 108.889 18.2646C108.878 17.8093 108.824 17.4754 108.701 17.0995C108.349 16.0227 107.566 15.1556 106.194 14.3256C105.881 14.1362 105.509 13.9315 104.866 13.5959C104.14 13.2163 103.866 13.0634 103.582 12.8781C103.306 12.697 103.155 12.5798 103.009 12.4298C102.753 12.1677 102.643 11.9317 102.643 11.6499C102.644 11.0254 103.268 10.4906 104.243 10.2802C104.773 10.1657 105.494 10.1495 106.223 10.2358C107.059 10.3346 108.02 10.591 108.747 10.9093C108.847 10.9528 108.929 10.9867 108.932 10.9846C108.934 10.9825 109.111 10.186 109.326 9.21456C109.54 8.24313 109.719 7.43697 109.723 7.42309C109.733 7.39257 109.69 7.37287 109.385 7.26971C108.502 6.97122 107.411 6.7542 106.421 6.68036C106.308 6.67194 106.176 6.66186 106.128 6.65796C106.017 6.64903 105.167 6.63965 105.02 6.64574ZM69.4364 6.92761C69.4267 6.95629 69.3415 7.44651 69.3459 7.45074C69.3485 7.45285 69.4487 7.4746 69.5692 7.49909C70.509 7.68989 71.4796 7.96525 72.3323 8.28276C73.0814 8.56186 73.3513 8.6734 73.6106 8.80989C74.0757 9.05517 74.3834 9.34537 74.5539 9.69976C74.6937 9.99023 74.6858 9.9599 75.4814 12.9713C75.8085 14.2078 76.1021 15.3164 76.1338 15.4349C76.19 15.6483 77.4789 20.5188 77.6142 21.0297C77.6529 21.1759 77.8419 21.8917 78.0354 22.6205L78.3853 23.9455L80.7475 23.9456H83.1098L86.7407 15.4402C88.7372 10.7623 90.3733 6.92919 90.3759 6.92225C90.3795 6.91505 89.3711 6.90965 88.0269 6.90965H85.6725L85.6479 6.9707C85.6338 7.00427 84.5859 9.60112 83.319 12.7415C82.0522 15.8819 81.0104 18.461 81.0034 18.4729C80.9946 18.4881 80.9902 18.4889 80.9902 18.4758C80.9893 18.439 79.0815 8.62233 79.0455 8.47C78.9101 7.89346 78.5461 7.42686 78.0257 7.16187C77.7681 7.03105 77.5035 6.95581 77.1923 6.92478C76.954 6.90112 69.4452 6.90387 69.4364 6.92761ZM92.267 6.94915C92.2626 6.97088 91.4362 10.783 90.4304 15.4205C89.4238 20.058 88.5974 23.8733 88.593 23.8989L88.5851 23.9456H90.8287H93.0723L94.9044 15.4671C95.9128 10.804 96.7401 6.97088 96.7427 6.94915L96.7489 6.90965H94.5123H92.2749L92.267 6.94915ZM117.035 6.92615C116.294 7.00154 115.749 7.42398 115.362 8.22398C115.315 8.32252 108.791 23.647 108.677 23.9277C108.672 23.942 109.147 23.9456 111.024 23.9456H113.379L113.557 23.4393C113.656 23.1608 113.86 22.5824 114.011 22.1539L114.284 21.3749L117.157 21.3747C118.736 21.3746 120.029 21.3761 120.029 21.378C120.029 21.38 120.153 21.9569 120.304 22.6601L120.579 23.9384L122.659 23.9421C124.636 23.9455 124.739 23.9445 124.732 23.9206C124.723 23.8934 121.114 6.9287 121.114 6.91682C121.114 6.90404 117.164 6.91307 117.035 6.92615ZM118.634 14.701C119.013 16.4382 119.324 17.8716 119.324 17.8862C119.324 17.9118 119.261 17.9127 117.459 17.9127C115.974 17.9127 115.596 17.9091 115.6 17.8947C115.69 17.6357 117.938 11.5214 117.941 11.5299C117.943 11.5366 118.255 12.9636 118.634 14.701Z" fill="white"></path><path fill-rule="evenodd" clip-rule="evenodd" d="M145.919 6.22521C145.987 6.06205 146.126 5.90909 146.281 5.83003L146.406 5.76587L149.592 5.77518C152.41 5.78343 152.804 5.78961 153.015 5.82871C153.697 5.9551 154.14 6.09123 154.563 6.30363C155.558 6.80352 156.145 7.59826 156.375 8.75702C156.445 9.10235 156.471 9.9145 156.428 10.355C156.309 11.5746 155.975 12.7348 155.502 13.5712C154.725 14.9488 153.523 15.7813 151.861 16.0909C151.336 16.1889 151.057 16.2065 149.767 16.2233L148.488 16.2401L148.354 16.3192C148.212 16.4038 148.097 16.539 148.037 16.6914C148.017 16.743 147.864 17.7066 147.698 18.8326L147.697 18.8386C147.412 20.7809 147.375 21.028 147.243 21.1789C147.224 21.2009 147.202 21.2209 147.179 21.2437L147.178 21.2442C147.128 21.2916 147.034 21.3558 146.972 21.3869C146.861 21.4418 146.819 21.4436 145.503 21.4516C144.583 21.4572 144.119 21.4506 144.056 21.4308C143.86 21.3694 143.732 21.1913 143.732 20.9791C143.732 20.9099 144.213 17.5897 144.801 13.601C145.58 8.30585 145.882 6.31535 145.919 6.22521ZM152.451 10.0375C152.318 9.43739 151.931 9.10481 151.208 8.96942C151.034 8.93689 150.764 8.92203 150.193 8.91359C149.417 8.90208 149.416 8.90216 149.316 8.96406L149.314 8.96476C149.29 8.97979 149.269 8.99289 149.25 9.00881C149.123 9.11492 149.089 9.3486 148.828 11.1376L148.826 11.1497C148.674 12.1854 148.551 13.0407 148.551 13.0503C148.551 13.086 150.461 13.0406 150.671 12.9999C151.241 12.8891 151.58 12.7221 151.874 12.4059C152.092 12.1727 152.217 11.9514 152.328 11.6061C152.473 11.1537 152.532 10.4045 152.451 10.0375ZM158.466 11.6223C159.133 11.1806 159.905 10.8808 160.652 10.7734C160.981 10.7264 161.685 10.7175 162.048 10.756C163.212 10.8798 163.942 11.2361 164.37 11.8883C164.445 12.0041 164.512 12.0945 164.516 12.0892C164.522 12.0838 164.55 11.9173 164.579 11.719C164.645 11.2745 164.689 11.1588 164.83 11.0589L164.937 10.9832L166.275 10.9755C167.171 10.9705 167.645 10.9775 167.713 10.9967C167.767 11.0126 167.852 11.0672 167.899 11.1181C167.912 11.1317 167.924 11.1422 167.935 11.1519C167.945 11.1607 167.954 11.1688 167.963 11.1779C168.066 11.2912 168.028 11.5557 167.502 15.1204C167.455 15.4372 167.404 15.7803 167.35 16.1515C166.816 19.7744 166.641 20.9062 166.601 20.9987C166.532 21.1547 166.383 21.3131 166.236 21.3857C166.123 21.4419 166.087 21.4435 164.885 21.4513C164.063 21.4566 163.617 21.4495 163.55 21.4304C163.417 21.3919 163.286 21.2551 163.246 21.1117C163.217 21.0102 163.22 20.9485 163.268 20.6293C163.299 20.428 163.323 20.2455 163.323 20.2239C163.323 20.2014 163.267 20.2422 163.191 20.3197C162.646 20.8789 161.877 21.3215 161.069 21.5405C160.171 21.784 159.09 21.7464 158.236 21.4418C157.036 21.0143 156.156 19.9422 155.815 18.493C155.466 17.0067 155.746 15.1714 156.54 13.7526C157.025 12.8852 157.721 12.1164 158.466 11.6223ZM169.267 11.4469C169.267 11.2606 169.415 11.053 169.588 10.9958C169.625 10.9834 170.27 10.9755 171.023 10.9782L172.389 10.9832L172.503 11.0464C172.644 11.1256 172.793 11.2764 172.853 11.3993C172.878 11.4512 173.229 12.6762 173.631 14.1216C174.035 15.5671 174.372 16.7651 174.381 16.7839C174.392 16.8046 175.08 15.7393 176.14 14.0635C177.098 12.5486 177.925 11.2617 177.979 11.2038C178.031 11.1458 178.127 11.0725 178.191 11.0408C178.306 10.9844 178.338 10.983 179.675 10.9748C180.608 10.9691 181.072 10.9757 181.135 10.9957C181.247 11.0307 181.369 11.1358 181.419 11.2398C181.463 11.3305 181.467 11.5667 181.427 11.6488C181.373 11.7582 172.946 24.7956 172.881 24.8713C172.845 24.9127 172.748 24.9823 172.665 25.0262L172.514 25.1057L171.083 25.0984L169.651 25.091L169.56 25.0159C169.401 24.8866 169.338 24.6846 169.398 24.5001C169.418 24.4416 170.021 23.5055 170.738 22.4199C171.455 21.3344 172.051 20.4321 172.061 20.4148C172.071 20.3975 171.447 18.3917 170.673 15.9575C169.899 13.5232 169.267 11.4935 169.267 11.4469ZM163.977 14.9725C163.759 14.2918 163.238 13.8204 162.535 13.6662C162.333 13.622 161.864 13.5939 161.68 13.6151C161.003 13.6933 160.332 14.0416 159.903 14.5367C159.37 15.153 159.068 16.0472 159.117 16.8677C159.15 17.4122 159.321 17.8479 159.632 18.1833C159.918 18.4908 160.231 18.667 160.665 18.7634C160.972 18.8317 161.527 18.8276 161.843 18.7547C162.885 18.5144 163.633 17.7957 163.958 16.7229C164.143 16.1117 164.15 15.5112 163.977 14.9725Z" fill="white"></path><path d="M208.326 5.83401C208.257 5.87789 208.204 5.94019 208.171 6.01481C208.134 6.09951 207.844 8.02094 207.04 13.5179C206.445 17.5819 205.959 20.9467 205.959 20.9951C205.961 21.1952 206.097 21.3756 206.288 21.4306C206.354 21.4497 206.781 21.4567 207.559 21.4514L208.731 21.4435L208.864 21.3795C209.037 21.2959 209.207 21.095 209.258 20.9117C209.301 20.761 211.427 6.35021 211.427 6.20945C211.427 6.07754 211.325 5.8961 211.212 5.82736L211.113 5.76747L209.772 5.76728L208.43 5.76709L208.326 5.83401Z" fill="#FEFEFE" fill-opacity="0.7"></path><path fill-rule="evenodd" clip-rule="evenodd" d="M198.46 10.7456C198.426 10.7509 198.296 10.7688 198.172 10.7853C198.048 10.8019 197.817 10.8494 197.657 10.891C195.448 11.4695 193.769 13.4427 193.332 15.9718C193.107 17.2748 193.239 18.4471 193.727 19.487C194.435 20.9961 195.766 21.7567 197.583 21.6905C198.021 21.6745 198.29 21.6331 198.698 21.5193C199.399 21.3238 200.125 20.9119 200.668 20.4021C200.785 20.2918 200.884 20.2047 200.887 20.2086C200.891 20.2124 200.872 20.3651 200.843 20.5479C200.815 20.7308 200.792 20.926 200.792 20.9818C200.792 21.1944 200.923 21.3741 201.12 21.4307C201.186 21.4498 201.629 21.4568 202.443 21.4515L203.665 21.4436L203.808 21.3683C203.988 21.2735 204.14 21.0919 204.191 20.9104C204.242 20.7303 205.583 11.6059 205.583 11.4419C205.583 11.2302 205.457 11.0558 205.262 10.998C205.13 10.9587 202.644 10.9605 202.511 10.9999C202.457 11.0162 202.371 11.0735 202.32 11.1273C202.218 11.2354 202.201 11.2998 202.127 11.8245L202.084 12.1292L201.964 11.9405C201.523 11.2509 200.787 10.8833 199.592 10.7562C199.352 10.7306 198.603 10.7235 198.46 10.7456ZM201.506 16.7588C201.964 15.2948 201.399 14.0003 200.163 13.6789C199.956 13.625 199.41 13.5883 199.213 13.6151C197.81 13.8062 196.823 14.9031 196.682 16.4283C196.607 17.2276 196.863 17.9557 197.359 18.3584C197.868 18.7698 198.61 18.9178 199.381 18.7612C200.387 18.5573 201.177 17.8126 201.506 16.7588Z" fill="#FEFEFE" fill-opacity="0.7"></path><path fill-rule="evenodd" clip-rule="evenodd" d="M183.82 5.8479C183.656 5.93568 183.566 6.02948 183.485 6.20011C183.447 6.27937 183.176 8.06581 182.354 13.6547C181.381 20.2762 181.276 21.0155 181.302 21.1106C181.34 21.2454 181.477 21.3927 181.599 21.4288C181.737 21.4696 184.406 21.4672 184.558 21.4261C184.706 21.3862 184.876 21.2161 184.915 21.0682C184.93 21.0093 185.078 20.0316 185.243 18.8957C185.41 17.7598 185.563 16.7774 185.585 16.7124C185.636 16.5658 185.767 16.4073 185.916 16.3141C186.051 16.2297 186.004 16.2325 187.537 16.2164C188.691 16.2042 189.004 16.179 189.607 16.0501C190.315 15.8984 190.908 15.6622 191.437 15.3201C192.758 14.4675 193.587 12.9965 193.906 10.9433C194.179 9.17594 193.912 7.89907 193.081 7.01403C192.51 6.40581 191.733 6.03793 190.601 5.84007C190.278 5.78361 190.205 5.78222 187.123 5.77366L183.975 5.76489L183.82 5.8479ZM189.511 9.24776C189.371 9.14534 189.059 9.02349 188.797 8.96969C188.54 8.91721 187.024 8.88775 186.923 8.93338C186.84 8.9711 186.751 9.06156 186.706 9.15598C186.684 9.19827 186.541 10.0914 186.386 11.1407L186.104 13.0488L186.871 13.0568C187.648 13.0648 188.061 13.0401 188.4 12.9653C189.358 12.7536 189.859 12.1423 190.019 10.9885C190.136 10.1489 189.972 9.58694 189.511 9.24776Z" fill="#FEFEFE" fill-opacity="0.7"></path><path fill-rule="evenodd" clip-rule="evenodd" d="M237.119 8.88301C238.059 8.96231 238.999 8.4072 239.587 7.70341C240.165 6.97979 240.547 6.00835 240.449 5.01709C239.616 5.05674 238.588 5.5722 238.001 6.29582C237.462 6.92031 237.002 7.9314 237.119 8.88301ZM248.302 21.6504V6.19668H254.031C256.988 6.19668 259.054 8.2585 259.054 11.2719C259.054 14.2854 256.949 16.367 253.953 16.367H250.672V21.6504H248.302ZM240.439 9.07134C239.611 9.02309 238.855 9.32346 238.244 9.56608C237.852 9.72222 237.519 9.85443 237.266 9.85443C236.982 9.85443 236.636 9.71515 236.247 9.55877L236.247 9.55877L236.247 9.55876L236.247 9.55876C235.737 9.35384 235.155 9.11957 234.544 9.13081C233.143 9.15064 231.841 9.95356 231.126 11.2323C229.657 13.7897 230.744 17.5763 232.164 19.658C232.859 20.6889 233.692 21.8189 234.788 21.7793C235.271 21.7609 235.618 21.6118 235.977 21.4575C236.391 21.2798 236.82 21.0953 237.491 21.0953C238.139 21.0953 238.55 21.275 238.944 21.4476C239.319 21.6116 239.679 21.7691 240.214 21.7595C241.349 21.7396 242.064 20.7286 242.76 19.6976C243.51 18.5912 243.84 17.5113 243.89 17.3475L243.896 17.3285C243.894 17.3273 243.885 17.323 243.869 17.3154C243.618 17.1992 241.701 16.3108 241.682 13.9285C241.664 11.9289 243.203 10.9158 243.445 10.7563C243.46 10.7466 243.47 10.7401 243.474 10.7367C242.495 9.26959 240.968 9.11099 240.439 9.07134ZM263.383 21.7694C264.871 21.7694 266.252 21.0061 266.879 19.7968H266.928V21.6504H269.121V13.9583C269.121 11.7279 267.359 10.2906 264.646 10.2906C262.129 10.2906 260.269 11.7477 260.2 13.7501H262.335C262.511 12.7985 263.383 12.174 264.578 12.174C266.027 12.174 266.84 12.858 266.84 14.1169V14.9693L263.882 15.1478C261.131 15.3163 259.642 16.4562 259.642 18.4387C259.642 20.4411 261.18 21.7694 263.383 21.7694ZM264.019 19.9356C262.756 19.9356 261.953 19.321 261.953 18.3793C261.953 17.4078 262.727 16.8428 264.205 16.7536L266.839 16.5851V17.4574C266.839 18.9046 265.625 19.9356 264.019 19.9356ZM276.397 22.2551C275.447 24.9612 274.36 25.8534 272.049 25.8534C271.873 25.8534 271.285 25.8336 271.148 25.7939V23.9402C271.295 23.9601 271.657 23.9799 271.843 23.9799C272.891 23.9799 273.479 23.5338 273.841 22.3741L274.057 21.6901L270.042 10.4393H272.519L275.31 19.5688H275.359L278.15 10.4393H280.559L276.397 22.2551ZM250.672 8.21885H253.404C255.46 8.21885 256.635 9.32907 256.635 11.2818C256.635 13.2346 255.46 14.3548 253.394 14.3548H250.672V8.21885Z" fill="white"></path><path fill-rule="evenodd" clip-rule="evenodd" d="M314.211 11.8607H309.692C309.692 11.066 309.609 10.5197 309.427 10.2548C309.162 9.85749 308.417 9.64227 307.208 9.64227C306.033 9.64227 305.255 9.75816 304.874 9.98994C304.493 10.2217 304.294 10.7349 304.294 11.513C304.294 12.2249 304.46 12.6885 304.808 12.9037C305.056 13.0693 305.371 13.152 305.768 13.1852L306.678 13.2514C308.632 13.3838 309.857 13.4832 310.337 13.5494C311.877 13.7149 313.003 14.1619 313.698 14.8738C314.244 15.4367 314.575 16.1651 314.675 17.0591C314.741 17.6055 314.774 18.218 314.774 18.8968C314.774 20.4696 314.642 21.6119 314.36 22.3404C313.864 23.6814 312.721 24.5091 310.966 24.8734C310.221 25.0224 309.096 25.1051 307.589 25.1051C305.056 25.1051 303.301 24.9396 302.308 24.6085C301.083 24.2111 300.288 23.3999 299.891 22.1748C299.675 21.496 299.56 20.3703 299.56 18.7809H304.079V19.1783C304.079 20.0226 304.311 20.5689 304.758 20.8007C305.073 20.9663 305.453 21.049 305.884 21.0656H307.539C308.384 21.0656 308.93 21.0159 309.162 20.9166C309.576 20.7345 309.857 20.453 309.973 20.0723C310.039 19.8239 310.072 19.5259 310.072 19.1451C310.072 18.2843 309.774 17.771 309.211 17.5889C308.996 17.5227 307.986 17.4068 306.198 17.2744C304.758 17.1585 303.748 17.0591 303.185 16.9598C301.712 16.6618 300.718 16.0493 300.238 15.1222C299.808 14.3275 299.593 13.1355 299.593 11.5296C299.593 10.3045 299.709 9.32771 299.94 8.59927C300.172 7.87083 300.553 7.30794 301.066 6.92716C301.828 6.34772 302.804 6.00005 303.98 5.90072C305.073 5.80138 306.165 5.75172 307.258 5.76827C309.145 5.76827 310.503 5.88416 311.314 6.11594C313.284 6.67883 314.261 8.28472 314.261 10.9005C314.244 11.1157 314.228 11.4303 314.211 11.8607ZM339.972 15.4201H343.068C344.044 15.387 344.657 15.3043 344.872 15.1884C345.17 15.0228 345.369 14.6917 345.468 14.195C345.534 13.8639 345.567 13.3673 345.567 12.7216C345.567 11.9269 345.501 11.3309 345.385 10.9336C345.203 10.3873 344.773 10.0562 344.094 9.94027C343.962 9.92371 343.63 9.90716 343.134 9.90716H339.988L339.972 15.4201ZM334.988 24.6912V5.76827H344.26C345.534 5.76827 346.495 5.86761 347.173 6.08283C348.696 6.57949 349.723 7.57283 350.253 9.07938C350.518 9.87405 350.65 11.066 350.65 12.6719C350.65 14.5924 350.501 15.9665 350.203 16.8108C349.607 18.4664 348.382 19.4266 346.528 19.6749C346.312 19.708 345.385 19.7411 343.746 19.7743L342.919 19.8074H339.955V24.6912H334.988ZM360.269 17.7379L357.934 9.52638L355.666 17.7379H360.269ZM361.262 21.4298H354.607L353.713 24.7078H348.564L354.127 5.78483H361.626L367.255 24.7078H362.222L361.262 21.4298ZM327.803 8.28471C329.906 8.28471 331.777 9.26149 333.018 10.8012L334.111 8.41716C332.323 6.71194 329.956 5.75172 327.472 5.76827C323.466 5.76827 320.022 8.21849 318.615 11.6952H316.479L315.221 14.4434H317.969C317.953 14.6917 317.936 14.9566 317.936 15.2049C317.936 15.5195 317.953 15.834 317.986 16.132H316.595L315.337 18.8803H318.698C320.155 22.2576 323.532 24.6416 327.489 24.6416C329.475 24.6416 331.33 24.0456 332.853 23.0026V19.6418C331.628 21.0656 329.823 21.9596 327.803 21.9596C325.452 21.9596 323.383 20.7345 322.191 18.8803H329.211L330.469 16.132H321.148C321.065 15.5691 321.049 14.9897 321.115 14.4268H331.247L332.505 11.6786H321.976C323.151 9.65882 325.32 8.28471 327.803 8.28471Z" fill="white"></path></g></svg>