<svg xmlns="http://www.w3.org/2000/svg" width="130" height="39" viewBox="0 0 130 39" fill="none"><rect x="0.5" y="0.5" width="128.487" height="37.142" rx="18.571" fill="#202127"></rect><rect x="0.5" y="0.5" width="128.487" height="37.142" rx="18.571" stroke="url(#paint0_linear_388_1958)"></rect><path d="M25.2154 20.481H25.9174C26.0854 21.621 26.5414 22.521 27.2854 23.181C28.0294 23.829 28.9474 24.153 30.0394 24.153C30.4834 24.153 30.8914 24.099 31.2634 23.991C31.6354 23.883 31.9534 23.733 32.2174 23.541C32.4814 23.337 32.6854 23.103 32.8294 22.839C32.9734 22.563 33.0454 22.257 33.0454 21.921C33.0454 21.633 32.9974 21.387 32.9014 21.183C32.8174 20.967 32.6494 20.763 32.3974 20.571C32.1454 20.367 31.7974 20.163 31.3534 19.959C30.9214 19.755 30.3574 19.521 29.6614 19.257C28.2574 18.717 27.2194 18.093 26.5474 17.385C25.8754 16.665 25.5394 15.819 25.5394 14.847C25.5394 14.283 25.6474 13.767 25.8634 13.299C26.0794 12.831 26.3794 12.429 26.7634 12.093C27.1594 11.757 27.6274 11.499 28.1674 11.319C28.7194 11.127 29.3254 11.031 29.9854 11.031C30.5974 11.031 31.1734 11.127 31.7134 11.319C32.2534 11.511 32.7874 11.799 33.3154 12.183L33.6394 11.283H34.0714L34.2694 15.171H33.5674C33.2794 14.187 32.8294 13.437 32.2174 12.921C31.6054 12.393 30.8974 12.129 30.0934 12.129C29.3494 12.129 28.7434 12.315 28.2754 12.687C27.8194 13.047 27.5914 13.515 27.5914 14.091C27.5914 14.343 27.6334 14.571 27.7174 14.775C27.8014 14.967 27.9574 15.153 28.1854 15.333C28.4134 15.513 28.7254 15.699 29.1214 15.891C29.5174 16.071 30.0274 16.275 30.6514 16.503C31.4914 16.827 32.2054 17.157 32.7934 17.493C33.3934 17.817 33.8794 18.171 34.2514 18.555C34.6354 18.927 34.9174 19.323 35.0974 19.743C35.2774 20.163 35.3674 20.625 35.3674 21.129C35.3674 21.741 35.2354 22.299 34.9714 22.803C34.7074 23.307 34.3354 23.739 33.8554 24.099C33.3874 24.459 32.8234 24.741 32.1634 24.945C31.5154 25.149 30.7954 25.251 30.0034 25.251C29.2834 25.251 28.6354 25.155 28.0594 24.963C27.4834 24.759 26.8894 24.435 26.2774 23.991L25.9174 25.071H25.4854L25.2154 20.481ZM45.683 23.577C45.227 24.081 44.657 24.471 43.973 24.747C43.301 25.023 42.569 25.161 41.777 25.161C41.045 25.161 40.379 25.047 39.779 24.819C39.179 24.579 38.663 24.249 38.231 23.829C37.799 23.409 37.463 22.905 37.223 22.317C36.995 21.717 36.881 21.057 36.881 20.337C36.881 19.593 37.007 18.915 37.259 18.303C37.511 17.691 37.865 17.169 38.321 16.737C38.777 16.293 39.323 15.951 39.959 15.711C40.595 15.471 41.297 15.351 42.065 15.351C42.605 15.351 43.103 15.405 43.559 15.513C44.027 15.621 44.423 15.771 44.747 15.963C45.083 16.155 45.347 16.383 45.539 16.647C45.731 16.899 45.827 17.175 45.827 17.475C45.827 17.823 45.725 18.099 45.521 18.303C45.329 18.507 45.065 18.609 44.729 18.609C44.453 18.609 44.207 18.537 43.991 18.393C43.787 18.249 43.583 18.015 43.379 17.691C43.199 17.403 43.043 17.175 42.911 17.007C42.791 16.839 42.677 16.713 42.569 16.629C42.461 16.533 42.353 16.473 42.245 16.449C42.137 16.413 42.005 16.395 41.849 16.395C41.153 16.395 40.613 16.719 40.229 17.367C39.845 18.015 39.653 18.921 39.653 20.085C39.653 21.333 39.881 22.293 40.337 22.965C40.805 23.637 41.471 23.973 42.335 23.973C42.827 23.973 43.319 23.883 43.811 23.703C44.303 23.511 44.771 23.241 45.215 22.893L45.683 23.577ZM50.7311 22.119C50.7311 22.611 50.7431 23.001 50.7671 23.289C50.8031 23.565 50.8691 23.781 50.9651 23.937C51.0731 24.093 51.2291 24.195 51.4331 24.243C51.6491 24.291 51.9371 24.327 52.2971 24.351V25.071H46.6271V24.351C46.9871 24.327 47.2751 24.291 47.4911 24.243C47.7071 24.195 47.8691 24.099 47.9771 23.955C48.0851 23.811 48.1511 23.607 48.1751 23.343C48.2111 23.067 48.2291 22.701 48.2291 22.245V14.847C48.2291 14.127 48.2171 13.563 48.1931 13.155C48.1811 12.735 48.1511 12.417 48.1031 12.201C48.0671 12.045 48.0251 11.925 47.9771 11.841C47.9291 11.745 47.8511 11.673 47.7431 11.625C47.6471 11.565 47.5091 11.529 47.3291 11.517C47.1611 11.493 46.9451 11.481 46.6811 11.481V10.815L50.6951 10.131V16.773H50.7671C51.1391 16.281 51.5531 15.921 52.0091 15.693C52.4771 15.465 53.0351 15.351 53.6831 15.351C54.8591 15.351 55.7711 15.711 56.4191 16.431C56.7311 16.791 56.9771 17.229 57.1571 17.745C57.3371 18.249 57.4271 18.777 57.4271 19.329V22.119C57.4271 22.623 57.4391 23.019 57.4631 23.307C57.4871 23.583 57.5471 23.799 57.6431 23.955C57.7511 24.099 57.9071 24.195 58.1111 24.243C58.3151 24.291 58.5971 24.327 58.9571 24.351V25.071H53.3231V24.351C53.6831 24.339 53.9651 24.309 54.1691 24.261C54.3851 24.201 54.5471 24.099 54.6551 23.955C54.7751 23.811 54.8471 23.607 54.8711 23.343C54.9071 23.067 54.9251 22.701 54.9251 22.245V20.031C54.9251 18.759 54.7871 17.859 54.5111 17.331C54.2351 16.803 53.7611 16.539 53.0891 16.539C52.3691 16.539 51.7991 16.803 51.3791 17.331C51.1751 17.607 51.0131 17.949 50.8931 18.357C50.7851 18.765 50.7311 19.221 50.7311 19.725V22.119ZM63.8327 22.281C63.8327 22.749 63.8507 23.121 63.8867 23.397C63.9347 23.661 64.0247 23.865 64.1567 24.009C64.2887 24.153 64.4807 24.249 64.7327 24.297C64.9847 24.333 65.3207 24.351 65.7407 24.351V25.071H59.7287V24.351C60.0887 24.327 60.3767 24.291 60.5927 24.243C60.8087 24.195 60.9707 24.099 61.0787 23.955C61.1867 23.811 61.2527 23.607 61.2767 23.343C61.3127 23.067 61.3307 22.701 61.3307 22.245V20.049C61.3307 19.305 61.3127 18.711 61.2767 18.267C61.2407 17.823 61.1627 17.481 61.0427 17.241C60.9227 17.001 60.7487 16.845 60.5207 16.773C60.3047 16.689 60.0167 16.647 59.6567 16.647V16.017L63.2567 15.351L63.5447 17.421H63.6167C63.9407 16.785 64.3667 16.281 64.8947 15.909C65.4227 15.537 65.9807 15.351 66.5687 15.351C67.0247 15.351 67.3967 15.465 67.6847 15.693C67.9727 15.921 68.1167 16.209 68.1167 16.557C68.1167 16.941 68.0027 17.265 67.7747 17.529C67.5587 17.793 67.2587 17.925 66.8747 17.925C66.6947 17.925 66.5327 17.889 66.3887 17.817C66.2447 17.745 66.1127 17.667 65.9927 17.583C65.8847 17.487 65.7707 17.403 65.6507 17.331C65.5427 17.247 65.4287 17.205 65.3087 17.205C65.0807 17.205 64.8647 17.355 64.6607 17.655C64.4567 17.955 64.2887 18.357 64.1567 18.861C64.0607 19.221 63.9827 19.629 63.9227 20.085C63.8627 20.529 63.8327 20.973 63.8327 21.417V22.281ZM72.7796 22.119C72.7796 22.599 72.7976 22.983 72.8336 23.271C72.8696 23.559 72.9416 23.781 73.0496 23.937C73.1576 24.093 73.3136 24.201 73.5176 24.261C73.7216 24.309 73.9976 24.339 74.3456 24.351V25.071H68.6756V24.351C69.0116 24.339 69.2816 24.303 69.4856 24.243C69.7016 24.171 69.8636 24.063 69.9716 23.919C70.0916 23.763 70.1696 23.553 70.2056 23.289C70.2536 23.013 70.2776 22.665 70.2776 22.245V20.031C70.2776 19.335 70.2656 18.765 70.2416 18.321C70.2176 17.865 70.1876 17.553 70.1516 17.385C70.0916 17.085 69.9536 16.887 69.7376 16.791C69.5336 16.695 69.1556 16.647 68.6036 16.647V16.035L72.7796 15.351V22.119ZM70.1336 11.535C70.1336 11.139 70.2656 10.809 70.5296 10.545C70.8056 10.269 71.1356 10.131 71.5196 10.131C71.9156 10.131 72.2456 10.269 72.5096 10.545C72.7856 10.809 72.9236 11.139 72.9236 11.535C72.9236 11.919 72.7856 12.249 72.5096 12.525C72.2456 12.789 71.9156 12.921 71.5196 12.921C71.1356 12.921 70.8056 12.789 70.5296 12.525C70.2656 12.249 70.1336 11.919 70.1336 11.535ZM75.1075 16.521V15.711C75.8275 15.507 76.4275 15.201 76.9075 14.793C77.3995 14.373 77.7655 13.893 78.0055 13.353H78.9235V15.531H80.9935V16.521H78.9235V22.047C78.9235 22.791 79.0015 23.319 79.1575 23.631C79.3255 23.943 79.6015 24.099 79.9855 24.099C80.4535 24.099 80.8075 23.883 81.0475 23.451L81.4255 23.973C81.0895 24.825 80.2975 25.251 79.0495 25.251C78.2215 25.251 77.5735 25.059 77.1055 24.675C76.6495 24.291 76.4215 23.751 76.4215 23.055V16.521H75.1075ZM81.9805 16.521V15.711C82.7005 15.507 83.3005 15.201 83.7805 14.793C84.2725 14.373 84.6385 13.893 84.8785 13.353H85.7965V15.531H87.8665V16.521H85.7965V22.047C85.7965 22.791 85.8745 23.319 86.0305 23.631C86.1985 23.943 86.4745 24.099 86.8585 24.099C87.3265 24.099 87.6805 23.883 87.9205 23.451L88.2985 23.973C87.9625 24.825 87.1705 25.251 85.9225 25.251C85.0945 25.251 84.4465 25.059 83.9785 24.675C83.5225 24.291 83.2945 23.751 83.2945 23.055V16.521H81.9805ZM100.907 21.183C100.907 20.259 100.727 19.545 100.367 19.041C100.007 18.525 99.5028 18.267 98.8548 18.267C98.6148 18.363 98.3808 18.441 98.1528 18.501C97.9368 18.561 97.7508 18.591 97.5948 18.591C97.2588 18.591 96.9948 18.525 96.8028 18.393C96.6228 18.249 96.5328 18.051 96.5328 17.799C96.5328 17.583 96.6228 17.415 96.8028 17.295C96.9828 17.175 97.2348 17.115 97.5588 17.115C97.7268 17.115 97.9128 17.139 98.1168 17.187C98.3328 17.223 98.5248 17.265 98.6928 17.313C99.2688 17.313 99.7248 17.091 100.061 16.647C100.409 16.191 100.583 15.513 100.583 14.613C100.583 13.749 100.409 13.095 100.061 12.651C99.7248 12.207 99.2628 11.985 98.6748 11.985C98.1228 11.985 97.6908 12.117 97.3788 12.381C97.0788 12.645 96.9288 13.011 96.9288 13.479C96.9288 13.803 97.0188 14.073 97.1988 14.289C97.3908 14.505 97.6308 14.613 97.9188 14.613C97.8468 14.937 97.6908 15.195 97.4508 15.387C97.2108 15.567 96.9048 15.657 96.5328 15.657C96.2448 15.657 95.9688 15.603 95.7048 15.495C95.4528 15.387 95.2308 15.237 95.0388 15.045C94.8468 14.853 94.6908 14.637 94.5708 14.397C94.4628 14.145 94.4088 13.875 94.4088 13.587C94.4088 13.203 94.5108 12.855 94.7148 12.543C94.9188 12.231 95.2068 11.961 95.5788 11.733C95.9628 11.505 96.4128 11.331 96.9288 11.211C97.4568 11.091 98.0448 11.031 98.6928 11.031C99.4008 11.031 100.037 11.109 100.601 11.265C101.177 11.409 101.669 11.625 102.077 11.913C102.485 12.189 102.797 12.525 103.013 12.921C103.229 13.317 103.337 13.755 103.337 14.235C103.337 14.619 103.271 14.991 103.139 15.351C103.019 15.711 102.839 16.041 102.599 16.341C102.371 16.629 102.095 16.881 101.771 17.097C101.459 17.313 101.117 17.469 100.745 17.565V17.673C101.201 17.805 101.615 17.991 101.987 18.231C102.371 18.459 102.695 18.735 102.959 19.059C103.223 19.383 103.427 19.737 103.571 20.121C103.715 20.505 103.787 20.913 103.787 21.345C103.787 21.909 103.655 22.431 103.391 22.911C103.139 23.391 102.779 23.805 102.311 24.153C101.855 24.501 101.309 24.771 100.673 24.963C100.049 25.155 99.3588 25.251 98.6028 25.251C97.9188 25.251 97.2828 25.173 96.6948 25.017C96.1188 24.849 95.6208 24.627 95.2008 24.351C94.7808 24.063 94.4508 23.727 94.2108 23.343C93.9708 22.947 93.8508 22.515 93.8508 22.047C93.8508 21.711 93.9108 21.399 94.0308 21.111C94.1628 20.811 94.3368 20.553 94.5528 20.337C94.7688 20.109 95.0208 19.929 95.3088 19.797C95.5968 19.665 95.9028 19.599 96.2268 19.599C96.6228 19.599 96.9588 19.707 97.2348 19.923C97.5108 20.127 97.6848 20.403 97.7568 20.751C97.3968 20.751 97.0968 20.901 96.8568 21.201C96.6168 21.489 96.4968 21.849 96.4968 22.281C96.4968 22.869 96.6828 23.343 97.0548 23.703C97.4388 24.051 97.9488 24.225 98.5848 24.225C99.2688 24.225 99.8268 23.949 100.259 23.397C100.691 22.845 100.907 22.107 100.907 21.183Z" fill="#84AEFF" fill-opacity="0.9"></path><defs><linearGradient id="paint0_linear_388_1958" x1="0" y1="19.071" x2="129.487" y2="19.071" gradientUnits="userSpaceOnUse"><stop stop-color="#666666" stop-opacity="0.3"></stop><stop offset="1" stop-color="#666666" stop-opacity="0.3"></stop></linearGradient></defs></svg>